{"glyphs":{"0":{"ha":624,"x_min":47,"x_max":576,"o":"m 291 31 q 260 35 276 31 q 138 113 195 51 q 47 364 47 219 q 50 410 47 387 q 110 643 61 526 q 227 833 159 760 q 264 867 243 850 q 298 890 285 884 q 315 895 306 894 q 330 897 323 897 q 367 890 350 896 q 442 850 404 878 q 504 793 480 823 q 529 750 515 777 q 550 703 543 724 q 576 521 576 621 l 576 500 q 511 225 574 351 q 425 97 475 146 q 291 31 358 31 m 314 112 q 331 115 322 112 q 378 140 353 121 q 410 170 392 151 q 437 202 428 189 q 509 396 488 281 q 512 474 512 426 q 508 566 512 526 q 489 661 500 625 q 457 727 478 697 q 418 773 435 759 q 393 788 400 788 l 374 766 q 230 454 276 652 q 216 380 220 410 q 213 311 213 351 q 213 277 213 289 q 215 258 214 265 q 217 242 216 250 q 240 174 226 203 q 270 131 252 151 q 314 112 288 112 z "},"1":{"ha":287,"x_min":47,"x_max":239,"o":"m 179 -14 q 155 -9 167 -14 q 114 61 127 4 q 92 169 103 109 q 75 264 81 229 q 47 661 49 478 q 56 793 47 749 q 83 859 64 838 q 138 883 105 883 q 216 815 197 883 q 221 783 219 803 q 224 720 222 763 q 226 596 225 677 q 228 421 227 486 q 234 274 230 357 q 238 169 236 222 q 239 83 239 117 q 238 47 239 56 q 210 -5 233 12 q 179 -14 195 -14 z "},"2":{"ha":587,"x_min":47,"x_max":540,"o":"m 513 -15 q 505 -14 509 -15 q 497 -12 500 -13 q 472 -6 490 -9 q 432 1 454 -3 q 393 6 410 4 q 375 7 387 7 q 350 9 363 8 q 334 10 342 9 q 299 12 315 12 q 264 9 282 12 q 219 3 246 7 q 218 3 219 3 q 184 -1 195 -1 q 173 0 178 -1 q 137 30 148 7 q 130 62 130 45 q 134 87 130 74 q 184 205 143 117 q 221 287 206 250 q 253 374 236 323 q 292 504 274 439 q 318 616 309 569 q 330 722 330 687 q 328 745 330 739 q 326 747 327 746 q 323 749 326 749 l 316 750 q 279 738 304 750 q 197 646 239 713 q 168 592 184 626 q 140 532 151 559 q 113 433 125 490 q 101 343 101 377 q 101 341 101 342 q 99 326 101 334 q 92 310 98 317 q 74 304 87 304 q 64 305 69 304 q 55 311 59 307 q 47 337 47 317 l 49 361 q 55 416 51 391 q 67 478 59 441 q 108 606 84 553 q 131 651 116 625 q 156 694 145 677 q 218 782 197 759 q 289 838 250 819 q 366 858 328 858 q 433 839 402 858 q 498 730 480 808 q 503 707 502 719 q 504 666 504 695 q 499 598 504 629 q 484 520 495 567 q 372 250 454 395 q 341 196 355 220 q 273 79 298 119 l 269 73 q 313 68 288 71 q 355 64 338 65 q 450 54 400 61 q 518 38 499 46 q 538 19 534 31 l 540 12 q 536 -1 540 5 q 513 -15 526 -15 z "},"3":{"ha":546,"x_min":47,"x_max":498,"o":"m 241 7 l 230 8 q 197 21 214 12 q 173 43 180 31 q 170 58 170 51 q 173 73 170 66 q 189 84 178 83 l 192 84 q 209 79 200 84 l 216 78 q 229 79 221 78 q 243 83 237 81 q 250 87 247 85 q 257 98 252 90 q 285 152 272 121 q 305 211 298 184 q 313 249 309 227 q 319 290 317 271 q 321 317 321 310 q 321 332 321 328 q 319 336 320 336 q 311 334 319 336 q 241 292 274 326 q 220 273 233 284 q 199 259 207 262 l 192 258 q 176 263 184 258 q 161 281 168 269 q 156 293 158 288 q 155 304 155 298 l 155 313 q 161 336 156 323 q 178 375 165 350 q 216 446 191 401 l 218 449 q 247 500 237 483 q 261 529 256 517 q 274 561 267 541 l 275 563 q 312 666 300 624 q 329 753 323 708 q 332 794 332 777 q 319 842 332 831 l 317 844 l 307 844 q 236 814 276 844 q 164 736 196 784 q 131 673 146 709 q 109 608 115 637 q 101 528 101 572 l 102 494 q 100 474 102 481 q 94 462 99 467 q 84 457 90 458 q 77 456 79 456 q 54 470 59 456 q 49 503 50 485 l 47 536 q 73 705 47 619 q 204 901 111 821 q 330 964 267 956 q 354 966 342 966 q 438 935 401 966 q 483 870 467 910 q 498 782 498 830 q 496 739 498 758 q 488 694 494 720 q 378 482 463 587 q 358 456 370 472 q 336 426 347 441 q 335 425 336 425 q 357 425 343 425 l 364 425 q 393 421 382 425 q 418 408 404 418 q 449 371 434 395 q 471 322 463 347 q 475 280 475 304 q 469 227 475 252 q 323 32 430 75 q 309 26 317 29 q 298 21 302 23 q 241 7 268 7 z "},"4":{"ha":526,"x_min":47,"x_max":478,"o":"m 354 31 q 333 37 343 31 q 309 68 318 47 q 297 111 300 89 q 295 159 296 122 q 294 239 294 195 q 295 321 294 282 q 297 377 296 360 l 298 391 q 260 385 283 389 q 216 376 237 381 q 87 354 113 354 l 79 354 q 67 356 72 354 q 56 364 62 358 q 50 373 53 368 q 47 385 47 379 q 61 424 47 399 q 108 497 75 450 q 163 583 138 541 q 221 695 187 626 q 242 740 233 720 q 263 789 252 760 q 294 867 275 817 q 313 917 306 899 q 325 945 321 935 q 333 960 330 955 q 340 968 336 964 q 370 981 353 981 l 376 981 q 416 954 401 978 q 434 880 434 925 q 400 734 434 819 q 192 444 352 608 l 182 434 q 235 444 207 439 q 285 451 262 448 l 304 453 q 349 633 319 578 q 366 655 355 645 q 387 670 377 665 q 410 674 397 674 q 437 669 425 674 q 457 651 448 663 q 471 627 467 640 q 478 557 478 602 q 460 365 478 484 q 444 264 453 321 q 426 161 434 208 q 415 104 418 115 q 400 67 410 86 q 380 39 391 48 q 354 31 368 31 z "},"5":{"ha":538,"x_min":47,"x_max":490,"o":"m 205 60 l 196 60 q 180 61 189 60 q 168 62 172 62 q 149 68 161 64 q 125 77 136 73 q 108 84 113 81 q 72 114 91 93 q 54 151 54 136 q 62 172 54 163 q 77 179 69 179 q 92 175 84 179 q 104 159 99 171 q 127 140 109 149 q 144 134 136 134 q 158 139 150 134 q 180 155 165 144 q 354 395 282 233 q 368 430 364 420 q 371 447 371 440 q 362 470 371 458 q 340 488 353 481 q 323 492 332 492 q 245 451 289 492 q 215 415 226 432 q 198 374 205 397 q 136 321 182 321 q 62 387 85 321 q 47 536 47 434 l 49 600 q 71 798 54 725 q 134 900 90 889 q 211 905 149 903 q 332 907 274 907 q 386 907 363 907 q 414 904 408 906 q 431 882 431 900 q 424 862 431 872 l 416 852 l 232 852 l 208 847 q 203 846 205 846 q 195 844 198 845 l 195 839 q 218 585 218 729 l 216 503 q 250 527 233 516 q 277 543 267 538 q 308 553 290 549 q 337 557 326 557 q 422 518 380 557 q 483 421 463 479 q 490 366 490 397 q 477 279 490 324 q 294 83 433 153 q 249 66 269 71 q 205 60 229 61 z "},"6":{"ha":511,"x_min":47,"x_max":464,"o":"m 230 -12 q 203 -9 216 -12 q 52 218 85 28 q 47 304 47 251 q 49 359 47 333 q 52 401 50 385 q 177 774 85 615 q 362 961 270 924 q 394 966 377 966 l 400 966 q 424 963 414 966 q 459 930 448 954 q 464 907 464 919 q 458 883 464 895 q 451 871 456 879 q 438 856 445 864 q 426 843 431 848 q 420 836 420 837 q 338 739 366 779 q 218 477 264 631 q 203 418 210 448 q 201 406 202 412 q 307 427 255 427 l 316 427 q 335 426 328 427 q 353 421 342 425 q 446 319 423 393 q 452 287 450 305 q 455 254 455 268 q 446 189 455 228 q 424 124 437 151 q 311 6 380 42 q 230 -12 268 -12 m 250 45 q 258 46 254 45 q 268 49 262 47 q 363 127 321 62 q 381 162 374 144 q 393 205 389 180 q 399 256 399 233 q 378 333 399 301 q 321 365 362 358 q 308 366 315 366 l 299 366 q 242 359 273 366 q 194 340 212 351 l 186 336 q 177 269 180 296 q 174 213 174 242 l 173 189 q 200 68 173 105 q 212 55 205 60 q 233 48 218 51 q 243 46 239 47 q 250 45 248 45 z "},"7":{"ha":545,"x_min":47,"x_max":498,"o":"m 208 -18 q 185 -12 196 -18 q 163 38 163 2 q 168 88 163 58 l 176 147 q 188 218 179 172 q 217 359 197 264 q 268 585 248 509 q 320 757 288 662 q 355 882 351 852 l 356 890 l 356 892 q 323 897 352 896 l 315 897 q 251 888 280 897 q 206 876 237 884 q 145 861 176 868 q 102 850 115 853 q 98 850 100 850 q 73 846 81 846 q 66 847 69 846 q 59 851 62 848 q 48 870 50 859 l 47 873 q 54 889 47 882 q 66 898 58 895 q 90 903 75 901 q 158 920 109 907 q 250 944 207 932 q 272 948 257 945 q 302 954 286 951 l 358 964 q 387 966 373 966 q 457 935 429 966 q 492 871 481 909 q 497 849 496 860 q 498 812 498 838 q 495 757 498 780 q 483 691 492 734 q 456 586 473 645 q 404 428 438 527 q 373 339 390 390 q 343 250 356 289 q 318 174 331 210 q 299 120 306 137 q 283 79 291 100 q 275 60 278 67 q 247 0 261 19 q 208 -18 233 -18 z "},"8":{"ha":479,"x_min":47,"x_max":431,"o":"m 214 5 q 192 6 203 5 q 105 50 140 14 q 60 170 61 92 l 60 183 q 74 281 60 229 q 129 439 97 372 l 136 454 l 132 457 q 85 527 108 484 q 52 609 62 570 q 47 665 47 632 q 52 724 47 699 q 173 901 78 854 q 270 923 222 923 q 300 920 286 923 q 406 842 372 903 q 431 720 431 789 q 413 604 431 662 q 290 406 384 517 l 290 406 q 327 363 304 391 q 363 315 349 336 q 396 200 396 270 l 396 195 q 380 110 396 140 q 311 34 357 63 q 214 5 264 5 m 161 505 q 179 536 168 516 q 187 551 183 544 q 220 612 208 589 q 239 655 231 635 q 267 784 265 722 l 267 800 q 265 824 267 817 q 258 836 263 831 q 244 846 252 843 q 217 850 235 850 q 199 849 204 850 q 189 846 194 848 q 113 742 138 823 q 105 710 107 725 q 102 676 102 696 l 103 656 q 104 633 103 641 q 106 619 104 625 q 110 606 107 613 q 126 565 117 587 q 144 529 136 543 q 161 505 152 516 m 224 67 q 257 72 239 67 q 319 114 297 83 q 342 187 342 145 q 340 211 342 199 q 254 360 327 288 q 149 149 161 237 l 148 142 q 156 105 148 123 q 179 79 165 88 q 224 67 199 67 z "},"9":{"ha":525,"x_min":47,"x_max":479,"o":"m 170 14 q 127 19 146 14 q 76 41 97 26 q 49 73 54 56 l 47 80 q 56 99 47 91 q 73 107 64 107 q 98 93 88 104 q 159 72 117 72 l 172 73 q 191 74 184 73 q 202 78 198 75 q 212 83 207 80 q 307 328 282 146 q 315 453 315 390 q 305 615 315 521 q 256 820 291 752 q 225 846 243 844 l 220 847 q 173 823 199 847 q 106 673 112 764 l 106 665 q 132 558 106 618 q 226 465 165 491 q 248 458 239 460 q 267 456 256 456 l 284 456 q 308 447 301 456 q 313 432 313 439 q 301 410 313 420 q 288 404 295 405 q 267 403 280 403 q 169 435 221 403 q 57 612 87 485 q 50 671 50 644 q 66 755 50 713 q 138 874 93 829 q 244 926 189 926 q 264 924 254 926 q 370 867 325 914 q 449 732 422 817 q 471 642 465 686 q 477 536 477 597 q 422 239 479 377 q 265 34 361 78 q 170 14 220 14 z "},"\u0000":{"ha":0,"x_min":0,"x_max":0,"o":""}," ":{"ha":340,"x_min":0,"x_max":0,"o":""},"!":{"ha":258,"x_min":47,"x_max":211,"o":"m 119 -4 q 103 -1 111 -4 q 77 16 90 4 q 57 41 64 27 q 47 82 47 60 q 53 114 47 98 q 69 138 58 127 q 93 153 80 149 q 110 155 102 155 q 144 143 128 155 q 174 76 174 119 l 174 72 q 169 43 174 59 q 159 17 163 26 q 146 3 155 9 q 119 -4 134 -4 m 117 189 q 99 193 108 189 q 61 247 73 203 q 58 260 59 254 q 56 276 56 267 q 55 304 55 286 l 55 315 q 58 432 55 356 q 66 592 61 508 l 72 689 q 83 814 76 777 q 104 868 90 852 q 144 887 121 887 q 161 884 153 887 q 178 871 170 880 q 191 855 186 863 q 208 802 202 837 q 210 785 209 794 q 211 759 210 775 q 211 713 211 743 q 210 658 211 679 q 208 610 210 637 q 201 529 205 582 q 199 511 200 521 l 190 399 q 186 356 189 378 q 182 322 184 334 l 178 280 q 172 246 178 266 q 161 214 167 226 q 117 189 143 189 z "},"\"":{"ha":361,"x_min":47,"x_max":314,"o":"m 90 712 q 72 719 81 712 q 62 730 65 724 q 58 750 59 737 q 57 786 57 763 q 56 789 56 787 q 55 827 56 814 q 52 848 54 840 q 47 893 47 871 q 54 929 47 913 q 77 954 60 945 q 86 959 82 958 q 96 960 91 960 l 102 960 q 140 941 125 959 q 165 871 165 911 l 165 865 q 160 834 164 850 q 145 786 156 818 q 136 759 140 768 q 130 743 133 749 q 122 731 127 737 q 95 713 112 715 q 90 712 94 712 m 239 720 q 220 726 230 720 q 211 738 214 731 q 207 758 208 745 q 205 793 205 770 q 205 796 205 795 q 204 834 205 821 q 201 856 203 847 q 196 901 196 878 q 202 937 196 920 q 225 962 209 953 q 235 966 231 965 q 244 968 239 968 l 251 967 q 289 948 273 966 q 314 878 314 919 l 313 872 q 309 842 313 858 q 294 793 304 825 q 285 766 288 776 q 278 751 281 757 q 271 739 275 745 q 243 720 260 723 q 239 720 242 720 z "},"#":{"ha":638,"x_min":47,"x_max":591,"o":"m 397 57 q 379 60 387 57 q 360 75 370 64 q 345 107 350 85 q 340 147 342 123 q 338 222 339 172 q 338 250 338 237 q 337 277 338 268 q 326 277 332 277 q 301 274 314 275 q 280 272 289 273 q 280 264 280 269 q 279 240 279 256 q 277 175 279 207 q 273 132 275 144 q 258 105 269 115 q 233 95 248 95 q 200 111 212 95 q 185 146 190 121 q 179 226 181 171 l 178 260 q 132 255 162 258 q 127 254 129 255 q 71 249 88 249 q 56 252 60 249 q 49 263 52 256 q 47 272 47 268 q 58 291 47 283 q 58 291 58 291 q 61 292 58 292 q 69 294 63 293 q 85 297 75 296 q 114 301 96 299 q 158 307 132 304 l 178 309 q 178 320 178 315 q 175 437 176 402 l 174 446 q 167 445 171 446 q 149 443 158 444 l 114 440 q 98 439 104 439 q 86 441 91 439 q 72 463 72 449 q 86 485 72 477 q 98 487 90 486 q 112 488 105 488 q 118 489 116 489 q 146 492 133 490 q 172 494 162 492 l 172 557 q 174 645 172 614 q 182 690 176 676 q 203 710 189 704 q 221 715 212 715 q 239 711 230 715 q 281 639 269 694 q 288 580 285 618 q 290 517 290 542 l 290 507 l 337 511 q 340 532 338 518 q 340 543 340 537 l 340 546 q 401 736 353 722 q 420 741 410 741 q 465 709 448 741 q 481 589 481 683 l 481 562 l 480 524 q 486 524 483 524 q 519 526 500 525 l 545 528 q 557 526 553 528 q 564 522 561 525 q 570 514 568 518 q 572 505 572 509 q 567 489 572 494 q 546 482 562 484 q 496 477 530 480 q 490 477 493 477 l 477 475 q 475 456 477 471 q 470 404 474 441 q 468 380 469 395 q 465 350 467 365 q 465 336 465 342 q 488 336 474 336 q 512 337 499 336 l 556 338 q 572 337 567 338 q 580 336 578 337 q 584 334 583 335 q 589 325 588 330 q 591 316 591 320 q 577 295 591 299 q 534 290 564 291 q 463 287 475 288 q 462 274 462 281 q 461 260 462 268 q 453 134 457 172 q 441 85 448 96 q 431 70 437 77 q 416 60 424 64 q 397 57 407 57 m 281 321 l 313 324 l 337 326 l 338 357 l 336 463 l 288 457 q 284 391 287 434 q 281 321 282 348 z "},"$":{"ha":517,"x_min":62,"x_max":475,"o":"m 277 -44 q 273 -43 275 -44 l 267 -40 q 256 -26 260 -35 l 256 -24 q 255 -14 255 -22 q 254 14 254 -5 l 254 33 q 228 40 241 35 q 204 52 214 45 q 160 118 176 74 q 153 153 155 136 q 152 170 152 161 q 153 204 152 184 l 155 226 q 158 247 157 239 q 162 264 159 255 q 163 266 163 265 q 170 280 166 275 q 181 289 174 286 q 191 292 186 292 l 193 292 q 201 288 197 291 q 214 272 212 283 q 215 264 215 269 l 215 261 q 212 246 214 254 q 208 230 210 242 q 205 202 206 217 q 203 177 203 189 l 203 158 q 215 121 206 138 q 235 97 223 104 l 235 96 q 241 93 238 95 q 247 91 243 92 q 256 90 250 90 q 268 88 264 88 q 276 90 273 88 q 329 118 304 97 q 365 166 354 140 q 372 197 372 182 q 373 205 373 201 q 370 224 373 217 q 325 266 363 237 q 262 315 294 288 q 211 360 231 341 q 102 513 134 450 q 64 637 70 576 q 62 656 62 647 q 62 667 62 660 q 64 701 62 675 q 72 754 68 734 q 88 800 77 774 q 235 945 142 924 l 236 945 q 237 968 236 956 q 237 1007 237 983 l 239 1036 q 241 1049 239 1045 q 250 1061 243 1057 q 265 1066 256 1066 q 290 1044 285 1063 q 290 1028 290 1040 q 289 1004 290 1017 q 288 985 288 991 q 287 968 288 975 q 286 950 287 957 q 302 951 296 951 q 320 946 310 950 q 402 893 366 932 q 426 856 413 880 q 447 811 439 831 q 475 637 475 734 q 473 597 475 614 q 465 543 472 576 q 454 492 459 509 q 445 468 449 475 q 437 458 441 461 q 427 454 431 455 q 418 453 422 453 q 411 457 416 454 q 403 466 407 460 q 400 471 401 469 q 399 475 399 473 l 399 478 q 408 510 400 486 q 420 589 417 545 q 423 644 423 617 q 418 716 423 682 q 385 823 408 781 q 369 848 376 839 q 350 864 361 857 q 318 876 334 875 l 315 876 q 290 872 302 876 q 256 840 273 865 q 231 784 239 816 q 225 750 227 768 q 224 723 224 736 q 244 591 224 661 q 254 561 249 574 q 268 528 259 547 q 288 488 278 505 q 311 450 297 471 q 392 325 367 374 q 422 251 418 276 q 427 210 427 229 q 427 199 427 204 q 408 134 425 169 q 376 91 397 113 q 334 55 355 68 l 333 55 l 332 54 l 329 52 q 317 46 324 50 q 303 41 311 43 l 303 18 q 303 -1 304 9 q 303 -19 303 -12 l 302 -26 q 288 -43 298 -38 q 279 -44 283 -44 l 277 -44 z "},"%":{"ha":579,"x_min":47,"x_max":532,"o":"m 183 54 q 173 56 177 54 q 159 66 165 58 q 150 81 152 73 q 149 92 149 85 q 154 127 149 103 q 173 199 159 151 q 184 240 178 218 q 193 277 190 262 q 289 556 223 405 q 373 714 331 656 q 407 754 392 741 q 441 767 422 767 q 486 724 480 767 l 486 718 q 480 690 486 707 q 460 638 475 673 q 417 541 445 604 q 372 439 390 481 q 319 315 353 397 q 315 305 317 311 q 287 239 296 261 q 272 201 277 216 q 258 164 266 186 q 227 87 238 109 q 209 62 216 66 q 183 54 197 54 m 161 514 q 135 517 147 514 q 60 581 84 533 q 47 639 47 608 q 62 704 47 671 q 127 780 86 758 l 144 788 l 166 788 q 186 787 180 788 q 201 782 193 786 q 242 724 239 764 q 242 714 242 720 q 241 704 241 708 q 261 638 261 676 l 261 631 q 184 517 253 541 q 161 514 174 514 m 192 604 q 209 641 209 614 q 205 661 209 651 l 197 657 q 193 654 195 656 q 189 650 191 653 q 184 642 187 647 q 180 628 180 634 q 182 617 180 623 q 187 607 184 610 q 191 604 189 604 l 192 604 m 432 73 q 406 77 418 73 q 331 140 355 92 q 319 198 319 168 q 332 263 319 231 q 399 340 357 318 l 416 348 l 437 348 q 457 347 451 348 q 472 341 464 346 q 513 284 510 323 l 513 275 l 512 264 q 532 199 532 236 l 532 191 q 456 77 524 100 q 432 73 446 73 m 461 163 l 463 163 q 479 202 479 175 q 477 221 479 211 l 469 217 q 464 214 466 216 q 460 210 462 213 q 455 201 458 207 q 451 188 451 194 q 453 177 451 183 q 461 163 458 163 z "},"&":{"ha":756,"x_min":47,"x_max":709,"o":"m 376 -31 l 371 -31 q 351 -26 360 -31 q 332 -16 340 -22 q 313 0 323 -10 q 248 137 265 48 q 242 178 243 159 q 241 222 241 196 l 241 242 q 244 299 241 274 q 252 352 246 323 q 170 304 210 304 l 165 304 q 94 336 125 304 q 52 418 62 367 q 47 471 47 443 q 93 677 47 564 q 211 878 138 791 q 355 972 280 958 q 384 975 369 975 q 424 970 407 975 q 458 949 442 963 q 484 918 475 935 q 503 836 503 878 l 502 825 q 498 778 500 801 q 493 740 496 754 q 492 738 493 739 q 488 721 490 727 q 479 711 486 715 q 468 707 474 707 q 459 709 464 707 q 448 719 451 713 q 445 732 445 725 q 447 746 445 740 q 453 818 451 769 l 454 834 q 448 876 454 864 q 436 890 444 882 q 422 901 429 897 q 418 903 420 903 q 414 904 416 904 q 405 904 411 904 q 385 900 393 904 q 363 883 376 897 q 257 653 300 818 q 240 578 247 615 q 229 488 234 541 l 220 416 q 220 414 220 415 q 219 405 219 409 q 266 441 239 415 q 275 451 272 448 q 279 457 277 454 q 282 464 281 460 q 303 508 290 486 q 326 540 315 530 q 343 549 336 547 q 362 552 351 552 q 432 465 420 552 q 433 441 433 454 q 430 394 433 422 q 418 319 426 367 q 388 130 402 231 q 383 91 384 104 q 382 57 382 79 q 382 38 382 45 q 382 28 382 32 q 384 23 383 25 q 441 117 409 41 q 465 193 456 155 q 482 294 473 231 q 487 331 484 312 q 492 361 490 351 l 498 399 q 500 412 498 404 q 505 427 502 420 q 526 449 511 439 q 559 463 541 459 q 580 465 562 464 q 623 467 599 466 q 667 467 647 467 q 694 466 687 467 q 709 444 709 458 q 693 422 709 429 q 650 415 682 418 q 583 409 617 412 q 578 409 581 409 q 564 407 572 408 q 554 406 557 406 q 531 294 544 395 q 518 207 524 237 q 503 148 512 176 q 422 -6 469 39 q 376 -31 403 -28 z "},"'":{"ha":212,"x_min":47,"x_max":165,"o":"m 90 712 q 72 719 81 712 q 62 730 65 724 q 58 750 59 737 q 57 786 57 763 q 56 789 56 787 q 55 827 56 814 q 52 848 54 840 q 47 893 47 871 q 54 929 47 913 q 77 954 60 945 q 86 959 82 958 q 96 960 91 960 l 102 960 q 140 941 125 959 q 165 871 165 911 l 165 865 q 160 834 164 850 q 145 786 156 818 q 136 759 140 768 q 130 743 133 749 q 122 731 127 737 q 95 713 112 715 q 90 712 94 712 z "},"(":{"ha":379,"x_min":47,"x_max":332,"o":"m 289 -68 q 268 -62 279 -68 q 239 -36 260 -56 q 197 5 218 -16 q 168 36 176 26 q 62 273 90 134 q 47 432 47 338 q 50 498 47 473 q 56 559 52 523 q 186 897 84 759 q 283 962 233 962 q 323 943 309 962 q 332 914 332 930 q 328 892 332 904 q 319 871 326 886 q 306 846 312 857 q 207 571 232 711 q 186 365 186 467 q 208 172 186 260 q 284 5 233 70 q 304 -20 298 -12 q 311 -34 310 -29 q 313 -44 313 -38 q 301 -65 313 -58 q 289 -68 295 -68 z "},")":{"ha":379,"x_min":47,"x_max":332,"o":"m 90 -68 q 78 -65 84 -68 q 66 -44 66 -58 q 68 -34 66 -38 q 75 -20 69 -29 q 95 5 81 -12 q 171 172 146 70 q 193 365 193 260 q 172 571 193 467 q 73 846 147 711 q 60 871 67 857 q 51 892 54 886 q 47 914 47 904 q 56 943 47 930 q 96 962 71 962 q 193 897 146 962 q 323 559 296 759 q 330 498 328 523 q 332 432 332 473 q 317 273 332 338 q 212 36 290 134 q 182 5 203 26 q 140 -36 161 -16 q 111 -62 119 -56 q 90 -68 100 -68 z "},"*":{"ha":469,"x_min":47,"x_max":422,"o":"m 237 296 q 222 301 231 296 q 207 325 212 307 q 199 380 202 342 q 176 357 189 371 q 131 314 145 326 q 105 303 117 303 l 101 303 q 86 314 92 304 q 84 326 84 319 q 94 356 84 339 q 159 433 107 378 l 176 452 l 163 462 q 131 486 156 467 q 82 526 106 505 q 50 562 57 548 q 47 574 47 568 q 52 588 47 581 q 73 599 60 599 q 126 578 88 599 q 191 538 163 557 q 191 544 191 541 q 190 562 190 555 q 190 581 190 569 q 195 650 190 633 q 204 667 197 659 q 219 676 210 674 l 224 677 q 253 661 241 677 q 260 645 258 653 q 263 619 262 636 q 264 570 264 602 l 264 539 q 352 619 334 608 q 393 637 376 637 q 401 637 397 637 q 410 632 405 635 q 419 620 415 628 q 422 609 422 614 q 406 580 422 597 q 354 530 391 564 l 302 482 l 287 467 l 300 458 q 370 403 336 431 q 414 362 404 375 q 420 340 420 351 q 412 319 420 328 q 391 311 401 311 q 376 313 382 311 q 364 319 369 316 q 363 319 363 319 q 324 345 349 328 q 273 381 298 363 l 267 386 l 267 347 q 264 315 267 324 q 251 300 261 305 q 237 296 243 296 z "},"+":{"ha":731,"x_min":47,"x_max":684,"o":"m 362 102 q 349 104 357 102 q 342 107 347 106 q 336 112 338 109 q 323 138 328 119 q 315 197 318 157 l 309 249 q 307 269 308 257 q 304 290 305 280 q 304 298 304 294 q 302 317 304 309 l 62 314 q 58 318 60 316 q 50 326 53 322 q 47 338 47 330 l 48 342 q 61 359 50 353 q 63 360 62 360 q 66 361 64 361 q 75 362 69 361 q 89 362 80 362 q 111 363 98 363 q 144 364 125 363 q 191 364 164 364 l 298 366 q 298 378 298 371 q 294 471 294 425 q 300 572 294 538 q 353 621 314 621 q 410 543 397 621 q 414 456 414 513 q 413 401 414 430 l 412 366 l 617 368 q 663 367 650 368 q 680 360 677 365 q 684 348 684 356 q 682 338 684 343 q 676 327 681 332 q 672 324 674 325 q 664 322 669 323 q 649 321 659 321 q 621 320 639 321 q 576 319 604 320 l 442 318 l 409 318 q 406 278 408 304 q 404 227 405 252 q 403 195 403 202 l 401 157 q 396 126 400 138 q 378 106 391 113 q 362 102 369 102 z "},",":{"ha":242,"x_min":47,"x_max":194,"o":"m 100 -170 q 94 -169 97 -170 q 87 -165 91 -168 q 69 -133 69 -154 q 73 -104 69 -120 q 76 -77 75 -92 q 77 -50 77 -62 l 77 -41 q 74 -15 77 -28 q 64 19 71 -2 l 52 59 q 47 87 47 73 q 50 104 47 96 q 62 124 53 115 q 81 138 71 134 q 101 142 90 142 q 125 137 113 142 q 151 120 138 132 q 172 94 163 109 q 194 7 194 59 l 194 -7 q 159 -126 191 -82 q 136 -151 151 -137 q 111 -168 121 -164 q 105 -169 108 -168 q 100 -170 103 -170 z "},"-":{"ha":527,"x_min":47,"x_max":479,"o":"m 262 309 l 196 309 q 146 309 168 309 q 111 310 125 309 q 87 310 96 310 q 72 311 77 311 q 63 312 66 311 q 59 313 60 313 q 57 314 58 313 q 47 331 49 321 q 55 349 47 341 q 62 354 58 352 q 77 357 66 356 q 108 358 87 357 q 186 359 124 359 q 315 359 249 359 q 412 359 370 359 q 460 358 454 359 q 479 338 476 353 l 479 334 q 468 314 479 322 q 466 313 467 313 q 462 312 465 313 q 453 312 459 312 q 438 311 448 311 q 413 310 428 311 q 378 310 399 310 q 328 310 357 310 q 262 309 300 309 z "},".":{"ha":233,"x_min":47,"x_max":185,"o":"m 117 0 q 100 3 109 0 q 85 8 91 5 q 71 19 79 12 q 47 77 47 43 q 48 90 47 83 q 85 146 54 129 q 98 151 92 150 q 113 153 104 153 l 113 153 q 161 132 141 153 q 185 73 185 104 q 166 22 185 45 q 117 0 144 0 z "},"/":{"ha":491,"x_min":47,"x_max":444,"o":"m 94 0 q 79 3 84 0 q 59 17 70 6 q 47 51 47 27 q 51 75 47 62 q 102 208 59 106 q 162 349 139 293 q 214 477 185 406 q 282 644 259 592 q 323 723 305 696 q 351 759 334 743 q 390 774 367 774 q 404 772 397 774 q 422 762 413 770 q 436 743 431 753 q 444 705 444 728 q 382 511 444 640 q 359 465 370 487 q 354 452 356 457 l 325 391 l 267 267 q 149 39 186 91 q 119 8 134 16 q 94 0 104 0 z "},":":{"ha":243,"x_min":47,"x_max":195,"o":"m 118 61 q 104 63 111 61 q 51 141 68 73 q 47 170 47 155 q 50 194 47 183 q 83 238 58 224 q 113 246 98 246 q 129 243 121 246 q 180 171 174 229 l 180 163 q 179 149 180 156 q 175 130 178 141 q 170 109 173 119 q 165 93 168 98 q 118 61 146 61 m 135 457 q 117 460 125 457 q 70 522 87 470 q 66 533 67 528 q 65 545 65 538 l 66 553 q 67 569 66 562 q 72 582 68 575 q 119 618 87 612 q 130 619 124 619 q 168 606 151 619 q 192 572 185 593 q 195 548 195 562 q 182 487 195 517 q 153 460 172 469 q 135 457 145 457 z "},";":{"ha":241,"x_min":47,"x_max":194,"o":"m 121 457 q 102 460 111 457 q 56 522 73 470 q 52 533 53 528 q 51 545 51 538 l 52 553 q 53 569 52 562 q 58 582 54 575 q 104 618 73 612 q 116 619 110 619 q 154 606 136 619 q 178 572 171 593 q 180 548 180 562 q 168 487 180 517 q 139 460 157 469 q 121 457 131 457 m 100 -41 q 94 -40 97 -41 q 87 -37 91 -39 q 69 -5 69 -26 q 73 24 69 8 q 76 51 75 36 q 77 79 77 66 l 77 87 q 74 113 77 100 q 64 147 71 126 l 52 187 q 47 215 47 201 q 50 233 47 224 q 62 252 53 243 q 81 266 71 262 q 101 270 90 270 q 125 265 113 270 q 151 249 138 260 q 172 222 163 237 q 194 135 194 187 l 194 121 q 159 2 191 46 q 136 -22 151 -9 q 111 -39 121 -36 q 105 -41 108 -40 q 100 -41 103 -41 z "},"<":{"ha":585,"x_min":47,"x_max":538,"o":"m 454 -29 q 439 -22 446 -29 q 433 -14 435 -18 q 430 -3 431 -9 q 424 12 429 2 q 413 30 419 21 q 404 45 408 39 q 379 83 389 70 q 355 111 369 97 q 309 151 333 134 q 247 189 284 168 q 87 263 115 260 q 68 268 76 264 q 54 281 60 271 q 47 300 47 290 q 67 334 47 318 q 89 347 73 338 q 118 362 104 355 q 299 471 234 420 q 387 553 341 504 q 433 603 416 584 q 460 630 450 621 q 476 643 470 640 q 489 648 483 647 l 498 650 q 524 638 511 650 q 538 595 538 623 q 525 533 538 567 q 491 469 512 498 q 459 432 479 453 q 422 397 439 411 q 328 337 381 364 q 266 311 298 322 q 186 286 234 299 l 171 282 q 255 240 209 265 q 326 197 302 214 q 444 81 401 145 q 467 37 455 64 q 479 -3 479 10 q 476 -15 479 -9 q 465 -26 473 -21 q 454 -29 460 -29 z "},"=":{"ha":512,"x_min":47,"x_max":465,"o":"m 118 189 q 99 191 106 189 q 69 202 79 194 q 56 219 59 210 q 53 233 53 228 q 73 269 53 256 q 122 287 92 281 q 182 294 151 292 l 215 296 q 252 298 222 297 q 317 299 281 298 l 378 300 q 411 299 401 300 q 426 295 421 298 q 435 286 431 292 q 445 260 445 274 q 431 232 445 245 q 395 219 416 219 q 356 214 391 219 q 118 189 174 189 m 116 315 q 94 315 101 315 q 85 317 87 316 q 47 357 48 326 q 67 392 47 376 q 159 414 87 407 q 245 418 193 416 q 342 420 298 420 q 406 418 387 420 q 451 400 434 414 q 465 373 465 388 q 460 357 465 366 q 445 343 455 350 q 427 334 435 337 q 388 327 414 330 q 342 324 362 325 q 336 323 338 323 q 292 321 320 323 q 236 319 264 320 q 116 315 149 315 z "},">":{"ha":585,"x_min":47,"x_max":538,"o":"m 87 -29 q 62 -18 75 -29 q 47 24 47 -2 q 61 87 47 52 q 95 151 74 121 q 126 188 106 168 q 163 223 146 209 q 258 283 205 256 q 320 310 288 298 q 399 334 351 321 l 414 338 q 330 380 376 355 q 259 422 283 406 q 142 539 184 475 q 119 584 131 557 q 107 624 107 611 q 110 636 107 630 q 120 646 112 642 q 131 650 126 650 q 146 642 139 650 q 155 624 154 635 q 161 609 156 618 q 172 590 166 600 q 181 575 178 581 q 207 536 197 550 q 231 509 217 523 q 277 469 253 487 q 338 431 301 452 q 499 357 470 360 q 532 339 519 357 q 538 320 538 330 q 519 286 538 302 q 500 276 513 283 q 474 262 488 269 q 467 258 471 260 q 287 150 352 199 q 199 68 245 117 q 196 64 197 66 q 151 17 168 35 q 125 -10 134 -1 q 109 -23 115 -19 q 96 -28 103 -26 q 87 -29 93 -29 z "},"?":{"ha":564,"x_min":47,"x_max":517,"o":"m 323 34 q 309 36 316 34 l 301 38 q 298 39 300 38 q 294 42 296 39 q 286 49 291 44 q 262 102 262 72 q 271 136 262 119 q 296 161 279 153 q 321 167 309 167 q 342 163 332 167 q 376 124 367 151 q 380 98 380 111 q 374 69 380 82 q 323 34 355 34 m 324 183 q 311 185 318 183 q 278 250 278 201 q 283 293 278 270 q 306 360 292 326 q 347 452 319 394 q 392 559 379 517 q 404 640 404 601 q 385 724 404 690 q 328 770 365 758 q 299 775 315 775 q 251 766 278 775 q 106 629 145 727 q 99 598 101 612 q 96 559 96 585 q 96 557 96 557 q 97 535 97 543 q 99 522 98 528 q 101 508 100 516 q 130 422 111 463 q 131 420 131 421 q 139 402 136 409 q 142 391 142 396 q 139 382 142 387 q 121 370 133 372 l 119 370 q 102 377 109 370 q 93 393 99 381 q 79 418 86 406 q 70 438 73 431 q 54 497 63 457 q 47 562 47 530 q 76 679 47 625 q 191 795 119 760 q 229 812 208 804 q 266 825 251 820 q 286 828 276 827 q 317 829 295 829 q 349 828 340 829 q 368 825 359 827 q 513 663 486 790 q 517 621 517 645 q 513 579 517 597 q 499 532 509 557 q 479 486 490 506 l 450 436 q 448 433 449 435 q 428 400 435 412 q 417 380 421 388 q 410 367 413 373 q 394 326 402 351 q 382 277 387 300 q 374 242 379 261 q 366 215 370 224 q 324 183 350 183 z "},"@":{"ha":812,"x_min":47,"x_max":764,"o":"m 456 0 l 428 1 q 319 23 376 5 q 220 67 262 41 q 63 280 103 142 q 47 395 47 337 q 77 557 47 475 q 98 605 85 576 q 123 652 112 634 q 243 785 174 732 q 472 861 349 861 q 632 812 562 861 q 672 778 650 800 q 706 739 694 756 q 762 583 750 673 q 764 538 764 564 q 762 492 764 512 q 688 315 749 388 q 572 252 640 260 l 565 252 q 493 286 528 252 q 454 353 466 311 q 430 314 443 333 q 406 285 416 296 q 392 273 399 278 q 376 263 385 268 q 362 257 367 259 q 352 255 357 256 q 338 254 347 254 q 322 255 328 254 q 309 259 315 256 q 254 314 273 275 q 240 359 245 332 q 235 411 235 386 l 236 423 q 288 602 243 543 q 378 652 328 652 q 423 641 401 652 q 456 614 440 632 q 466 643 461 632 q 479 661 471 653 q 509 675 493 675 q 521 674 515 675 q 554 644 545 668 q 565 578 563 619 l 565 549 q 564 491 565 523 q 562 433 563 458 q 560 403 560 422 q 559 366 559 383 l 559 325 l 566 312 q 567 311 566 312 q 575 310 572 310 q 584 309 578 309 l 591 309 q 599 310 596 309 q 605 312 602 311 q 613 315 608 313 q 669 368 643 329 q 713 485 701 418 q 715 538 715 510 l 715 570 q 700 643 711 608 q 684 680 694 659 q 665 713 673 701 q 551 800 621 774 q 472 812 515 812 q 314 774 392 812 q 165 627 227 724 q 101 459 115 548 q 98 430 99 448 q 97 393 97 412 q 100 337 97 359 q 196 146 119 219 q 220 125 210 133 q 243 109 230 117 q 442 50 333 56 l 456 50 q 583 75 524 50 q 622 97 601 83 q 656 122 643 111 q 682 151 668 134 q 706 186 696 168 q 729 202 718 202 q 740 199 735 202 q 752 185 750 195 l 753 180 q 738 146 753 166 q 732 138 734 142 q 725 128 728 132 q 720 121 723 125 q 657 62 692 85 q 479 1 577 7 q 469 1 473 1 q 456 0 462 0 m 356 318 q 360 319 357 318 q 369 322 363 319 q 375 326 372 323 q 380 330 379 328 q 430 400 402 351 l 441 422 q 440 440 441 433 q 439 456 439 448 q 439 480 439 463 q 442 549 439 517 l 443 557 q 431 563 437 560 q 420 566 424 566 l 417 566 l 413 564 q 403 552 408 559 q 391 531 398 546 q 363 443 374 494 q 352 353 352 393 q 353 330 352 340 q 355 321 354 324 q 356 318 355 319 z "},"A":{"ha":562,"x_min":47,"x_max":515,"o":"m 125 -40 q 120 -39 123 -40 q 113 -34 115 -37 q 109 -27 110 -31 q 104 0 106 -22 q 102 77 102 22 l 102 165 l 74 165 q 61 166 66 165 q 52 173 56 168 q 47 186 47 179 q 54 199 47 193 q 65 207 58 205 q 87 210 73 209 l 104 211 q 104 220 104 216 q 138 608 115 435 q 216 911 167 806 q 273 968 237 954 q 286 971 279 970 q 299 972 294 972 q 303 972 301 972 q 318 972 309 972 q 335 968 327 971 q 437 861 402 945 q 467 760 454 823 q 493 577 479 696 q 511 273 507 462 q 512 205 511 243 q 514 140 513 168 l 515 94 q 513 59 515 71 q 506 32 511 47 q 475 -6 496 4 q 457 -9 466 -9 q 434 -4 446 -9 q 405 33 415 5 q 397 56 399 45 q 393 82 394 67 q 390 123 391 97 l 387 162 q 298 166 361 165 q 189 168 236 168 l 151 168 q 151 125 151 153 q 150 81 151 105 l 150 -20 q 136 -37 150 -31 q 125 -40 131 -40 m 385 209 l 382 259 q 362 458 375 368 q 327 658 350 549 q 302 766 312 728 q 283 821 292 804 q 269 848 275 839 q 200 686 227 818 q 161 354 174 554 l 152 214 l 204 214 q 309 212 254 214 q 385 209 365 210 z "},"B":{"ha":488,"x_min":47,"x_max":441,"o":"m 192 -3 q 171 2 181 -3 q 134 82 142 19 l 122 156 q 102 316 114 205 l 82 492 q 50 806 58 693 q 47 864 47 835 q 50 913 47 897 q 83 962 59 949 q 103 967 93 967 q 123 962 113 967 l 124 962 q 149 971 137 968 q 178 973 160 973 q 309 928 253 973 q 434 698 408 850 q 441 614 441 656 q 435 534 441 572 q 422 481 431 511 q 407 431 414 451 q 296 259 363 321 q 342 244 321 254 q 367 225 356 237 q 382 203 378 214 q 386 182 386 193 q 351 113 386 147 q 322 90 342 104 q 282 63 302 75 q 252 52 262 52 q 240 54 245 52 q 239 43 239 47 q 237 35 238 39 q 210 0 231 10 q 192 -3 201 -3 m 240 94 q 246 97 243 96 q 248 98 247 98 q 294 125 258 102 q 340 180 338 156 l 340 182 q 333 195 340 189 q 301 211 322 204 q 262 217 279 217 l 252 216 q 242 215 245 216 q 237 212 239 214 l 238 152 l 240 94 m 233 267 q 258 288 244 275 q 281 309 273 300 q 340 395 315 346 q 357 434 348 411 q 372 471 367 456 q 382 511 377 487 q 391 553 388 535 q 393 584 393 565 q 394 621 394 603 q 393 652 394 639 q 321 852 381 777 q 296 879 311 865 q 269 900 281 892 q 194 927 236 922 l 180 928 l 166 926 q 165 926 165 926 q 157 925 161 925 q 173 867 167 907 q 187 770 180 828 q 201 654 195 711 q 216 479 207 589 q 231 302 225 368 q 233 275 231 286 q 233 267 233 271 z "},"C":{"ha":555,"x_min":47,"x_max":508,"o":"m 258 -5 q 235 -2 245 -5 q 175 33 208 6 q 121 90 142 59 q 95 138 107 111 q 74 192 82 166 q 47 412 47 290 q 48 456 47 435 q 79 701 54 600 q 176 916 115 853 q 249 970 214 958 q 273 973 260 973 q 387 908 331 973 q 461 765 433 849 q 466 752 461 765 q 475 722 470 740 q 479 688 479 705 q 474 665 479 675 q 456 656 469 656 q 441 659 449 656 q 402 782 429 723 q 340 878 375 841 q 330 887 333 884 q 322 891 326 890 q 309 892 317 892 q 305 892 307 892 q 301 891 303 892 q 298 891 299 891 l 298 890 q 270 828 289 881 q 236 705 252 776 q 203 494 216 610 q 191 289 191 377 l 192 244 q 201 159 194 192 q 224 96 209 125 q 264 55 239 67 q 288 50 275 50 q 309 53 298 50 q 425 189 370 77 q 459 279 450 240 q 468 307 463 298 q 484 318 473 317 l 487 318 q 504 309 498 318 q 508 295 508 302 q 507 285 508 291 q 507 283 507 284 q 479 198 500 248 q 437 113 459 149 q 315 5 382 25 q 258 -5 283 -5 z "},"D":{"ha":570,"x_min":47,"x_max":522,"o":"m 180 -10 q 162 -3 172 -10 q 116 52 143 12 q 77 140 88 92 q 48 576 58 256 q 47 654 47 611 q 48 739 47 698 q 50 801 49 781 q 78 894 56 866 q 117 932 100 922 q 118 932 118 932 q 129 938 124 936 q 142 940 134 940 q 161 935 152 940 q 168 929 164 933 q 175 920 172 925 q 176 920 176 920 q 177 920 177 920 q 241 939 201 932 q 273 941 257 941 q 363 922 321 941 q 480 817 447 881 q 494 782 487 803 q 506 744 502 761 q 522 605 522 679 q 508 463 522 535 q 381 187 480 326 q 200 -3 291 63 q 180 -10 191 -10 m 208 61 q 295 149 250 96 q 374 255 341 203 q 454 425 429 345 q 477 552 471 483 q 479 602 479 573 q 479 640 479 621 q 476 671 478 659 q 462 745 471 711 q 441 797 452 780 q 421 821 435 806 q 396 846 407 837 q 370 864 387 854 q 342 880 354 874 q 321 887 334 884 q 297 892 309 890 q 273 894 287 894 q 228 889 250 893 q 191 877 206 884 l 190 876 q 193 851 192 865 q 195 824 195 836 q 196 788 195 812 q 196 737 196 763 q 197 675 196 712 q 197 609 197 638 l 201 405 q 208 61 205 150 z "},"E":{"ha":595,"x_min":47,"x_max":547,"o":"m 300 1 q 277 4 290 1 q 225 33 252 12 q 180 81 199 54 q 145 166 157 116 q 125 312 134 217 l 120 361 l 109 359 q 83 351 92 353 q 68 349 75 349 q 58 353 62 349 q 47 370 49 359 q 56 388 47 380 q 72 395 60 391 q 95 404 83 400 l 116 412 q 115 455 116 425 q 111 544 112 494 l 111 577 q 138 823 111 723 q 250 958 175 927 q 283 962 264 962 q 316 959 300 962 q 382 929 345 953 q 499 739 486 857 l 500 729 q 498 719 500 723 q 492 711 496 715 q 476 703 486 703 l 472 704 q 456 716 460 708 q 453 735 453 725 q 420 828 448 785 q 402 849 413 838 q 383 867 391 861 q 348 885 368 878 q 311 892 328 892 q 304 892 307 892 q 300 891 302 892 q 299 891 299 891 q 298 890 298 890 q 287 857 290 884 q 281 794 283 829 q 280 682 280 773 l 280 604 l 281 464 q 298 468 289 465 q 405 490 365 485 q 423 492 416 492 q 440 487 433 492 q 446 478 445 483 q 448 471 448 473 l 448 469 q 436 449 448 454 q 413 444 425 445 q 366 435 395 441 q 307 421 338 429 l 283 415 l 286 191 q 286 178 286 184 q 287 128 287 145 q 288 104 288 111 q 290 93 289 97 q 296 76 293 83 q 303 64 298 69 q 309 59 307 60 q 314 58 311 58 q 315 58 315 58 q 369 80 334 58 q 447 149 404 102 q 495 206 481 186 q 511 227 506 222 q 525 233 517 233 q 547 216 543 233 l 547 211 q 543 197 547 207 q 522 167 538 187 q 476 113 507 147 q 389 37 440 72 q 300 1 339 1 z "},"F":{"ha":580,"x_min":47,"x_max":533,"o":"m 218 13 q 199 17 208 13 q 185 27 192 21 q 175 40 178 34 q 168 57 172 45 q 159 83 163 69 q 153 105 155 96 q 123 333 134 184 q 115 332 119 333 q 114 332 115 332 q 71 324 83 324 q 58 328 62 324 q 47 347 47 335 q 58 365 47 357 q 71 370 62 368 q 88 374 79 372 q 119 380 112 378 q 119 425 119 394 q 117 517 117 465 q 118 600 117 560 q 120 661 119 640 q 138 799 125 749 q 174 884 151 849 q 271 958 212 937 q 340 967 304 967 q 374 964 358 967 q 519 870 467 945 q 526 860 522 866 q 530 849 529 854 q 533 838 533 843 q 529 826 533 832 q 511 817 523 817 l 509 817 q 492 825 499 817 q 486 837 486 833 q 475 852 484 842 q 458 871 467 863 q 340 921 402 921 q 313 918 326 921 q 260 869 269 911 q 257 848 258 863 q 256 813 256 832 q 255 779 255 793 l 255 769 q 256 743 256 753 q 258 707 257 726 q 259 649 258 688 q 260 534 260 610 l 262 415 l 271 417 q 381 444 328 433 q 415 449 405 449 q 425 447 421 449 q 437 429 435 441 l 437 427 q 430 410 437 417 q 430 410 430 410 q 427 409 429 410 q 422 407 426 408 q 412 404 418 406 q 395 400 406 402 q 352 390 378 397 q 277 372 326 384 l 264 368 q 266 281 265 316 q 266 187 266 247 q 264 74 266 111 q 262 52 264 60 q 258 39 260 44 q 234 15 249 22 q 218 13 227 13 z "},"G":{"ha":532,"x_min":47,"x_max":484,"o":"m 308 3 q 291 5 300 3 q 205 56 248 13 q 120 185 157 105 q 65 353 82 264 q 47 543 47 457 l 48 569 q 61 676 51 621 q 87 771 72 732 q 167 911 119 854 q 238 967 198 947 q 317 987 278 987 q 339 985 328 987 q 413 952 380 978 q 463 889 447 926 q 474 852 468 876 q 482 812 480 828 q 484 787 484 797 q 482 767 484 772 q 479 761 480 762 q 463 752 473 752 l 460 752 q 442 762 450 752 q 442 762 442 762 q 440 766 441 764 q 439 774 439 768 q 437 790 438 780 q 416 871 435 833 q 407 887 411 882 q 396 895 402 892 q 378 903 387 901 q 357 905 370 905 q 313 893 332 905 q 232 800 265 868 q 191 588 191 724 l 191 566 q 240 267 194 404 q 257 222 248 243 q 279 174 266 201 q 316 105 304 124 q 333 83 329 85 q 339 87 335 85 q 346 93 343 90 q 367 129 355 102 q 388 186 378 156 q 418 351 405 248 q 422 389 421 369 q 423 424 423 408 l 422 443 q 385 438 410 443 q 349 431 369 435 q 313 424 329 427 q 293 418 297 420 q 279 415 285 415 q 268 418 272 415 q 262 424 264 421 q 258 436 258 429 q 264 452 258 443 q 285 463 269 457 q 320 473 301 468 q 353 481 339 478 q 368 484 368 484 q 414 490 389 488 l 442 490 q 444 490 443 490 q 463 470 457 479 q 469 433 468 460 l 469 414 q 454 280 469 363 q 439 200 447 233 q 417 126 431 168 q 384 54 404 83 q 308 3 352 3 z "},"H":{"ha":532,"x_min":47,"x_max":485,"o":"m 168 -1 q 159 -1 163 -1 q 114 52 129 3 q 82 233 99 102 q 75 279 79 256 q 69 317 72 303 q 54 446 58 378 q 48 614 49 514 l 47 670 q 54 810 47 753 q 65 903 58 873 q 87 948 72 934 q 130 965 106 965 q 140 964 135 965 q 187 928 172 959 q 197 896 194 916 q 201 841 201 876 q 197 734 201 801 q 193 581 193 654 q 193 514 193 549 q 194 486 194 498 q 195 458 194 469 l 351 508 q 351 548 351 530 q 354 675 351 629 q 366 769 356 721 q 377 808 370 790 q 396 838 385 827 q 428 850 408 850 l 429 850 q 462 836 451 850 q 477 806 473 822 q 481 780 481 789 q 483 759 483 773 q 484 718 484 745 l 483 517 q 484 251 483 378 l 485 109 q 481 56 484 73 q 469 29 478 39 q 435 12 455 13 l 432 12 q 397 27 412 12 q 374 75 382 41 q 361 184 366 110 q 355 318 358 236 q 352 448 352 399 l 352 460 l 326 452 q 281 437 307 446 q 235 422 256 429 l 196 409 q 199 314 197 351 q 206 217 201 276 q 213 135 212 162 q 215 88 215 109 l 215 71 q 213 36 215 47 q 203 15 211 24 q 168 -1 188 -1 z "},"I":{"ha":340,"x_min":43,"x_max":299,"o":"m 245 96 l 260 96 q 290 79 290 96 l 290 75 q 279 56 290 63 q 276 55 278 55 q 271 54 275 54 q 266 53 267 53 q 251 52 264 53 q 218 51 238 52 q 169 50 198 50 l 151 50 q 120 50 132 50 q 103 50 109 50 q 95 52 98 51 q 92 53 93 52 q 82 68 83 60 q 90 85 82 78 q 97 90 93 88 q 111 93 101 92 l 119 93 q 113 195 115 102 q 106 397 110 289 q 101 592 103 505 q 100 726 100 680 q 109 849 100 789 l 87 851 q 67 851 74 851 q 58 852 60 852 q 54 854 56 853 l 54 854 q 43 870 44 861 q 52 886 43 880 q 60 891 55 889 q 77 894 65 893 q 113 895 88 895 l 204 897 q 241 897 221 897 q 264 898 254 897 q 276 897 273 898 q 299 879 296 893 l 299 876 q 286 857 299 865 q 283 856 285 857 q 276 855 281 856 q 236 850 272 854 q 243 768 242 799 q 244 680 243 737 q 243 454 243 543 l 243 401 q 243 316 243 352 q 246 242 244 281 q 248 175 248 203 q 248 124 248 147 q 248 103 248 109 q 245 96 247 100 z "},"J":{"ha":491,"x_min":47,"x_max":444,"o":"m 199 24 q 183 25 191 24 q 100 69 131 34 q 49 212 56 119 l 47 235 q 69 358 47 292 q 85 399 76 378 q 99 433 94 421 q 106 445 100 436 q 118 463 111 454 q 130 475 124 471 q 140 477 135 477 q 159 467 151 477 q 163 456 163 461 q 153 431 163 446 q 121 364 133 396 q 100 288 109 332 q 97 269 97 277 q 96 242 96 260 l 96 233 q 114 133 96 162 q 174 81 139 85 l 180 81 q 242 111 211 81 q 294 195 273 142 q 314 264 309 230 q 320 347 320 299 q 312 465 320 404 q 279 636 303 525 q 254 764 260 721 q 246 843 247 807 l 246 856 q 252 910 246 890 q 271 945 258 930 q 317 966 290 966 q 365 947 344 966 q 411 851 394 922 q 439 631 427 781 q 444 501 444 568 q 433 316 444 396 q 345 106 414 192 q 304 65 328 85 q 260 37 280 46 q 199 24 229 24 z "},"K":{"ha":541,"x_min":47,"x_max":541,"o":"m 180 -1 q 161 3 170 -1 q 135 30 145 9 q 111 92 124 51 q 74 214 81 184 q 47 486 47 318 q 69 761 47 622 q 127 943 91 900 q 166 962 145 962 q 203 945 186 962 q 219 919 214 935 q 224 875 224 903 q 212 736 224 829 q 200 624 204 668 q 195 528 197 580 q 193 431 193 483 q 195 333 193 380 q 411 836 275 610 q 424 858 412 838 q 454 905 437 878 q 487 952 472 931 q 508 976 502 973 q 516 977 512 977 q 534 969 526 977 q 541 954 541 962 q 538 943 541 949 q 530 930 536 941 q 515 909 523 920 q 505 893 508 898 q 504 892 504 892 q 503 890 503 890 q 461 827 475 850 q 430 774 448 805 q 384 688 410 739 q 342 600 358 636 q 222 254 275 450 q 211 211 216 231 q 205 184 206 192 q 214 182 208 183 q 224 179 219 180 q 343 165 267 165 l 440 168 q 446 160 443 163 q 450 153 448 156 q 451 143 451 149 q 441 124 451 133 q 435 121 438 122 q 425 119 432 119 q 406 118 418 118 q 370 117 393 117 l 351 117 q 273 121 302 117 q 214 132 243 124 l 213 133 q 220 91 217 113 q 224 60 224 68 l 224 52 q 216 17 224 31 q 180 -1 201 -1 z "},"L":{"ha":433,"x_min":47,"x_max":433,"o":"m 194 -1 q 168 3 179 -1 q 156 9 163 5 q 144 18 150 14 q 113 56 125 33 q 92 119 101 79 q 66 267 76 179 q 50 501 57 355 q 48 560 49 522 q 47 639 47 598 q 48 714 47 680 q 50 764 49 749 q 63 867 52 804 q 99 962 74 930 q 140 982 117 982 l 142 982 q 178 966 161 982 q 202 891 199 947 l 203 859 q 200 756 203 829 q 194 410 194 610 l 195 300 q 195 184 195 229 q 196 116 195 140 q 198 80 197 92 q 201 64 199 69 l 203 60 q 208 59 204 60 q 215 59 211 59 q 220 59 218 59 q 271 65 245 59 q 351 90 298 72 q 353 90 352 90 q 373 97 361 93 q 395 103 385 100 q 408 106 405 106 q 426 99 420 106 q 433 83 433 93 q 427 68 433 75 q 412 59 421 60 q 353 39 404 57 q 194 -1 239 -1 z "},"M":{"ha":827,"x_min":50,"x_max":779,"o":"m 549 940 q 551 944 549 940 q 558 952 553 947 q 571 961 563 957 q 590 964 578 964 q 622 956 604 964 q 649 932 635 949 q 674 900 663 916 q 749 688 730 812 q 777 372 768 563 q 779 270 779 331 q 777 168 779 209 q 771 100 774 130 q 766 58 768 70 q 724 1 755 16 q 712 -3 718 -1 q 697 -4 707 -4 q 682 -3 688 -4 q 669 2 676 -2 q 613 107 624 24 q 608 166 610 134 q 604 264 606 198 q 600 379 604 264 q 591 775 597 494 q 584 842 588 814 q 564 735 584 842 q 514 489 543 628 q 458 242 486 351 q 414 121 430 134 q 403 117 408 118 q 391 115 399 115 l 384 115 q 360 121 370 116 q 340 136 351 125 q 299 217 315 158 q 288 263 294 235 q 271 348 282 292 q 228 562 258 417 l 203 781 q 201 789 202 785 q 193 821 197 807 q 183 774 189 806 q 172 682 178 743 q 165 624 169 650 q 155 547 159 592 l 90 17 q 72 9 81 9 q 59 13 65 9 q 50 33 50 18 q 54 64 50 44 q 54 70 54 67 q 64 193 59 146 q 75 296 68 241 q 79 329 77 311 q 89 410 83 368 q 96 477 94 452 q 103 529 100 503 q 108 572 106 556 q 124 698 114 629 q 137 792 130 741 q 144 825 140 806 q 146 838 145 831 q 158 887 153 870 q 172 912 163 903 q 210 929 186 928 l 210 929 q 283 878 246 929 q 326 791 305 848 q 364 681 347 734 q 377 643 372 660 q 417 471 404 566 q 435 544 420 482 q 471 681 451 605 q 505 816 490 758 q 520 874 520 874 q 528 896 523 882 q 539 922 533 909 q 549 940 545 935 z "},"N":{"ha":616,"x_min":56,"x_max":591,"o":"m 440 264 q 438 318 439 289 q 437 355 437 334 q 450 642 437 442 q 473 890 463 842 q 485 929 477 911 q 504 959 492 947 q 535 970 515 970 l 536 970 q 569 957 558 970 q 584 926 580 943 q 589 901 588 910 q 590 880 590 894 q 591 839 591 866 l 574 503 q 567 285 567 395 l 567 251 l 564 174 q 561 121 564 138 q 548 94 557 104 q 514 77 534 78 l 511 77 q 476 92 492 77 q 442 153 461 106 q 414 223 422 199 q 394 275 405 246 q 371 339 384 304 q 343 416 358 374 q 310 507 328 458 q 272 613 292 556 q 228 734 252 669 l 208 780 q 205 734 207 759 q 201 581 201 654 q 202 514 201 549 q 203 486 203 498 q 203 458 203 469 l 205 409 q 208 314 206 351 q 215 217 210 276 q 222 135 220 162 q 224 88 224 109 l 224 71 q 222 36 224 47 q 212 15 220 24 q 176 -1 197 -1 q 168 -1 172 -1 q 123 52 138 3 q 91 233 108 102 q 84 279 87 256 q 78 317 81 303 q 62 446 67 378 q 57 614 58 514 l 56 670 q 62 810 56 753 q 74 903 67 873 q 96 948 81 934 q 138 965 115 965 q 149 964 144 965 q 196 928 181 959 q 203 911 200 921 q 210 895 206 904 q 224 863 213 890 q 262 766 236 835 q 334 569 288 697 q 440 264 376 450 z "},"O":{"ha":624,"x_min":52,"x_max":581,"o":"m 296 -7 q 265 -3 281 -7 q 143 87 199 16 q 52 374 52 208 q 54 426 52 399 q 115 693 66 559 q 231 910 164 827 q 269 949 248 930 q 302 977 290 969 q 319 982 311 981 q 335 983 328 983 q 372 977 355 982 q 447 930 408 962 q 509 865 485 899 q 534 816 520 846 q 555 762 547 786 q 581 553 581 668 l 581 530 q 516 215 578 358 q 429 68 479 125 q 296 -7 363 -7 m 319 85 q 336 89 327 85 q 383 117 358 96 q 415 151 397 130 q 442 189 433 173 q 513 411 492 279 q 517 500 517 445 q 513 605 517 559 q 494 713 505 672 q 462 789 483 755 q 422 842 440 826 q 397 859 405 859 q 375 852 387 859 q 357 836 363 846 q 291 680 325 772 q 235 477 257 587 q 221 393 224 426 q 218 313 218 359 q 218 275 218 288 q 219 252 218 261 q 222 235 220 243 q 245 156 231 190 q 274 107 256 130 q 319 85 292 85 z "},"P":{"ha":676,"x_min":47,"x_max":629,"o":"m 210 12 q 192 17 201 12 q 142 79 168 32 q 100 176 117 125 q 66 316 80 240 q 47 529 47 419 q 53 646 47 589 q 82 809 62 738 q 127 909 102 880 q 172 930 147 930 l 173 930 q 214 911 197 929 q 231 854 231 897 q 223 760 231 821 q 208 616 212 671 q 203 494 204 562 l 202 456 q 206 292 202 381 q 210 350 208 323 q 216 426 214 404 q 253 656 231 568 q 389 944 301 860 q 419 970 405 961 q 450 983 433 979 q 467 985 458 985 q 480 985 475 985 q 483 985 481 985 q 495 984 488 985 q 509 980 503 983 q 557 950 533 971 q 596 902 581 928 q 627 791 621 859 q 629 750 629 775 q 627 692 629 722 q 624 645 626 663 q 587 493 612 557 q 498 357 555 411 q 406 300 458 318 q 393 296 398 298 q 381 294 387 295 q 363 294 374 294 q 363 294 363 294 q 342 294 350 294 q 327 298 334 295 q 293 312 315 302 q 257 332 272 323 l 244 90 q 241 45 243 58 q 237 29 239 33 q 218 14 231 18 q 210 12 214 12 m 330 376 l 342 378 q 440 473 399 393 q 472 572 461 513 q 493 757 483 631 q 494 789 494 768 q 495 830 495 810 l 495 878 q 484 903 489 895 q 471 920 479 912 l 463 920 q 454 919 456 920 q 449 918 451 919 q 445 916 447 918 q 353 788 398 890 q 334 739 345 770 q 314 681 322 707 q 263 405 279 571 q 284 393 271 399 q 311 381 298 386 q 330 376 324 376 z "},"Q":{"ha":624,"x_min":52,"x_max":581,"o":"m 422 160 q 442 189 435 176 q 513 411 492 279 q 517 500 517 445 q 513 605 517 559 q 494 713 505 672 q 462 789 483 755 q 422 842 440 826 q 397 859 405 859 q 361 828 380 859 q 313 716 342 798 q 235 477 283 633 q 219 404 222 434 q 217 361 217 383 q 218 340 217 351 l 218 313 q 218 275 218 288 q 219 252 218 261 q 222 235 220 243 q 245 156 231 190 q 274 107 256 130 q 319 85 292 85 q 336 89 327 85 q 383 117 358 96 q 389 123 386 120 q 389 124 389 123 q 363 150 374 139 q 347 167 353 160 q 337 178 340 174 q 331 185 333 182 q 329 189 330 187 q 328 191 329 190 l 328 193 q 334 210 328 201 q 352 216 341 216 q 361 215 357 216 q 373 207 365 213 q 395 186 380 200 q 415 168 401 180 q 422 160 418 164 m 436 76 q 429 68 433 72 q 296 -7 363 -7 q 265 -3 281 -7 q 143 87 199 16 q 52 374 52 208 q 54 426 52 399 q 115 693 66 559 q 231 910 164 827 q 269 949 248 930 q 302 977 290 969 q 319 982 311 981 q 335 983 328 983 q 372 977 355 982 q 447 930 408 962 q 509 865 485 899 q 534 816 520 846 q 555 762 547 786 q 581 553 581 668 l 581 530 q 516 215 578 358 q 465 116 493 159 q 467 115 466 115 q 475 104 475 105 q 544 35 515 64 q 576 1 572 5 q 580 -13 580 -6 q 575 -27 580 -20 l 573 -30 q 557 -37 566 -37 q 551 -36 553 -37 q 548 -35 549 -35 q 544 -32 547 -34 q 536 -24 541 -29 q 522 -12 530 -20 q 501 10 513 -3 q 470 41 488 23 l 436 76 z "},"R":{"ha":715,"x_min":47,"x_max":702,"o":"m 227 0 q 208 5 217 0 q 111 146 165 30 q 49 397 57 262 q 47 454 47 418 q 48 514 47 484 q 51 562 49 545 q 93 809 60 682 q 115 887 105 860 q 138 927 125 913 q 184 949 159 949 q 224 934 205 949 q 243 902 239 920 q 248 859 248 884 q 245 815 248 840 q 235 743 242 790 q 203 511 210 585 q 196 347 196 437 q 197 274 196 301 q 203 214 199 248 q 232 77 212 134 q 233 79 232 78 q 239 107 235 89 q 256 195 250 154 q 269 302 262 235 q 276 386 273 346 q 284 500 279 426 q 365 850 297 722 q 391 896 378 877 q 422 934 404 915 q 511 991 470 984 q 534 994 522 994 l 539 994 q 677 852 640 987 q 683 818 682 835 q 685 780 685 802 l 685 764 q 681 718 684 737 q 673 676 679 698 q 598 529 652 597 q 482 434 545 461 q 438 418 466 427 q 393 405 411 410 q 338 397 360 397 q 352 368 343 385 q 368 340 360 352 q 514 182 429 247 q 633 122 581 132 q 657 120 646 120 q 669 121 665 120 q 679 123 674 123 q 698 114 690 123 q 702 100 702 108 q 699 88 702 94 q 680 76 691 78 q 652 73 668 73 q 617 76 633 73 q 580 88 602 79 q 437 182 509 116 q 319 325 372 245 q 308 218 314 262 q 295 134 302 174 q 269 33 282 63 q 231 1 255 2 l 227 0 m 330 458 q 332 459 331 458 q 346 461 339 460 q 384 474 363 465 q 420 492 404 482 q 447 514 430 498 q 476 548 463 530 q 553 734 534 631 q 557 787 557 757 q 549 872 557 833 q 536 905 544 891 q 522 922 528 918 q 519 923 519 923 q 517 924 518 924 q 515 924 517 924 l 509 924 q 500 922 504 923 q 491 919 496 922 q 423 848 456 901 q 368 722 389 795 q 344 614 353 674 q 330 461 335 554 l 330 458 z "},"S":{"ha":557,"x_min":47,"x_max":517,"o":"m 258 -4 l 252 -4 q 237 -3 243 -4 q 146 64 190 4 q 107 157 119 102 q 103 186 103 175 q 112 207 103 201 q 125 211 119 211 q 142 204 134 211 q 142 203 142 204 q 144 200 143 203 q 147 191 145 197 q 151 174 149 185 q 189 87 161 121 q 212 61 202 70 q 233 47 222 52 q 238 45 236 46 q 243 44 240 45 q 250 44 245 44 q 258 44 256 44 q 262 45 260 45 q 268 48 264 46 q 289 64 277 53 q 323 136 319 96 l 323 142 q 302 213 323 174 q 278 253 294 230 q 233 316 263 275 q 74 582 108 481 q 47 724 47 657 q 75 857 47 792 q 138 951 98 913 q 283 1022 205 1015 l 291 1022 q 365 1004 326 1022 q 435 957 404 987 q 469 914 455 937 q 494 855 482 891 q 511 798 507 821 q 517 743 516 775 l 517 726 q 503 606 517 661 q 462 517 488 551 q 451 504 458 512 q 433 489 443 496 q 415 481 424 481 q 399 488 407 481 q 392 505 392 496 q 396 517 392 512 q 409 530 401 523 q 455 616 441 559 q 469 732 469 674 q 464 789 469 764 q 418 893 452 850 q 384 926 399 918 q 344 935 369 935 l 343 935 q 258 899 290 935 q 205 794 219 860 q 201 739 201 770 q 203 701 201 718 q 241 574 211 648 q 265 519 252 547 q 302 445 278 491 q 345 357 332 389 q 368 290 358 326 q 381 239 377 260 q 385 194 385 218 l 385 182 q 378 119 385 142 q 328 35 362 70 q 258 -4 294 0 z "},"T":{"ha":621,"x_min":47,"x_max":587,"o":"m 317 20 q 298 25 307 20 q 295 26 296 26 q 295 27 295 26 q 294 27 294 27 q 294 28 294 28 q 292 31 293 29 q 233 230 249 112 q 214 432 218 347 q 207 536 209 492 q 205 637 205 579 q 205 664 205 650 l 204 755 q 207 860 204 833 q 216 901 209 884 q 175 897 199 899 q 135 893 152 895 q 105 889 119 891 q 74 882 91 886 l 71 882 q 57 887 64 882 q 47 905 47 896 q 52 917 47 910 q 72 930 56 924 q 132 941 90 935 q 207 950 175 947 q 265 951 230 951 q 414 946 336 951 q 438 944 415 946 q 492 937 461 941 q 548 927 523 933 q 581 916 574 922 q 587 900 587 909 l 586 895 q 573 878 583 884 q 564 876 569 876 q 542 880 555 876 q 538 880 540 880 q 468 891 507 886 q 391 899 428 897 q 328 902 355 902 q 353 795 344 873 q 357 750 355 772 q 359 687 358 728 q 360 563 359 645 q 361 414 361 460 q 365 334 362 368 q 364 323 365 328 q 363 305 363 317 q 365 255 363 283 q 366 238 366 247 q 368 145 368 186 q 364 77 368 105 q 349 35 360 50 q 317 20 335 20 z "},"U":{"ha":641,"x_min":47,"x_max":593,"o":"m 512 -1 q 490 4 501 -1 q 444 85 453 26 q 433 159 438 114 q 424 289 429 204 l 420 351 q 347 120 382 179 q 318 82 332 95 q 280 60 303 68 q 254 55 267 55 q 134 150 195 55 q 47 540 52 283 l 47 567 q 68 807 47 682 q 92 905 79 874 q 126 946 105 936 q 139 951 133 950 q 154 953 145 953 q 169 951 163 953 q 182 946 174 950 q 212 908 203 932 q 222 849 221 883 l 224 818 q 219 722 224 787 q 213 616 214 652 q 212 506 212 580 q 214 386 212 428 q 221 292 216 345 q 263 119 235 142 q 268 116 266 117 q 271 115 270 115 l 275 115 q 338 227 307 123 q 356 290 347 258 q 375 373 364 322 q 404 515 386 425 q 410 550 409 537 q 412 580 412 562 q 443 833 420 741 q 460 890 450 864 q 487 933 471 917 q 529 950 504 950 q 591 892 576 950 q 593 859 593 880 q 582 708 593 817 q 569 565 574 627 q 559 415 564 502 q 557 338 557 384 q 559 208 557 283 q 564 74 564 111 q 563 50 564 58 q 561 36 562 41 q 557 26 559 31 q 528 1 547 8 q 512 -1 520 -1 z "},"V":{"ha":615,"x_min":47,"x_max":602,"o":"m 311 4 q 298 7 305 4 q 266 32 283 11 q 221 102 248 54 q 151 253 180 176 q 98 441 123 331 q 49 794 56 616 l 47 837 q 54 906 47 881 q 74 945 60 930 q 118 966 91 966 l 123 966 q 171 943 151 966 q 210 859 197 918 q 255 530 223 804 q 296 231 280 315 q 317 136 306 182 q 353 298 330 189 q 357 314 355 307 q 376 401 369 370 q 388 457 382 433 q 404 519 394 482 q 432 629 422 592 q 453 700 442 665 q 494 815 474 766 q 527 894 515 865 q 547 939 540 924 q 559 960 555 954 q 566 967 563 966 q 578 971 572 971 q 589 968 584 971 q 602 947 602 961 q 601 945 602 947 q 600 939 601 943 q 595 928 598 935 q 587 911 593 922 q 548 812 574 882 q 492 656 522 743 q 438 452 466 580 l 418 362 l 387 220 q 370 131 377 178 q 359 64 363 85 q 352 36 355 43 q 311 4 339 4 z "},"W":{"ha":827,"x_min":47,"x_max":779,"o":"m 256 -4 q 234 1 246 -4 q 207 25 221 9 q 182 58 193 41 q 93 271 124 145 q 50 587 61 397 q 47 690 47 629 q 50 792 47 751 q 55 860 52 830 q 61 902 58 890 q 102 958 72 944 q 115 962 109 961 q 130 964 121 964 q 145 963 139 964 q 158 958 151 962 q 214 852 203 936 q 219 794 217 826 q 223 695 221 762 q 248 342 229 513 q 255 267 251 310 q 264 182 260 223 q 272 116 268 144 q 311 288 288 178 q 348 453 326 361 q 387 608 370 544 l 395 637 q 395 643 395 640 q 401 736 395 703 q 437 784 408 770 q 448 789 444 787 q 460 790 453 790 l 467 790 q 491 785 481 789 q 511 770 500 780 q 552 688 536 747 q 563 638 557 668 q 577 553 569 609 q 599 398 585 497 q 611 314 606 345 q 618 264 615 283 q 626 227 622 245 q 628 218 627 222 q 635 186 631 200 q 654 278 645 221 q 664 342 661 313 q 671 413 668 372 q 697 625 682 534 q 702 655 699 635 q 707 696 705 675 q 710 725 707 699 q 719 783 713 750 q 729 842 724 816 q 739 875 734 869 q 758 882 747 882 q 770 879 764 882 q 779 859 779 873 q 774 823 779 846 q 774 822 774 823 q 762 745 768 785 q 748 631 756 704 q 738 550 743 592 q 730 482 733 508 q 724 430 727 457 q 719 387 720 404 q 706 293 713 339 q 692 215 699 247 q 685 182 689 201 q 682 170 684 176 q 671 120 676 137 q 657 95 665 104 q 619 78 642 79 l 618 78 q 545 129 583 78 q 493 216 519 165 q 450 317 467 268 q 410 489 424 394 q 390 393 402 458 q 315 74 347 172 q 307 52 312 66 q 296 26 302 39 q 286 8 290 13 q 256 -4 274 -4 z "},"X":{"ha":515,"x_min":47,"x_max":468,"o":"m 96 6 l 93 6 q 79 12 86 6 q 65 36 69 18 q 62 91 62 53 l 62 113 q 67 191 62 157 q 81 264 71 224 q 105 344 90 298 q 138 429 121 389 l 142 438 q 98 558 116 505 q 66 676 80 611 q 52 755 56 722 q 47 827 47 787 q 49 873 47 857 q 55 905 50 890 q 112 964 73 964 l 119 963 q 149 947 136 962 q 167 917 159 937 q 182 859 174 897 q 207 734 197 779 q 228 652 217 689 l 240 611 l 243 616 q 254 631 249 624 q 265 648 263 644 q 273 658 269 652 q 280 669 277 665 l 322 725 l 381 808 q 419 859 414 852 q 430 869 425 866 q 439 871 435 871 l 441 871 q 458 864 452 871 q 465 850 465 858 q 459 833 465 842 q 444 811 453 823 l 338 665 q 290 598 313 633 q 260 550 267 563 q 261 547 260 549 q 268 527 263 540 q 335 353 300 435 q 374 272 350 319 q 411 200 397 224 q 443 142 427 174 q 464 97 459 111 q 468 74 468 85 q 460 47 468 58 q 425 30 448 30 q 392 42 406 30 q 355 81 378 54 q 333 109 342 97 q 313 137 324 121 q 283 181 302 153 q 170 377 212 287 q 115 181 128 279 q 109 83 109 127 q 111 42 109 52 q 114 36 113 40 q 115 28 115 33 q 111 15 115 22 q 96 6 104 7 z "},"Y":{"ha":646,"x_min":47,"x_max":599,"o":"m 258 9 q 238 12 248 9 q 164 67 191 24 q 150 96 157 77 q 138 125 142 114 q 135 144 136 132 q 134 165 134 156 l 134 176 q 151 195 139 190 q 159 196 155 196 q 173 191 167 196 q 180 180 179 186 q 182 163 182 174 q 206 98 182 125 q 224 83 215 90 q 239 74 233 76 q 245 73 242 73 q 292 99 262 73 q 408 325 368 170 q 431 444 423 385 q 443 596 439 503 q 445 666 444 622 q 446 746 446 710 l 446 774 q 361 610 416 729 q 248 401 300 474 q 208 358 224 367 q 195 353 201 354 q 181 351 190 352 q 180 351 180 351 q 165 353 171 351 q 152 357 159 354 q 70 482 104 387 q 53 554 58 518 q 47 645 47 589 l 47 670 q 69 860 47 783 q 97 933 80 907 q 146 960 114 960 l 147 960 q 191 940 173 960 q 208 908 202 928 q 213 848 213 889 q 203 675 213 792 q 203 665 203 670 q 198 610 201 639 q 193 562 195 582 q 187 456 187 493 q 190 415 187 427 q 201 427 195 419 q 205 431 203 429 q 322 641 252 484 q 418 817 384 775 q 427 831 420 819 q 435 842 431 836 q 455 867 446 858 q 477 879 464 876 q 492 881 484 881 q 542 863 517 881 q 596 736 581 829 q 598 711 597 726 q 599 663 599 696 q 597 598 599 623 q 591 537 596 573 q 533 287 574 401 q 421 101 496 183 q 296 16 363 39 q 258 9 278 9 z "},"Z":{"ha":519,"x_min":47,"x_max":506,"o":"m 214 16 q 191 18 199 16 q 149 55 160 28 q 138 116 138 82 q 142 171 138 143 q 161 274 148 205 q 189 410 174 342 q 316 850 229 593 q 323 871 319 861 q 328 886 326 881 q 283 896 314 893 q 232 897 263 897 q 174 896 201 897 q 149 894 161 895 q 104 891 124 892 q 80 888 85 889 l 75 888 q 50 905 58 888 q 47 914 47 909 q 57 932 47 924 q 110 942 66 938 q 208 949 154 947 q 297 952 262 952 l 315 952 q 401 939 377 951 q 446 878 434 922 q 450 833 450 860 q 448 787 450 809 q 288 231 420 617 q 259 146 271 180 q 234 73 239 89 l 246 71 q 267 69 254 69 q 394 82 306 69 q 456 90 437 87 q 481 92 475 92 q 486 92 485 92 q 489 91 488 92 q 506 72 503 86 l 506 68 q 497 50 506 58 q 473 43 490 44 l 410 35 q 340 26 366 29 q 298 22 315 23 l 256 18 q 214 16 231 16 z "},"[":{"ha":412,"x_min":47,"x_max":364,"o":"m 127 0 q 115 3 121 0 q 83 51 93 13 q 71 158 76 79 q 59 431 66 237 l 50 667 q 47 772 47 738 q 48 809 47 798 q 50 824 49 820 q 94 875 60 867 q 115 877 100 876 q 139 877 130 877 q 180 878 153 877 q 233 879 208 878 q 309 881 283 881 q 334 880 325 881 q 347 878 342 880 q 353 876 351 877 q 361 868 359 872 q 364 860 363 863 l 364 857 q 359 843 364 850 l 353 833 l 311 833 q 252 831 287 833 q 183 828 216 830 q 176 827 179 828 q 174 805 174 820 q 176 764 174 788 q 178 729 177 750 q 179 668 178 709 q 181 556 180 628 q 182 396 182 481 q 182 259 182 311 l 181 178 q 182 93 181 119 q 184 59 183 66 l 330 59 q 344 50 338 58 q 349 35 349 44 l 348 30 q 339 17 346 21 q 315 12 332 13 q 262 9 297 10 q 201 7 224 8 q 164 6 177 7 q 146 4 152 5 q 140 3 141 3 q 127 0 134 0 z "},"\\":{"ha":475,"x_min":47,"x_max":427,"o":"m 379 0 q 363 3 371 0 q 330 33 345 9 q 306 75 321 46 q 277 134 291 104 l 178 339 q 147 405 167 363 q 109 488 127 448 q 82 549 90 529 q 64 597 73 570 q 51 643 55 625 q 47 673 47 659 q 55 709 47 694 q 71 728 61 721 q 83 734 77 732 q 96 735 88 735 q 110 734 104 735 q 123 728 115 732 q 199 627 159 710 q 330 317 235 553 q 354 256 342 284 q 389 169 382 184 q 413 106 401 138 q 427 58 424 74 l 427 51 q 412 16 427 31 q 379 0 397 0 z "},"]":{"ha":411,"x_min":47,"x_max":364,"o":"m 284 0 q 271 3 277 0 q 265 3 270 3 q 247 5 260 4 q 211 7 235 6 q 149 9 187 8 q 147 9 149 9 q 97 11 114 10 q 73 16 79 12 q 64 30 66 20 l 63 35 q 68 50 63 43 q 81 58 73 58 q 97 59 83 58 q 129 59 111 59 q 161 59 147 59 l 227 59 q 230 95 229 66 q 231 189 231 123 l 230 259 q 230 395 230 310 q 231 556 231 481 q 232 669 231 629 q 234 730 233 709 q 235 764 235 751 q 238 806 238 789 q 236 827 238 821 l 229 828 q 160 831 196 830 q 101 833 125 833 l 59 833 q 56 838 58 836 q 50 847 52 844 q 47 857 47 851 l 47 860 q 58 876 48 867 q 65 878 61 877 q 78 880 69 880 q 104 881 87 881 q 178 879 129 881 q 232 878 205 878 q 273 877 258 877 q 297 876 282 877 q 317 874 311 876 q 361 824 352 867 q 363 809 362 820 q 364 772 364 798 q 361 667 364 737 l 353 431 q 341 157 346 237 q 328 50 336 78 q 297 3 319 14 q 284 0 290 0 z "},"^":{"ha":495,"x_min":47,"x_max":448,"o":"m 426 646 q 413 648 420 646 q 397 662 408 651 q 375 685 386 673 q 359 704 364 697 q 279 836 322 752 l 276 842 q 191 699 239 741 q 160 676 178 688 q 131 660 143 665 q 99 654 115 654 q 82 656 90 654 q 57 673 67 661 q 47 700 47 686 q 52 717 47 707 q 62 733 56 726 q 72 741 65 736 q 84 749 78 746 q 87 752 86 751 q 194 859 156 795 q 207 882 201 871 q 220 913 212 893 q 230 936 223 922 q 245 957 237 950 q 262 963 253 963 q 279 958 271 963 q 289 948 284 955 q 300 928 294 941 l 321 888 q 329 873 325 881 q 335 860 333 865 q 362 809 340 846 q 411 732 384 772 q 428 707 421 717 q 439 690 435 696 q 445 680 443 684 q 447 675 446 676 q 448 672 448 673 q 448 672 448 672 l 448 668 q 439 650 448 657 q 426 646 433 646 z "},"_":{"ha":688,"x_min":47,"x_max":640,"o":"m 126 -62 l 115 -62 q 54 -29 67 -58 q 47 -4 47 -17 q 64 36 47 18 q 90 50 74 45 q 141 56 106 54 q 241 58 175 58 l 311 58 q 475 56 415 57 q 564 52 534 54 q 605 45 593 50 q 625 31 617 40 q 634 20 631 25 q 639 7 637 14 l 640 -5 q 614 -47 640 -32 q 603 -52 610 -50 q 580 -54 596 -53 q 533 -55 564 -55 q 449 -56 502 -56 q 352 -57 406 -56 q 262 -59 298 -58 q 167 -62 197 -61 q 126 -62 137 -62 z "},"`":{"ha":296,"x_min":47,"x_max":248,"o":"m 211 712 q 192 715 202 712 q 172 725 180 720 q 150 742 163 730 q 60 859 85 801 q 47 902 47 882 l 47 909 q 51 926 48 919 q 60 940 54 933 q 87 950 71 950 l 92 950 q 110 946 102 949 q 126 936 117 943 q 152 911 135 929 q 180 877 169 892 q 210 831 191 863 q 242 774 229 800 q 247 763 246 767 q 248 750 248 758 q 248 738 248 742 q 243 730 247 734 q 211 712 232 712 z "},"a":{"ha":562,"x_min":47,"x_max":515,"o":"m 125 -40 q 120 -39 123 -40 q 112 -34 115 -37 q 109 -27 110 -31 q 104 0 106 -22 q 102 77 102 22 l 102 165 l 74 165 q 61 166 66 165 q 52 173 56 168 q 47 186 47 179 q 54 199 47 193 q 65 207 58 205 q 87 210 73 209 l 104 211 q 104 220 104 216 q 138 608 115 435 q 216 911 167 806 q 273 968 237 954 q 286 971 279 970 q 299 972 293 972 q 303 972 301 972 q 317 972 309 972 q 335 968 326 971 q 437 861 401 945 q 466 760 454 823 q 493 577 479 696 q 511 273 506 462 q 512 205 511 243 q 514 140 513 168 l 515 94 q 513 59 515 71 q 506 32 511 47 q 475 -6 496 4 q 456 -9 466 -9 q 434 -4 445 -9 q 405 33 414 5 q 397 56 399 45 q 392 82 394 67 q 390 123 391 97 l 387 162 q 298 166 360 165 q 189 168 235 168 l 151 168 q 150 125 151 153 q 150 81 150 105 l 150 -20 q 136 -37 150 -31 q 125 -40 131 -40 m 385 209 l 382 259 q 362 458 374 368 q 327 658 349 549 q 301 766 312 728 q 283 821 291 804 q 268 848 275 839 q 200 686 227 818 q 161 354 173 554 l 152 214 l 203 214 q 309 212 253 214 q 385 209 365 210 z "},"b":{"ha":488,"x_min":47,"x_max":441,"o":"m 192 -3 q 171 2 180 -3 q 134 82 141 19 l 122 156 q 102 316 114 205 l 82 492 q 50 806 58 693 q 47 864 47 835 q 50 913 47 897 q 83 962 58 949 q 103 967 93 967 q 123 962 113 967 l 124 962 q 149 971 137 968 q 178 973 160 973 q 309 928 252 973 q 434 698 408 850 q 441 614 441 656 q 435 534 441 572 q 422 481 431 511 q 407 431 414 451 q 296 259 363 321 q 342 244 321 254 q 367 225 356 237 q 382 203 378 214 q 386 182 386 193 q 351 113 386 147 q 322 90 342 104 q 282 63 302 75 q 252 52 261 52 q 240 54 245 52 q 239 43 239 47 q 237 35 238 39 q 210 0 231 10 q 192 -3 201 -3 m 240 94 q 246 97 243 96 q 248 98 247 98 q 294 125 258 102 q 340 180 338 156 l 340 182 q 333 195 340 189 q 301 211 322 204 q 262 217 279 217 l 252 216 q 242 215 245 216 q 237 212 239 214 l 238 152 l 240 94 m 233 267 q 258 288 243 275 q 281 309 273 300 q 340 395 314 346 q 357 434 348 411 q 372 471 367 456 q 382 511 377 487 q 391 553 388 535 q 393 584 392 565 q 394 621 394 603 q 393 652 394 639 q 321 852 381 777 q 296 879 311 865 q 269 900 281 892 q 194 927 236 922 l 180 928 l 166 926 q 164 926 165 926 q 157 925 161 925 q 173 867 167 907 q 187 770 180 828 q 201 654 195 711 q 216 479 207 589 q 231 302 225 368 q 233 275 231 286 q 233 267 233 271 z "},"c":{"ha":555,"x_min":47,"x_max":508,"o":"m 258 -5 q 235 -2 245 -5 q 175 33 208 6 q 121 90 142 59 q 95 138 107 111 q 74 192 82 166 q 47 412 47 290 q 48 456 47 435 q 79 701 54 600 q 176 916 115 853 q 249 970 214 958 q 273 973 260 973 q 387 908 331 973 q 461 765 433 849 q 466 752 461 765 q 475 722 470 740 q 479 688 479 705 q 474 665 479 675 q 456 656 469 656 q 441 659 449 656 q 402 782 429 723 q 340 878 375 841 q 330 887 333 884 q 322 891 326 890 q 309 892 317 892 q 305 892 307 892 q 301 891 303 892 q 298 891 299 891 l 298 890 q 270 828 289 881 q 236 705 252 776 q 203 494 216 610 q 191 289 191 377 l 192 244 q 201 159 194 192 q 224 96 209 125 q 264 55 239 67 q 288 50 275 50 q 309 53 298 50 q 425 189 370 77 q 459 279 450 240 q 468 307 463 298 q 484 318 473 317 l 487 318 q 504 309 498 318 q 508 295 508 302 q 507 285 508 291 q 507 283 507 284 q 479 198 500 248 q 437 113 459 149 q 315 5 382 25 q 258 -5 283 -5 z "},"d":{"ha":570,"x_min":47,"x_max":522,"o":"m 180 -10 q 162 -3 172 -10 q 116 52 143 12 q 77 140 88 92 q 48 576 58 256 q 47 654 47 611 q 48 739 47 698 q 50 801 49 781 q 78 894 56 866 q 117 932 100 922 q 118 932 118 932 q 129 938 124 936 q 142 940 134 940 q 161 935 152 940 q 168 929 164 933 q 175 920 172 925 q 176 920 176 920 q 177 920 177 920 q 241 939 201 932 q 273 941 257 941 q 363 922 321 941 q 480 817 447 881 q 494 782 487 803 q 506 744 502 761 q 522 605 522 679 q 508 463 522 535 q 381 187 480 326 q 200 -3 291 63 q 180 -10 191 -10 m 208 61 q 295 149 250 96 q 374 255 341 203 q 454 425 429 345 q 477 552 471 483 q 479 602 479 573 q 479 640 479 621 q 476 671 478 659 q 462 745 471 711 q 441 797 452 780 q 421 821 435 806 q 396 846 407 837 q 370 864 387 854 q 342 880 354 874 q 321 887 334 884 q 297 892 309 890 q 273 894 287 894 q 228 889 250 893 q 191 877 206 884 l 190 876 q 193 851 192 865 q 195 824 195 836 q 196 788 195 812 q 196 737 196 763 q 197 675 196 712 q 197 609 197 638 l 201 405 q 208 61 205 150 z "},"e":{"ha":595,"x_min":47,"x_max":547,"o":"m 300 1 q 277 4 290 1 q 225 33 252 12 q 180 81 199 54 q 145 166 157 116 q 125 312 134 217 l 120 361 l 109 359 q 83 351 92 353 q 68 349 75 349 q 58 353 62 349 q 47 370 49 359 q 56 388 47 380 q 72 395 60 391 q 95 404 83 400 l 116 412 q 115 455 116 425 q 111 544 112 494 l 111 577 q 138 823 111 723 q 250 958 175 927 q 283 962 264 962 q 316 959 300 962 q 382 929 345 953 q 499 739 486 857 l 500 729 q 498 719 500 723 q 492 711 496 715 q 476 703 486 703 l 472 704 q 456 716 460 708 q 453 735 453 725 q 420 828 448 785 q 402 849 413 838 q 383 867 391 861 q 348 885 368 878 q 311 892 328 892 q 304 892 307 892 q 300 891 302 892 q 299 891 299 891 q 298 890 298 890 q 287 857 290 884 q 281 794 283 829 q 280 682 280 773 l 280 604 l 281 464 q 298 468 289 465 q 405 490 365 485 q 423 492 416 492 q 440 487 433 492 q 446 478 445 483 q 448 471 448 473 l 448 469 q 436 449 448 454 q 413 444 425 445 q 366 435 395 441 q 307 421 338 429 l 283 415 l 286 191 q 286 178 286 184 q 287 128 287 145 q 288 104 288 111 q 290 93 289 97 q 296 76 293 83 q 303 64 298 69 q 309 59 307 60 q 314 58 311 58 q 315 58 315 58 q 369 80 334 58 q 447 149 404 102 q 495 206 481 186 q 511 227 506 222 q 525 233 517 233 q 547 216 543 233 l 547 211 q 543 197 547 207 q 522 167 538 187 q 476 113 507 147 q 389 37 440 72 q 300 1 339 1 z "},"f":{"ha":580,"x_min":47,"x_max":533,"o":"m 218 13 q 199 17 208 13 q 185 27 192 21 q 175 40 178 34 q 168 57 172 45 q 159 83 163 69 q 153 105 155 96 q 123 333 134 184 q 115 332 119 333 q 114 332 115 332 q 71 324 83 324 q 58 328 62 324 q 47 347 47 335 q 58 365 47 357 q 71 370 62 368 q 88 374 79 372 q 119 380 112 378 q 119 425 119 394 q 117 517 117 465 q 118 600 117 560 q 120 661 119 640 q 138 799 125 749 q 174 884 151 849 q 271 958 212 937 q 340 967 304 967 q 374 964 358 967 q 519 870 467 945 q 526 860 522 866 q 530 849 529 854 q 533 838 533 843 q 529 826 533 832 q 511 817 523 817 l 509 817 q 492 825 499 817 q 486 837 486 833 q 475 852 484 842 q 458 871 467 863 q 340 921 402 921 q 313 918 326 921 q 260 869 269 911 q 257 848 258 863 q 256 813 256 832 q 255 779 255 793 l 255 769 q 256 743 256 753 q 258 707 257 726 q 259 649 258 688 q 260 534 260 610 l 262 415 l 271 417 q 381 444 328 433 q 415 449 405 449 q 425 447 421 449 q 437 429 435 441 l 437 427 q 430 410 437 417 q 430 410 430 410 q 427 409 429 410 q 422 407 426 408 q 412 404 418 406 q 395 400 406 402 q 352 390 378 397 q 277 372 326 384 l 264 368 q 266 281 265 316 q 266 187 266 247 q 264 74 266 111 q 262 52 264 60 q 258 39 260 44 q 234 15 249 22 q 218 13 227 13 z "},"g":{"ha":532,"x_min":47,"x_max":484,"o":"m 308 3 q 291 5 300 3 q 205 56 248 13 q 119 185 157 105 q 65 353 81 264 q 47 543 47 457 l 48 569 q 61 676 51 621 q 87 771 72 732 q 167 911 119 854 q 238 967 198 947 q 317 987 278 987 q 339 985 328 987 q 413 952 380 978 q 463 889 447 926 q 474 852 468 876 q 482 812 479 828 q 484 787 484 797 q 482 767 484 772 q 479 761 480 762 q 463 752 472 752 l 460 752 q 442 762 449 752 q 441 762 442 762 q 440 766 441 764 q 438 774 439 768 q 437 790 437 780 q 416 871 435 833 q 407 887 411 882 q 396 895 402 892 q 378 903 387 901 q 357 905 370 905 q 313 893 331 905 q 232 800 265 868 q 190 588 190 724 l 191 566 q 240 267 194 404 q 257 222 248 243 q 279 174 266 201 q 316 105 304 124 q 333 83 329 85 q 339 87 335 85 q 346 93 343 90 q 367 129 355 102 q 388 186 378 156 q 418 351 405 248 q 422 389 421 369 q 423 424 423 408 l 422 443 q 385 438 410 443 q 348 431 368 435 q 312 424 328 427 q 293 418 296 420 q 279 415 285 415 q 268 418 272 415 q 262 424 263 421 q 258 436 258 429 q 264 452 258 443 q 285 463 269 457 q 320 473 301 468 q 353 481 338 478 q 368 484 367 484 q 414 490 389 488 l 442 490 q 443 490 443 490 q 463 470 457 479 q 469 433 468 460 l 469 414 q 454 280 469 363 q 439 200 447 233 q 417 126 431 168 q 384 54 404 83 q 308 3 351 3 z "},"h":{"ha":532,"x_min":47,"x_max":485,"o":"m 168 -1 q 159 -1 163 -1 q 114 52 129 3 q 82 233 99 102 q 75 279 79 256 q 69 317 72 303 q 54 446 58 378 q 48 614 49 514 l 47 670 q 54 810 47 753 q 65 903 58 873 q 87 948 72 934 q 130 965 106 965 q 140 964 135 965 q 187 928 172 959 q 197 896 194 916 q 200 841 200 876 q 197 734 200 801 q 192 581 192 654 q 193 514 192 549 q 194 486 193 498 q 195 458 194 469 l 351 508 q 351 548 351 530 q 354 675 351 629 q 366 769 356 721 q 377 808 370 790 q 396 838 384 827 q 428 850 408 850 l 429 850 q 461 836 450 850 q 477 806 473 822 q 481 780 481 789 q 483 759 482 773 q 484 718 484 745 l 483 517 q 484 251 483 378 l 485 109 q 481 56 484 73 q 469 29 478 39 q 435 12 455 13 l 432 12 q 397 27 412 12 q 374 75 382 41 q 361 184 366 110 q 355 318 357 236 q 352 448 352 399 l 352 460 l 326 452 q 281 437 307 446 q 235 422 255 429 l 196 409 q 199 314 197 351 q 206 217 201 276 q 213 135 212 162 q 215 88 215 109 l 215 71 q 212 36 214 47 q 203 15 210 24 q 168 -1 188 -1 z "},"i":{"ha":340,"x_min":43,"x_max":299,"o":"m 245 96 l 260 96 q 290 79 290 96 l 290 75 q 279 56 290 63 q 276 55 278 55 q 271 54 275 54 q 266 53 267 53 q 251 52 264 53 q 218 51 238 52 q 169 50 198 50 l 151 50 q 120 50 132 50 q 103 50 109 50 q 95 52 98 51 q 92 53 93 52 q 82 68 83 60 q 90 85 82 78 q 97 90 93 88 q 111 93 101 92 l 119 93 q 113 195 115 102 q 106 397 110 289 q 101 592 103 505 q 100 726 100 680 q 109 849 100 789 l 87 851 q 67 851 74 851 q 58 852 60 852 q 54 854 56 853 l 54 854 q 43 870 44 861 q 52 886 43 880 q 60 891 55 889 q 77 894 65 893 q 113 895 88 895 l 204 897 q 241 897 221 897 q 264 898 254 897 q 276 897 273 898 q 299 879 296 893 l 299 876 q 286 857 299 865 q 283 856 285 857 q 276 855 281 856 q 236 850 272 854 q 243 768 242 799 q 244 680 243 737 q 243 454 243 543 l 243 401 q 243 316 243 352 q 246 242 244 281 q 248 175 248 203 q 248 124 248 147 q 248 103 248 109 q 245 96 247 100 z "},"j":{"ha":491,"x_min":47,"x_max":443,"o":"m 199 24 q 183 25 191 24 q 100 69 131 34 q 49 212 55 119 l 47 235 q 69 358 47 292 q 84 399 76 378 q 99 433 93 421 q 105 445 100 436 q 117 463 111 454 q 130 475 124 471 q 140 477 134 477 q 159 467 151 477 q 163 456 163 461 q 153 431 163 446 q 121 364 132 396 q 100 288 109 332 q 97 269 97 277 q 96 242 96 260 l 96 233 q 114 133 96 162 q 174 81 139 85 l 180 81 q 241 111 211 81 q 294 195 272 142 q 314 264 308 230 q 320 347 320 299 q 311 465 320 404 q 279 636 302 525 q 253 764 260 721 q 246 843 246 807 l 245 856 q 251 910 245 890 q 271 945 257 930 q 317 966 289 966 q 365 947 344 966 q 410 851 393 922 q 439 631 427 781 q 443 501 443 568 q 433 316 443 396 q 345 106 413 192 q 303 65 328 85 q 260 37 279 46 q 199 24 229 24 z "},"k":{"ha":541,"x_min":47,"x_max":541,"o":"m 180 -1 q 161 3 170 -1 q 135 30 145 9 q 111 92 124 51 q 74 214 81 184 q 47 486 47 318 q 69 761 47 622 q 127 943 91 900 q 166 962 145 962 q 203 945 186 962 q 219 919 214 935 q 224 875 224 903 q 212 736 224 829 q 200 624 204 668 q 195 528 197 580 q 193 431 193 483 q 195 333 193 380 q 411 836 275 610 q 424 858 412 838 q 454 905 437 878 q 487 952 472 931 q 508 976 502 973 q 516 977 512 977 q 534 969 526 977 q 541 954 541 962 q 538 943 541 949 q 530 930 536 941 q 515 909 523 920 q 505 893 508 898 q 504 892 504 892 q 503 890 503 890 q 461 827 475 850 q 430 774 448 805 q 384 688 410 739 q 342 600 358 636 q 222 254 275 450 q 211 211 216 231 q 205 184 206 192 q 214 182 208 183 q 224 179 219 180 q 343 165 267 165 l 440 168 q 446 160 443 163 q 450 153 448 156 q 451 143 451 149 q 441 124 451 133 q 435 121 438 122 q 425 119 432 119 q 406 118 418 118 q 370 117 393 117 l 351 117 q 273 121 302 117 q 214 132 243 124 l 213 133 q 220 91 217 113 q 224 60 224 68 l 224 52 q 216 17 224 31 q 180 -1 201 -1 z "},"l":{"ha":433,"x_min":47,"x_max":433,"o":"m 194 -1 q 168 3 179 -1 q 156 9 163 5 q 144 18 150 14 q 113 56 125 33 q 92 119 101 79 q 66 267 76 179 q 50 501 57 355 q 48 560 49 522 q 47 639 47 598 q 48 714 47 680 q 50 764 49 749 q 63 867 52 804 q 99 962 74 930 q 140 982 117 982 l 142 982 q 178 966 161 982 q 202 891 199 947 l 203 859 q 200 756 203 829 q 194 410 194 610 l 195 300 q 195 184 195 229 q 196 116 195 140 q 198 80 197 92 q 201 64 199 69 l 203 60 q 208 59 204 60 q 215 59 211 59 q 220 59 218 59 q 271 65 245 59 q 351 90 298 72 q 353 90 352 90 q 373 97 361 93 q 395 103 385 100 q 408 106 405 106 q 426 99 420 106 q 433 83 433 93 q 427 68 433 75 q 412 59 421 60 q 353 39 404 57 q 194 -1 239 -1 z "},"m":{"ha":827,"x_min":50,"x_max":779,"o":"m 549 940 q 551 944 549 940 q 558 952 553 947 q 571 961 563 957 q 590 964 578 964 q 622 956 604 964 q 649 932 635 949 q 674 900 663 916 q 749 688 730 812 q 777 372 768 563 q 779 270 779 331 q 777 168 779 209 q 771 100 774 130 q 766 58 768 70 q 724 1 755 16 q 712 -3 718 -1 q 697 -4 707 -4 q 682 -3 688 -4 q 669 2 676 -2 q 613 107 624 24 q 608 166 610 134 q 604 264 606 198 q 600 379 604 264 q 591 775 597 494 q 584 842 588 814 q 564 735 584 842 q 514 489 543 628 q 458 242 486 351 q 414 121 430 134 q 403 117 408 118 q 391 115 399 115 l 384 115 q 360 121 370 116 q 340 136 351 125 q 299 217 315 158 q 288 263 294 235 q 271 348 282 292 q 228 562 258 417 l 203 781 q 201 789 202 785 q 193 821 197 807 q 183 774 189 806 q 172 682 178 743 q 165 624 169 650 q 155 547 159 592 l 90 17 q 72 9 81 9 q 59 13 65 9 q 50 33 50 18 q 54 64 50 44 q 54 70 54 67 q 64 193 59 146 q 75 296 68 241 q 79 329 77 311 q 89 410 83 368 q 96 477 94 452 q 103 529 100 503 q 108 572 106 556 q 124 698 114 629 q 137 792 130 741 q 144 825 140 806 q 146 838 145 831 q 158 887 153 870 q 172 912 163 903 q 210 929 186 928 l 210 929 q 283 878 246 929 q 326 791 305 848 q 364 681 347 734 q 377 643 372 660 q 417 471 404 566 q 435 544 420 482 q 471 681 451 605 q 505 816 490 758 q 520 874 520 874 q 528 896 523 882 q 539 922 533 909 q 549 940 545 935 z "},"n":{"ha":616,"x_min":56,"x_max":591,"o":"m 440 264 q 438 318 439 289 q 437 355 437 334 q 450 642 437 442 q 473 890 463 842 q 485 929 477 911 q 504 959 492 947 q 535 970 515 970 l 536 970 q 569 957 558 970 q 584 926 580 943 q 589 901 588 910 q 590 880 590 894 q 591 839 591 866 l 574 503 q 567 285 567 395 l 567 251 l 564 174 q 561 121 564 138 q 548 94 557 104 q 514 77 534 78 l 511 77 q 476 92 492 77 q 442 153 461 106 q 414 223 422 199 q 394 275 405 246 q 371 339 384 304 q 343 416 358 374 q 310 507 328 458 q 272 613 292 556 q 228 734 252 669 l 208 780 q 205 734 207 759 q 201 581 201 654 q 202 514 201 549 q 203 486 203 498 q 203 458 203 469 l 205 409 q 208 314 206 351 q 215 217 210 276 q 222 135 220 162 q 224 88 224 109 l 224 71 q 222 36 224 47 q 212 15 220 24 q 176 -1 197 -1 q 168 -1 172 -1 q 123 52 138 3 q 91 233 108 102 q 84 279 87 256 q 78 317 81 303 q 62 446 67 378 q 57 614 58 514 l 56 670 q 62 810 56 753 q 74 903 67 873 q 96 948 81 934 q 138 965 115 965 q 149 964 144 965 q 196 928 181 959 q 203 911 200 921 q 210 895 206 904 q 224 863 213 890 q 262 766 236 835 q 334 569 288 697 q 440 264 376 450 z "},"o":{"ha":624,"x_min":52,"x_max":581,"o":"m 296 -7 q 265 -3 281 -7 q 143 87 199 16 q 52 374 52 208 q 54 426 52 399 q 115 693 66 559 q 231 910 164 827 q 269 949 248 930 q 302 977 290 969 q 319 982 311 981 q 335 983 328 983 q 372 977 355 982 q 447 930 408 962 q 509 865 485 899 q 534 816 520 846 q 555 762 547 786 q 581 553 581 668 l 581 530 q 516 215 578 358 q 429 68 479 125 q 296 -7 363 -7 m 319 85 q 336 89 327 85 q 383 117 358 96 q 415 151 397 130 q 442 189 433 173 q 513 411 492 279 q 517 500 517 445 q 513 605 517 559 q 494 713 505 672 q 462 789 483 755 q 422 842 440 826 q 397 859 405 859 q 375 852 387 859 q 357 836 363 846 q 291 680 325 772 q 235 477 257 587 q 221 393 224 426 q 218 313 218 359 q 218 275 218 288 q 219 252 218 261 q 222 235 220 243 q 245 156 231 190 q 274 107 256 130 q 319 85 292 85 z "},"p":{"ha":676,"x_min":47,"x_max":629,"o":"m 210 12 q 192 17 201 12 q 142 79 168 32 q 100 176 117 125 q 66 316 80 240 q 47 529 47 419 q 53 646 47 589 q 82 809 62 738 q 127 909 102 880 q 172 930 147 930 l 173 930 q 214 911 197 929 q 232 854 232 897 q 223 760 232 821 q 208 616 212 671 q 203 494 204 562 l 203 456 q 206 292 203 381 q 210 350 209 323 q 216 426 214 404 q 253 656 231 568 q 389 944 301 860 q 419 970 406 961 q 450 983 433 979 q 467 985 458 985 q 480 985 475 985 q 483 985 481 985 q 495 984 488 985 q 509 980 503 983 q 557 950 534 971 q 596 902 581 928 q 627 791 622 859 q 629 750 629 775 q 628 692 629 722 q 624 645 627 663 q 587 493 612 557 q 498 357 555 411 q 406 300 458 318 q 393 296 398 298 q 381 294 387 295 q 364 294 375 294 q 363 294 363 294 q 342 294 350 294 q 327 298 334 295 q 294 312 315 302 q 257 332 272 323 l 244 90 q 241 45 243 58 q 237 29 239 33 q 218 14 231 18 q 210 12 214 12 m 330 376 l 342 378 q 441 473 399 393 q 472 572 461 513 q 493 757 484 631 q 495 789 494 768 q 496 830 496 810 l 496 878 q 485 903 490 895 q 472 920 480 912 l 463 920 q 454 919 457 920 q 449 918 451 919 q 445 916 448 918 q 353 788 399 890 q 334 739 346 770 q 314 681 323 707 q 264 405 279 571 q 284 393 271 399 q 311 381 298 386 q 330 376 324 376 z "},"q":{"ha":624,"x_min":52,"x_max":581,"o":"m 422 160 q 442 189 435 176 q 513 411 492 279 q 517 500 517 445 q 513 605 517 559 q 494 713 505 672 q 462 789 483 755 q 422 842 440 826 q 397 859 405 859 q 361 828 380 859 q 313 716 342 798 q 235 477 283 633 q 219 404 222 434 q 217 361 217 383 q 218 340 217 351 l 218 313 q 218 275 218 288 q 219 252 218 261 q 222 235 220 243 q 245 156 231 190 q 274 107 256 130 q 319 85 292 85 q 336 89 327 85 q 383 117 358 96 q 389 123 386 120 q 389 124 389 123 q 363 150 374 139 q 347 167 353 160 q 337 178 340 174 q 331 185 333 182 q 329 189 330 187 q 328 191 329 190 l 328 193 q 334 210 328 201 q 352 216 341 216 q 361 215 357 216 q 373 207 365 213 q 395 186 380 200 q 415 168 401 180 q 422 160 418 164 m 436 76 q 429 68 433 72 q 296 -7 363 -7 q 265 -3 281 -7 q 143 87 199 16 q 52 374 52 208 q 54 426 52 399 q 115 693 66 559 q 231 910 164 827 q 269 949 248 930 q 302 977 290 969 q 319 982 311 981 q 335 983 328 983 q 372 977 355 982 q 447 930 408 962 q 509 865 485 899 q 534 816 520 846 q 555 762 547 786 q 581 553 581 668 l 581 530 q 516 215 578 358 q 465 116 493 159 q 467 115 466 115 q 475 104 475 105 q 544 35 515 64 q 576 1 572 5 q 580 -13 580 -6 q 575 -27 580 -20 l 573 -30 q 557 -37 566 -37 q 551 -36 553 -37 q 548 -35 549 -35 q 544 -32 547 -34 q 536 -24 541 -29 q 522 -12 530 -20 q 501 10 513 -3 q 470 41 488 23 l 436 76 z "},"r":{"ha":715,"x_min":47,"x_max":702,"o":"m 227 0 q 208 5 217 0 q 111 146 165 30 q 49 397 57 262 q 47 454 47 418 q 48 514 47 484 q 51 562 49 545 q 93 809 60 682 q 115 887 105 860 q 138 927 125 913 q 184 949 159 949 q 224 934 205 949 q 243 902 239 920 q 248 859 248 884 q 245 815 248 840 q 235 743 242 790 q 203 511 210 585 q 196 347 196 437 q 197 274 196 301 q 203 214 199 248 q 232 77 212 134 q 233 79 232 78 q 239 107 235 89 q 256 195 250 154 q 269 302 262 235 q 276 386 273 346 q 284 500 279 426 q 365 850 297 722 q 391 896 378 877 q 422 934 404 915 q 511 991 470 984 q 534 994 522 994 l 539 994 q 677 852 640 987 q 683 818 682 835 q 685 780 685 802 l 685 764 q 681 718 684 737 q 673 676 679 698 q 598 529 652 597 q 482 434 545 461 q 438 418 466 427 q 393 405 411 410 q 338 397 360 397 q 352 368 343 385 q 368 340 360 352 q 514 182 429 247 q 633 122 581 132 q 657 120 646 120 q 669 121 665 120 q 679 123 674 123 q 698 114 690 123 q 702 100 702 108 q 699 88 702 94 q 680 76 691 78 q 652 73 668 73 q 617 76 633 73 q 580 88 602 79 q 437 182 509 116 q 319 325 372 245 q 308 218 314 262 q 295 134 302 174 q 269 33 282 63 q 231 1 255 2 l 227 0 m 330 458 q 332 459 331 458 q 346 461 339 460 q 384 474 363 465 q 420 492 404 482 q 447 514 430 498 q 476 548 463 530 q 553 734 534 631 q 557 787 557 757 q 549 872 557 833 q 536 905 544 891 q 522 922 528 918 q 519 923 519 923 q 517 924 518 924 q 515 924 517 924 l 509 924 q 500 922 504 923 q 491 919 496 922 q 423 848 456 901 q 368 722 389 795 q 344 614 353 674 q 330 461 335 554 l 330 458 z "},"s":{"ha":557,"x_min":47,"x_max":517,"o":"m 258 -4 l 252 -4 q 237 -3 243 -4 q 146 64 189 4 q 107 157 119 102 q 103 186 103 175 q 112 207 103 201 q 125 211 118 211 q 142 204 134 211 q 142 203 142 204 q 144 200 142 203 q 147 191 145 197 q 151 174 149 185 q 189 87 161 121 q 212 61 202 70 q 233 47 222 52 q 238 45 236 46 q 242 44 239 45 q 250 44 245 44 q 257 44 255 44 q 262 45 260 45 q 268 48 264 46 q 289 64 277 53 q 323 136 319 96 l 323 142 q 302 213 323 174 q 278 253 294 230 q 233 316 263 275 q 74 582 107 481 q 47 724 47 657 q 75 857 47 792 q 138 951 98 913 q 283 1022 205 1015 l 291 1022 q 365 1004 326 1022 q 435 957 404 987 q 469 914 455 937 q 494 855 482 891 q 511 798 507 821 q 517 743 516 775 l 517 726 q 503 606 517 661 q 462 517 488 551 q 450 504 458 512 q 433 489 443 496 q 415 481 423 481 q 399 488 407 481 q 392 505 392 496 q 396 517 392 512 q 409 530 401 523 q 455 616 441 559 q 469 732 469 674 q 464 789 469 764 q 418 893 451 850 q 384 926 399 918 q 344 935 369 935 l 343 935 q 258 899 290 935 q 205 794 218 860 q 201 739 201 770 q 203 701 201 718 q 241 574 211 648 q 264 519 251 547 q 302 445 278 491 q 345 357 332 389 q 368 290 358 326 q 380 239 376 260 q 385 194 384 218 l 385 182 q 378 119 385 142 q 328 35 362 70 q 258 -4 294 0 z "},"t":{"ha":621,"x_min":47,"x_max":587,"o":"m 317 20 q 298 25 307 20 q 295 26 296 26 q 295 27 295 26 q 294 27 294 27 q 294 28 294 28 q 292 31 293 29 q 233 230 249 112 q 214 432 218 347 q 207 536 209 492 q 205 637 205 579 q 205 664 205 650 l 204 755 q 207 860 204 833 q 216 901 209 884 q 175 897 199 899 q 135 893 152 895 q 105 889 119 891 q 74 882 91 886 l 71 882 q 57 887 64 882 q 47 905 47 896 q 52 917 47 910 q 72 930 56 924 q 132 941 90 935 q 207 950 175 947 q 265 951 230 951 q 414 946 336 951 q 438 944 415 946 q 492 937 461 941 q 548 927 523 933 q 581 916 574 922 q 587 900 587 909 l 586 895 q 573 878 583 884 q 564 876 569 876 q 542 880 555 876 q 538 880 540 880 q 468 891 507 886 q 391 899 428 897 q 328 902 355 902 q 353 795 344 873 q 357 750 355 772 q 359 687 358 728 q 360 563 359 645 q 361 414 361 460 q 365 334 362 368 q 364 323 365 328 q 363 305 363 317 q 365 255 363 283 q 366 238 366 247 q 368 145 368 186 q 364 77 368 105 q 349 35 360 50 q 317 20 335 20 z "},"u":{"ha":641,"x_min":47,"x_max":594,"o":"m 512 -1 q 490 4 501 -1 q 444 85 454 26 q 434 159 438 114 q 424 289 429 204 l 420 351 q 347 120 382 179 q 318 82 333 95 q 280 60 303 68 q 254 55 268 55 q 134 150 195 55 q 47 540 52 283 l 47 567 q 68 807 47 682 q 93 905 80 874 q 126 946 106 936 q 139 951 134 950 q 154 953 145 953 q 169 951 163 953 q 182 946 175 950 q 213 908 204 932 q 222 849 221 883 l 224 818 q 219 722 224 787 q 214 616 215 652 q 212 506 212 580 q 214 386 212 428 q 221 292 216 345 q 263 119 235 142 q 268 116 267 117 q 271 115 270 115 l 275 115 q 338 227 307 123 q 356 290 348 258 q 375 373 364 322 q 404 515 387 425 q 411 550 409 537 q 412 580 412 562 q 443 833 420 741 q 460 890 450 864 q 487 933 471 917 q 529 950 504 950 q 591 892 576 950 q 594 859 594 880 q 582 708 594 817 q 569 565 574 627 q 559 415 564 502 q 557 338 557 384 q 559 208 557 283 q 564 74 564 111 q 563 50 564 58 q 561 36 562 41 q 557 26 559 31 q 528 1 547 8 q 512 -1 520 -1 z "},"v":{"ha":615,"x_min":47,"x_max":602,"o":"m 311 4 q 298 7 305 4 q 266 32 283 11 q 221 102 248 54 q 151 253 180 176 q 98 441 123 331 q 49 794 55 616 l 47 837 q 54 906 47 881 q 74 945 60 930 q 118 966 91 966 l 123 966 q 171 943 151 966 q 210 859 196 918 q 255 530 223 804 q 296 231 280 315 q 317 136 305 182 q 353 298 330 189 q 357 314 355 307 q 375 401 368 370 q 388 457 382 433 q 404 519 394 482 q 431 629 421 592 q 453 700 441 665 q 494 815 474 766 q 527 894 514 865 q 547 939 540 924 q 559 960 555 954 q 566 967 563 966 q 578 971 572 971 q 589 968 584 971 q 602 947 602 961 q 601 945 602 947 q 600 939 601 943 q 595 928 598 935 q 587 911 592 922 q 548 812 574 882 q 492 656 522 743 q 438 452 465 580 l 418 362 l 387 220 q 370 131 377 178 q 359 64 362 85 q 352 36 355 43 q 311 4 338 4 z "},"w":{"ha":827,"x_min":47,"x_max":779,"o":"m 256 -4 q 234 1 246 -4 q 207 25 221 9 q 182 58 193 41 q 93 271 124 145 q 50 587 61 397 q 47 690 47 629 q 50 792 47 751 q 55 860 52 830 q 61 902 58 890 q 102 958 72 944 q 115 962 109 961 q 130 964 121 964 q 145 963 139 964 q 158 958 151 962 q 214 852 203 936 q 219 794 217 826 q 223 695 221 762 q 248 342 229 513 q 255 267 251 310 q 264 182 260 223 q 272 116 268 144 q 311 288 288 178 q 348 453 326 361 q 387 608 370 544 l 395 637 q 395 643 395 640 q 401 736 395 703 q 437 784 408 770 q 448 789 444 787 q 460 790 453 790 l 467 790 q 491 785 481 789 q 511 770 500 780 q 552 688 536 747 q 563 638 557 668 q 577 553 569 609 q 599 398 585 497 q 611 314 606 345 q 618 264 615 283 q 626 227 622 245 q 628 218 627 222 q 635 186 631 200 q 654 278 645 221 q 664 342 661 313 q 671 413 668 372 q 697 625 682 534 q 702 655 699 635 q 707 696 705 675 q 710 725 707 699 q 719 783 713 750 q 729 842 724 816 q 739 875 734 869 q 758 882 747 882 q 770 879 764 882 q 779 859 779 873 q 774 823 779 846 q 774 822 774 823 q 762 745 768 785 q 748 631 756 704 q 738 550 743 592 q 730 482 733 508 q 724 430 727 457 q 719 387 720 404 q 706 293 713 339 q 692 215 699 247 q 685 182 689 201 q 682 170 684 176 q 671 120 676 137 q 657 95 665 104 q 619 78 642 79 l 618 78 q 545 129 583 78 q 493 216 519 165 q 450 317 467 268 q 410 489 424 394 q 390 393 402 458 q 315 74 347 172 q 307 52 312 66 q 296 26 302 39 q 286 8 290 13 q 256 -4 274 -4 z "},"x":{"ha":515,"x_min":47,"x_max":468,"o":"m 96 6 l 93 6 q 79 12 86 6 q 65 36 69 18 q 62 91 62 53 l 62 113 q 67 191 62 157 q 81 264 71 224 q 105 344 90 298 q 138 429 121 389 l 142 438 q 98 558 116 505 q 66 676 80 611 q 52 755 56 722 q 47 827 47 787 q 49 873 47 857 q 55 905 50 890 q 112 964 73 964 l 119 963 q 149 947 136 962 q 167 917 159 937 q 182 859 174 897 q 207 734 197 779 q 228 652 217 689 l 240 611 l 243 616 q 254 631 249 624 q 265 648 263 644 q 273 658 269 652 q 280 669 277 665 l 322 725 l 381 808 q 419 859 414 852 q 430 869 425 866 q 439 871 435 871 l 441 871 q 458 864 452 871 q 465 850 465 858 q 459 833 465 842 q 444 811 453 823 l 338 665 q 290 598 313 633 q 260 550 267 563 q 261 547 260 549 q 268 527 263 540 q 335 353 300 435 q 374 272 350 319 q 411 200 397 224 q 443 142 427 174 q 464 97 459 111 q 468 74 468 85 q 460 47 468 58 q 425 30 448 30 q 392 42 406 30 q 355 81 378 54 q 333 109 342 97 q 313 137 324 121 q 283 181 302 153 q 170 377 212 287 q 115 181 128 279 q 109 83 109 127 q 111 42 109 52 q 114 36 113 40 q 115 28 115 33 q 111 15 115 22 q 96 6 104 7 z "},"y":{"ha":646,"x_min":47,"x_max":599,"o":"m 258 9 q 238 12 248 9 q 164 67 191 24 q 150 96 158 77 q 138 125 142 114 q 135 144 136 132 q 134 165 134 156 l 134 176 q 151 195 139 190 q 159 196 155 196 q 173 191 167 196 q 181 180 180 186 q 182 163 182 174 q 206 98 182 125 q 224 83 215 90 q 239 74 234 76 q 245 73 242 73 q 292 99 262 73 q 408 325 368 170 q 431 444 424 385 q 443 596 439 503 q 445 666 444 622 q 446 746 446 710 l 446 774 q 361 610 416 729 q 248 401 300 474 q 208 358 224 367 q 195 353 201 354 q 182 351 190 352 q 180 351 180 351 q 165 353 171 351 q 152 357 159 354 q 70 482 104 387 q 53 554 58 518 q 47 645 48 589 l 47 670 q 69 860 47 783 q 97 933 81 907 q 146 960 114 960 l 147 960 q 191 940 173 960 q 208 908 202 928 q 214 848 214 889 q 203 675 214 792 q 203 665 203 670 q 198 610 201 639 q 193 562 196 582 q 188 456 188 493 q 190 415 188 427 q 201 427 195 419 q 205 431 203 429 q 322 641 252 484 q 418 817 384 775 q 428 831 420 819 q 435 842 431 836 q 455 867 446 858 q 477 879 464 876 q 492 881 484 881 q 542 863 517 881 q 596 736 581 829 q 598 711 598 726 q 599 663 599 696 q 597 598 599 623 q 591 537 596 573 q 533 287 574 401 q 421 101 496 183 q 296 16 363 39 q 258 9 278 9 z "},"z":{"ha":519,"x_min":47,"x_max":506,"o":"m 214 16 q 191 18 199 16 q 149 55 160 28 q 138 116 138 82 q 142 171 138 143 q 160 274 147 205 q 189 410 174 342 q 316 850 228 593 q 323 871 319 861 q 328 886 326 881 q 283 896 313 893 q 232 897 263 897 q 174 896 201 897 q 149 894 161 895 q 104 891 124 892 q 80 888 85 889 l 75 888 q 50 905 58 888 q 47 914 47 909 q 57 932 47 924 q 110 942 66 938 q 208 949 154 947 q 296 952 262 952 l 315 952 q 401 939 376 951 q 446 878 434 922 q 450 833 450 860 q 448 787 450 809 q 288 231 419 617 q 258 146 270 180 q 234 73 239 89 l 246 71 q 267 69 254 69 q 394 82 306 69 q 456 90 437 87 q 481 92 475 92 q 486 92 485 92 q 489 91 488 92 q 506 72 503 86 l 506 68 q 497 50 506 58 q 473 43 490 44 l 410 35 q 340 26 366 29 q 298 22 315 23 l 256 18 q 214 16 231 16 z "},"{":{"ha":880,"x_min":1,"x_max":724,"o":"m 720 332 q 724 318 724 326 l 724 316 q 697 269 724 293 q 688 262 692 265 q 677 255 684 259 q 656 244 670 251 l 649 240 q 558 199 616 224 q 435 146 500 174 l 360 115 q 275 82 304 92 q 228 72 245 72 q 213 73 220 72 q 184 96 194 78 q 180 111 180 103 l 180 113 q 183 129 180 121 q 191 144 186 138 q 225 176 201 159 q 237 184 231 180 q 256 195 244 189 q 290 211 269 201 q 330 230 314 222 q 366 245 346 237 q 421 267 385 253 q 447 277 433 271 l 535 311 q 569 323 551 317 q 596 334 586 330 l 629 346 q 656 353 640 350 q 683 357 673 357 l 685 357 q 720 332 710 354 m 172 895 q 208 919 183 916 q 236 916 218 919 q 264 908 253 912 l 297 895 q 324 885 307 892 q 358 873 341 879 l 446 839 q 460 833 453 836 q 523 809 501 817 q 561 793 545 800 q 602 773 578 785 q 636 756 624 762 q 655 746 648 750 q 667 738 663 742 q 702 706 692 721 q 709 690 706 700 q 713 673 713 681 q 709 659 712 665 q 680 635 699 640 q 665 634 673 634 q 626 641 651 634 q 533 677 600 648 l 458 709 q 335 761 393 736 q 244 802 277 786 l 236 806 q 215 817 222 813 q 204 824 208 821 q 195 831 200 827 q 169 877 169 855 l 169 880 q 172 895 169 888 m 1 493 q 23 530 2 517 q 50 538 33 534 q 79 542 67 542 l 114 544 q 143 546 125 545 q 179 548 161 547 l 273 553 q 288 553 281 553 q 356 556 332 555 q 397 557 380 557 q 443 556 416 557 q 481 554 467 555 q 503 553 494 553 q 517 551 511 552 q 562 535 546 545 q 574 524 568 531 q 584 509 581 517 q 587 494 587 502 q 570 462 585 473 q 524 446 555 450 q 418 440 492 441 l 337 439 q 203 437 267 437 l 164 437 q 104 437 128 437 l 95 438 q 72 439 79 439 q 59 441 64 440 q 47 445 54 443 q 3 478 11 456 q 1 493 1 486 z "},"|":{"ha":340,"x_min":45,"x_max":301,"o":"m 243 -109 l 258 -109 q 288 -125 288 -109 l 288 -130 q 277 -149 288 -141 q 274 -150 276 -149 q 269 -151 273 -150 q 263 -151 264 -151 q 249 -152 262 -151 q 216 -153 236 -153 q 167 -155 196 -154 l 149 -155 q 118 -155 130 -155 q 101 -154 107 -155 q 93 -153 96 -153 q 90 -151 91 -152 q 80 -136 81 -144 q 87 -119 80 -126 q 95 -114 91 -116 q 109 -111 99 -113 l 117 -111 q 111 -9 113 -102 q 105 295 108 85 q 102 713 103 505 q 102 967 102 921 q 111 1090 102 1030 l 90 1093 q 69 1093 76 1093 q 60 1094 62 1093 q 56 1096 58 1095 l 56 1096 q 45 1112 46 1102 q 54 1128 45 1121 q 62 1133 57 1131 q 79 1135 67 1135 q 115 1136 90 1136 l 206 1138 q 243 1139 223 1138 q 266 1139 256 1139 q 278 1139 275 1139 q 301 1120 298 1135 l 301 1117 q 288 1099 301 1106 q 285 1098 287 1098 q 278 1097 283 1097 q 238 1092 274 1096 q 245 1009 244 1040 q 246 922 245 979 q 242 454 243 543 q 242 221 242 366 q 244 38 242 77 q 246 -29 245 -1 q 246 -80 246 -57 q 245 -101 246 -96 q 243 -109 245 -104 z "},"}":{"ha":880,"x_min":124,"x_max":847,"o":"m 127 334 q 163 359 138 356 l 165 359 q 192 355 175 359 q 219 348 208 352 l 252 336 q 279 325 262 332 q 313 313 296 319 l 401 279 q 416 273 409 275 q 479 249 457 257 q 516 233 500 240 q 557 213 532 225 q 591 197 579 203 q 610 186 604 191 q 623 178 617 182 q 657 146 647 161 q 665 130 661 140 q 668 113 668 121 q 664 98 667 105 q 635 75 654 80 q 620 74 628 74 q 573 84 602 74 q 488 117 544 94 l 413 149 q 290 201 348 176 q 199 242 233 227 l 191 246 q 171 257 178 253 q 159 264 163 261 q 151 271 155 267 q 124 318 124 295 l 124 320 q 127 334 124 328 m 675 897 q 679 882 679 890 l 679 879 q 652 833 679 857 q 644 826 648 829 q 632 819 640 823 q 612 808 625 815 l 604 804 q 513 763 571 788 q 390 711 455 738 l 315 680 q 217 642 248 650 q 182 636 197 636 q 168 637 174 636 q 139 661 149 642 q 136 675 136 667 l 136 678 q 139 693 136 684 q 146 708 142 702 q 180 740 156 723 q 193 748 186 744 q 212 758 199 752 q 245 775 224 764 q 287 795 271 787 q 325 811 303 802 q 389 836 347 819 q 402 841 395 838 l 490 875 q 524 887 507 881 q 551 897 541 894 l 585 910 q 612 918 595 914 q 640 921 629 921 q 675 897 665 918 m 847 495 l 847 492 q 844 480 847 486 q 801 447 837 458 q 790 444 795 445 q 777 441 785 442 q 753 440 768 441 l 744 439 q 684 439 720 439 q 623 439 665 439 q 511 441 581 439 l 430 442 q 325 448 356 443 q 279 464 293 452 q 261 496 262 475 q 264 511 261 504 q 273 526 267 519 q 287 537 280 533 q 331 553 302 547 q 346 555 338 554 q 367 556 353 555 q 405 558 381 557 q 450 559 433 559 q 492 558 469 559 q 559 555 515 557 q 574 555 567 555 l 669 550 q 705 548 686 549 q 734 546 723 547 l 769 544 q 798 540 781 544 q 825 532 815 536 q 847 495 846 519 z "},"~":{"ha":397,"x_min":47,"x_max":350,"o":"m 256 304 q 243 305 250 304 q 216 314 231 307 q 191 332 202 321 q 176 348 185 337 q 159 370 167 359 q 142 391 149 382 q 133 402 135 400 q 122 409 127 407 q 115 412 117 412 q 107 400 113 411 q 97 367 101 389 q 91 345 96 357 q 75 334 85 334 q 61 341 66 334 q 54 356 56 348 q 52 366 52 363 q 52 366 52 366 q 47 408 47 388 q 53 453 47 429 q 106 524 63 503 q 146 533 126 533 q 222 498 187 533 q 237 478 231 489 q 252 451 243 468 q 264 427 259 435 q 275 413 269 418 l 279 410 q 286 413 283 410 q 290 422 288 415 q 295 444 292 429 q 299 464 297 454 q 304 479 302 475 q 309 491 305 486 q 323 498 313 497 l 325 498 q 331 498 328 498 q 338 494 334 497 q 346 481 344 490 q 349 456 348 472 l 350 422 q 335 363 347 393 q 307 321 323 334 q 256 304 283 304 z "},"":{"ha":258,"x_min":47,"x_max":211,"o":"m 139 887 q 155 884 147 887 q 181 867 168 879 q 201 842 194 856 q 211 801 211 823 q 205 769 211 785 q 189 745 200 755 q 165 730 178 734 q 149 728 157 728 q 114 740 130 728 q 84 807 84 764 l 84 811 q 90 840 84 824 q 99 866 95 857 q 112 880 104 874 q 139 887 125 887 m 142 694 q 159 690 151 694 q 197 636 185 680 q 201 623 199 629 q 203 607 202 616 q 203 579 203 597 l 203 569 q 200 451 203 527 q 192 291 197 375 l 186 194 q 176 69 182 106 q 155 15 169 31 q 115 -4 138 -4 q 97 -1 106 -4 q 80 12 89 3 q 67 28 72 20 q 51 81 56 47 q 49 98 50 89 q 48 124 48 108 q 47 170 47 140 q 48 225 47 204 q 51 273 49 245 q 58 354 53 301 q 59 372 58 362 l 68 484 q 72 527 70 505 q 76 561 75 549 l 80 603 q 86 637 81 617 q 98 669 92 657 q 142 694 115 694 z "},"":{"ha":504,"x_min":47,"x_max":456,"o":"m 279 34 q 268 37 274 34 q 256 53 258 41 q 254 70 255 57 q 252 95 253 82 q 251 111 251 108 l 249 149 l 243 149 q 159 180 195 155 q 147 190 154 183 q 134 202 140 196 q 50 370 68 271 q 48 398 49 380 q 47 437 47 417 q 50 491 47 469 q 95 622 60 571 q 118 650 104 636 q 143 673 131 665 q 220 701 176 696 l 225 787 q 228 800 226 793 q 233 810 229 806 q 248 817 239 817 l 250 817 q 267 810 260 817 q 271 803 270 806 q 272 789 272 799 l 269 701 q 354 664 307 696 q 432 588 408 629 q 456 490 456 547 q 456 470 456 477 q 452 458 455 463 q 435 449 446 450 l 433 449 q 416 456 423 449 q 410 465 412 460 q 409 476 409 469 l 409 486 q 408 509 409 495 q 404 532 406 522 q 384 574 398 554 q 353 602 370 594 q 324 609 339 609 q 294 604 310 609 q 235 559 256 589 q 197 404 197 500 q 198 372 197 389 q 207 305 200 331 q 231 254 214 279 q 245 235 238 241 q 260 223 252 228 q 292 214 276 214 q 310 216 300 214 q 353 237 326 219 q 369 253 360 242 q 384 273 378 263 q 404 328 396 294 q 414 356 408 346 q 432 367 419 367 q 448 359 441 367 q 455 342 455 352 q 452 325 455 338 q 445 299 449 312 q 439 279 441 286 q 347 169 409 203 q 323 160 338 165 q 296 152 308 155 l 299 104 q 302 61 302 74 q 300 49 302 52 q 295 42 299 45 q 279 34 288 34 z "},"":{"ha":682,"x_min":47,"x_max":634,"o":"m 511 -9 q 473 -5 490 -9 q 415 17 454 0 q 331 56 375 35 q 307 68 320 62 q 283 79 293 75 q 255 88 269 84 q 235 94 242 92 q 233 90 234 92 q 231 87 232 89 q 213 55 224 72 q 195 32 203 39 q 177 19 187 24 q 157 12 167 14 l 146 11 q 103 37 120 11 q 94 68 94 52 q 99 92 94 81 q 168 147 115 130 l 176 149 l 178 161 q 181 198 180 176 q 182 244 182 221 q 181 283 182 266 l 171 392 q 145 390 160 391 q 118 388 130 389 q 101 386 111 387 q 85 386 92 386 q 68 387 77 386 q 54 394 60 388 q 47 414 47 400 q 62 440 47 435 q 123 448 77 445 q 145 449 136 448 q 165 450 157 450 q 161 484 164 463 q 153 570 155 536 q 151 640 151 604 l 151 659 q 159 759 151 719 q 184 841 166 800 q 298 954 221 931 q 331 961 315 960 q 366 958 347 961 q 412 948 395 954 q 446 930 429 942 q 551 777 523 876 q 562 724 559 749 q 564 651 564 698 q 564 616 564 643 q 561 564 563 590 q 554 528 559 538 q 535 515 547 515 l 532 516 q 512 534 518 518 q 511 546 511 538 q 512 566 511 554 q 517 655 517 615 q 496 787 517 737 q 418 883 469 849 l 407 890 q 397 890 401 890 q 368 887 380 889 q 342 875 357 884 q 291 744 300 844 q 290 678 290 722 q 291 594 290 634 l 294 500 l 294 460 q 330 463 305 460 q 397 467 361 465 q 448 469 433 469 l 455 469 q 466 460 462 467 q 472 445 471 454 l 472 442 q 460 416 472 426 q 460 416 460 416 q 458 415 459 416 q 453 414 456 415 q 444 413 450 414 q 428 411 438 412 q 403 409 418 410 q 367 407 388 408 l 294 401 l 292 382 q 258 153 286 241 l 258 150 l 259 150 q 303 135 279 145 q 370 103 328 124 q 434 71 413 80 q 460 59 454 61 q 490 52 473 55 q 513 48 507 48 q 590 83 560 48 q 600 94 595 90 q 612 99 605 99 l 617 98 q 629 90 625 95 q 633 81 633 85 l 634 74 q 625 47 634 61 q 595 17 613 31 q 558 -3 577 3 q 511 -9 538 -9 m 151 75 l 157 81 q 149 74 152 77 l 151 75 z "},"":{"ha":559,"x_min":47,"x_max":512,"o":"m 127 175 q 111 182 119 175 q 104 197 104 190 q 109 213 104 204 q 125 237 115 222 l 170 302 q 140 343 151 323 q 121 391 128 363 q 117 411 118 401 q 115 439 116 420 l 115 454 q 116 471 115 465 q 118 487 117 478 q 130 526 123 506 l 127 527 q 84 559 105 542 q 55 586 63 576 q 47 607 47 596 q 53 623 47 616 q 73 631 61 631 q 91 627 81 631 q 106 616 96 624 q 125 602 116 609 q 131 597 128 599 q 134 595 134 595 l 158 575 q 272 634 207 634 q 342 609 317 634 q 366 566 363 590 l 450 641 q 475 664 467 658 q 490 669 482 669 q 506 663 500 669 q 512 647 512 656 q 509 637 512 642 q 497 622 507 632 q 469 593 488 612 q 448 574 458 584 q 393 522 414 540 q 414 473 406 503 q 422 417 422 444 q 420 400 422 408 q 394 318 415 353 q 394 317 394 317 q 394 317 394 317 q 395 317 395 317 q 395 316 395 316 q 396 315 396 316 q 409 304 399 312 q 431 286 419 296 q 449 273 437 281 q 471 255 460 264 q 486 241 482 246 q 492 225 492 233 l 491 219 q 475 203 488 208 l 469 202 q 450 210 458 202 q 446 212 448 211 q 431 221 438 218 q 399 244 420 228 q 363 273 378 260 l 359 277 q 280 252 321 252 l 270 252 q 207 272 234 256 q 203 267 205 270 q 195 254 199 261 q 164 209 179 231 q 142 180 149 186 q 127 175 135 175 m 295 309 q 303 310 299 309 q 309 311 307 310 q 340 331 325 315 q 363 366 356 347 q 369 381 367 375 q 371 396 370 388 q 371 420 371 405 q 371 441 371 435 q 370 452 370 448 q 367 462 369 456 q 355 491 362 477 q 340 513 347 505 l 338 514 q 323 507 332 510 q 298 501 314 505 q 265 489 277 497 q 246 466 254 481 q 239 446 241 455 q 235 422 236 436 q 234 408 234 416 q 238 367 234 387 q 257 331 244 347 q 285 310 271 315 q 295 309 288 309 z "},"":{"ha":670,"x_min":47,"x_max":623,"o":"m 315 12 q 305 12 310 12 q 262 81 271 27 q 260 100 260 92 q 259 124 259 109 l 259 191 q 250 190 256 191 q 202 187 230 189 q 158 185 174 185 l 146 186 q 131 202 137 189 q 128 218 128 210 l 129 225 q 137 241 131 236 q 160 248 143 246 q 210 252 176 250 l 260 257 l 260 265 q 262 304 260 278 q 262 330 262 318 l 264 353 q 237 350 254 353 q 234 349 235 349 q 186 346 201 346 q 172 348 176 346 q 164 355 168 350 q 158 378 158 366 q 161 394 158 387 q 178 407 165 404 q 222 413 191 410 q 224 413 224 413 l 264 418 q 257 455 263 437 q 230 509 250 474 q 160 639 203 557 q 96 766 118 720 q 70 826 83 794 q 53 876 58 858 q 47 912 47 897 q 55 947 47 935 q 69 962 63 958 q 90 968 79 968 q 124 954 108 968 q 155 920 141 939 q 185 880 169 904 q 214 832 201 856 q 254 758 229 806 q 302 662 279 709 q 336 591 326 614 q 360 533 349 557 l 509 797 q 526 825 520 816 q 535 841 530 832 q 548 864 540 850 q 564 892 555 877 q 571 905 568 899 q 572 907 572 906 q 585 925 580 920 q 599 931 590 931 l 601 931 q 611 928 606 931 q 620 914 616 924 q 623 902 623 909 q 618 886 623 897 q 602 854 614 876 q 569 795 590 833 q 532 730 545 753 q 513 697 521 710 q 498 671 505 684 l 478 635 l 420 532 q 409 513 414 523 q 389 477 394 488 l 385 471 q 387 458 386 466 q 389 444 388 450 l 391 431 q 448 437 405 431 l 451 437 q 510 441 498 441 q 516 441 514 441 q 518 441 517 441 q 519 441 519 441 q 530 429 526 437 q 534 412 534 421 q 519 382 534 391 q 519 381 519 381 q 516 380 518 380 q 512 379 515 380 q 504 378 509 378 q 491 376 498 377 q 472 374 483 375 q 448 372 462 373 q 429 370 438 370 q 393 365 406 367 q 393 343 393 357 q 391 308 392 327 q 389 276 391 289 l 389 266 q 441 269 406 266 l 505 272 q 512 272 509 272 q 515 271 514 271 q 518 270 517 271 q 531 243 531 260 l 531 241 q 517 212 531 220 q 441 203 511 209 l 384 199 q 382 184 384 193 q 378 128 380 148 q 374 95 376 108 q 366 67 371 82 q 339 20 355 32 q 315 12 327 12 z "},"":{"ha":229,"x_min":47,"x_max":181,"o":"m 110 -32 q 92 -28 100 -32 q 62 9 70 -18 q 60 26 61 14 q 59 45 60 37 q 57 73 58 57 q 55 103 56 90 q 47 237 47 189 q 49 276 47 258 q 55 313 50 298 q 70 340 59 328 q 106 357 85 357 q 127 353 117 357 q 143 340 135 349 q 155 322 151 332 q 167 213 167 296 q 165 125 167 176 l 161 41 q 158 6 160 18 q 146 -16 155 -6 q 110 -32 130 -32 m 119 479 q 102 483 111 479 q 82 498 92 487 q 68 522 72 509 q 61 550 63 535 q 57 590 58 564 q 55 664 56 616 q 54 753 54 709 q 58 841 54 810 q 73 883 63 868 q 93 902 82 897 q 115 907 104 907 l 116 907 q 140 901 127 907 q 162 877 153 895 q 177 825 172 859 q 180 763 179 807 q 181 669 181 718 l 181 640 q 181 633 181 636 q 180 589 180 605 q 179 565 180 574 q 177 547 178 555 q 171 521 174 532 q 161 502 168 511 q 119 479 144 479 z "},"":{"ha":581,"x_min":47,"x_max":533,"o":"m 275 -68 l 258 -66 q 137 -6 177 -58 q 114 62 114 25 q 116 86 114 74 q 153 165 125 132 q 163 176 156 170 q 179 182 170 182 q 189 180 184 182 q 201 164 199 174 l 201 159 q 189 135 201 146 q 163 63 163 99 q 170 31 163 43 q 207 -2 181 10 q 267 -14 233 -14 l 288 -12 q 366 12 332 -9 q 412 85 412 39 q 402 123 412 105 q 367 166 392 142 q 317 211 349 184 q 254 260 285 238 q 177 326 204 298 q 134 383 149 354 q 115 450 115 418 q 121 492 115 471 q 137 528 127 510 q 159 557 147 545 q 51 699 73 618 q 47 736 47 715 q 52 782 47 760 q 90 861 64 821 q 146 926 116 901 q 247 966 182 954 q 264 969 257 968 q 279 971 271 970 q 301 972 287 972 q 303 972 302 972 q 328 971 319 972 q 341 970 336 971 q 355 966 347 968 q 458 902 418 946 q 505 819 491 865 q 515 755 515 789 q 512 727 515 740 q 499 710 508 715 q 488 707 493 707 q 480 709 484 707 q 473 714 476 711 q 467 723 469 718 q 466 734 466 727 l 467 761 q 458 807 467 785 q 416 875 446 846 q 347 919 389 903 q 322 922 336 922 q 269 911 298 922 q 191 839 218 891 q 178 781 178 810 q 186 738 178 758 q 368 598 199 701 q 398 579 383 589 q 420 564 413 569 q 481 505 452 540 q 523 442 511 470 q 533 391 533 415 l 532 383 q 504 314 528 348 q 447 264 479 280 q 503 118 503 195 q 474 31 503 71 q 332 -60 429 -39 q 303 -65 321 -62 q 275 -68 285 -68 m 412 300 l 420 304 q 441 317 430 309 q 459 334 453 326 q 466 343 462 337 q 472 354 469 349 q 478 376 478 367 q 476 387 478 382 q 401 440 466 408 q 367 456 382 450 q 321 475 351 463 q 312 479 317 477 q 256 505 289 489 q 203 530 222 520 q 194 514 199 524 q 186 494 189 503 q 184 479 184 486 q 187 463 184 469 q 192 456 189 460 q 201 448 195 453 q 222 435 208 443 q 258 413 235 427 q 340 359 298 389 q 406 307 382 328 l 412 300 z "},"":{"ha":356,"x_min":47,"x_max":309,"o":"m 113 712 q 96 714 103 712 q 48 774 56 729 q 47 787 47 781 q 62 831 47 812 q 102 854 77 850 l 112 856 q 158 835 137 856 q 178 783 178 812 q 168 745 178 763 q 138 717 158 726 q 113 712 127 712 m 248 722 q 237 722 242 722 q 229 723 231 723 q 215 731 222 726 q 203 743 208 736 q 194 762 197 752 q 192 793 192 772 q 195 823 192 813 q 205 844 197 833 q 254 869 222 869 q 267 869 262 869 q 276 865 271 868 q 293 853 285 861 q 304 838 300 846 q 309 812 309 827 q 302 776 309 796 q 288 744 295 754 q 269 727 280 733 q 260 723 264 724 q 248 722 256 722 z "},"":{"ha":889,"x_min":47,"x_max":842,"o":"m 423 328 q 391 331 405 328 q 375 337 381 334 q 359 347 368 340 q 299 423 326 372 q 283 469 288 447 q 278 522 278 491 q 345 720 278 648 q 360 733 354 728 q 376 742 366 737 q 431 755 404 755 q 501 732 467 755 q 567 649 554 697 q 570 633 570 640 q 570 608 570 625 q 570 593 570 599 q 570 585 570 588 q 569 581 570 582 q 568 579 568 580 q 560 576 564 576 q 554 579 556 576 q 552 584 553 580 q 551 591 551 587 q 536 628 550 614 q 528 634 532 632 q 516 640 524 637 q 460 648 491 648 l 456 648 q 435 644 442 648 q 421 630 427 640 q 407 603 414 620 q 396 570 400 585 q 389 536 391 551 q 387 499 387 520 l 387 484 q 392 433 388 452 q 408 397 397 414 q 428 375 417 381 q 460 369 439 369 q 474 370 467 369 q 484 372 480 370 q 515 391 498 376 q 542 422 532 406 q 556 451 550 435 q 563 477 562 467 l 566 491 q 573 494 570 494 q 583 488 579 494 q 583 480 583 485 q 579 454 583 471 q 570 421 576 437 q 554 394 565 409 q 532 368 543 378 q 498 346 519 357 q 456 331 477 336 q 423 328 441 328 m 418 136 l 406 136 q 237 186 309 145 q 59 423 102 267 q 50 467 52 448 q 47 517 47 486 q 50 567 47 547 q 60 614 53 587 q 138 775 83 705 q 310 895 222 876 q 330 897 320 897 q 368 886 355 897 q 369 885 369 886 q 371 884 370 884 q 373 884 372 884 q 382 885 376 884 q 401 891 388 887 q 408 893 404 892 q 496 904 443 904 q 692 845 605 904 q 804 717 764 797 q 842 555 842 640 q 821 430 842 494 q 735 278 796 346 q 484 140 635 163 q 451 137 470 138 q 418 136 432 136 m 452 211 q 471 211 462 211 q 486 212 480 212 q 711 321 616 229 q 806 486 783 395 q 813 568 813 524 q 811 609 813 590 q 754 749 802 687 q 672 824 720 793 q 532 871 612 862 q 494 873 516 873 q 459 872 473 873 q 392 861 406 865 q 387 859 389 859 q 384 858 385 859 q 383 857 383 858 q 382 854 382 856 q 380 848 382 852 q 327 785 374 822 q 247 709 277 745 q 195 629 216 673 q 163 488 163 561 q 166 441 163 465 q 286 257 184 323 q 419 212 343 219 q 433 211 424 212 q 452 211 441 211 z "},"":{"ha":427,"x_min":47,"x_max":380,"o":"m 309 610 q 288 616 299 610 q 258 661 260 632 q 240 647 250 653 q 223 636 231 640 q 189 629 206 629 q 110 676 145 629 q 96 701 102 686 q 86 728 90 715 q 83 755 83 741 q 99 825 83 791 q 144 878 116 859 q 198 892 170 892 q 259 874 230 892 l 259 905 q 259 908 259 907 q 259 939 259 927 q 258 956 258 950 q 257 965 258 962 q 256 971 256 968 q 247 989 251 985 q 230 992 242 992 q 216 991 222 992 q 201 988 211 991 q 161 974 176 982 q 132 951 145 966 q 94 863 94 908 q 93 852 94 860 q 87 839 92 845 q 71 833 82 833 q 54 840 59 833 q 48 854 50 846 q 47 867 47 863 q 59 925 47 895 q 77 962 67 947 q 102 993 87 978 q 205 1048 145 1034 q 224 1050 214 1050 q 252 1051 233 1051 q 273 1051 260 1051 q 292 1049 286 1050 q 362 984 338 1037 q 380 873 380 951 q 376 797 380 843 q 369 710 373 750 q 359 652 364 669 q 328 614 350 625 q 309 610 319 610 m 210 699 q 218 700 212 699 q 224 704 220 701 q 237 715 229 707 q 249 728 243 722 q 255 736 254 734 l 258 741 l 258 806 q 235 816 246 814 l 235 816 q 222 810 228 816 q 212 792 218 805 q 201 766 205 779 q 198 741 198 753 q 205 705 198 722 q 207 701 206 703 q 208 700 208 700 q 209 699 208 699 q 209 699 209 699 l 210 699 z "},"":{"ha":1017,"x_min":47,"x_max":968,"o":"m 454 -29 q 439 -22 446 -29 q 433 -14 435 -18 q 430 -3 431 -9 q 424 12 429 2 q 413 30 419 21 q 404 45 407 39 q 378 83 389 70 q 355 111 368 97 q 308 151 332 134 q 247 189 284 168 q 87 263 115 260 q 67 268 75 264 q 54 281 60 271 q 47 300 47 290 q 67 334 47 318 q 88 347 73 338 q 118 362 104 355 q 299 471 234 420 q 387 553 340 504 q 433 603 415 584 q 460 630 450 621 q 476 643 470 640 q 489 648 482 647 l 497 650 q 524 638 511 650 q 537 595 537 623 q 524 533 537 567 q 491 469 511 498 q 459 432 479 453 q 422 397 439 411 q 328 337 381 364 q 266 311 298 322 q 186 286 234 299 l 171 282 q 255 240 209 265 q 326 197 302 214 q 444 81 401 145 q 467 37 455 64 q 479 -3 479 10 q 476 -15 478 -9 q 465 -26 473 -21 q 454 -29 459 -29 m 886 -29 q 870 -22 878 -29 q 864 -14 867 -18 q 861 -3 862 -9 q 855 12 860 2 q 844 30 850 21 q 836 45 838 39 q 810 83 820 70 q 786 111 800 97 q 740 151 764 134 q 678 189 715 168 q 518 263 547 260 q 499 268 507 264 q 485 281 491 271 q 479 300 479 290 q 498 334 479 318 q 519 347 504 338 q 549 362 535 355 q 730 471 665 420 q 818 553 772 504 q 864 603 846 584 q 891 630 882 621 q 907 643 901 640 q 920 648 913 647 l 928 650 q 955 638 943 650 q 968 595 968 623 q 956 533 968 567 q 922 469 943 498 q 890 432 910 453 q 853 397 870 411 q 759 337 812 364 q 697 311 729 322 q 618 286 665 299 l 602 282 q 687 240 640 265 q 758 197 733 214 q 875 81 832 145 q 898 37 886 64 q 910 -3 910 10 q 907 -15 909 -9 q 897 -26 905 -21 q 886 -29 890 -29 z "},"":{"ha":546,"x_min":47,"x_max":498,"o":"m 469 169 q 454 175 462 169 l 446 182 l 446 262 q 445 320 446 300 q 443 351 444 340 q 437 377 441 363 l 437 378 l 431 378 q 416 376 427 377 q 393 374 406 375 q 380 374 386 374 q 323 369 347 372 q 258 361 299 367 q 196 354 218 355 q 143 352 174 352 q 100 353 114 352 q 75 359 85 355 q 47 396 52 371 l 47 401 q 67 441 47 424 q 96 453 76 448 q 164 465 116 458 q 230 472 203 470 q 300 473 256 473 l 332 473 q 438 470 409 473 q 481 452 468 466 q 498 417 498 439 l 497 406 q 495 356 496 401 q 492 208 494 311 q 490 187 492 194 q 483 175 489 180 q 469 169 476 169 z "},"":{"ha":806,"x_min":47,"x_max":759,"o":"m 491 410 q 473 412 481 410 q 374 511 414 435 l 366 524 q 362 507 366 522 q 357 473 359 492 q 353 446 355 456 q 351 431 352 436 q 348 424 349 426 q 345 419 347 421 q 328 412 337 412 q 301 425 314 412 q 272 484 283 444 q 254 600 262 524 q 248 699 248 667 q 251 732 248 721 q 262 750 254 743 q 288 763 274 763 l 292 763 q 330 735 315 763 q 350 605 342 706 q 352 584 351 593 q 353 575 353 575 q 355 579 354 575 q 358 591 357 584 q 392 681 372 638 q 429 741 412 724 q 444 750 436 747 q 462 753 451 753 q 475 752 471 753 q 485 749 479 751 q 529 667 524 728 l 530 661 q 483 576 530 609 q 463 565 477 572 q 436 551 450 557 q 417 543 422 545 l 412 541 q 435 496 422 519 q 458 460 448 473 q 474 447 464 454 q 491 437 484 440 q 504 435 498 435 q 534 448 519 435 q 547 455 542 455 q 550 454 549 455 q 556 445 556 450 q 534 421 556 434 q 491 410 511 410 m 382 579 q 389 583 383 579 q 404 592 395 587 q 436 619 427 608 q 446 648 445 630 l 447 662 q 446 679 447 670 q 445 693 446 688 q 441 699 444 699 q 434 693 439 699 q 422 681 428 688 q 406 651 415 671 q 389 611 397 631 q 380 582 380 587 q 382 579 380 579 m 414 209 l 412 209 q 392 210 403 209 q 374 211 380 210 q 252 250 311 220 q 60 486 111 326 q 47 585 47 532 q 52 650 47 618 q 143 831 73 762 q 210 869 180 868 l 218 869 q 225 868 222 869 q 231 865 228 867 l 241 861 q 320 905 267 886 q 359 914 340 911 q 408 916 378 916 l 421 916 q 460 914 444 916 q 500 905 477 911 q 730 713 661 859 q 759 559 759 649 q 724 407 759 473 q 595 262 679 315 q 414 209 511 209 m 457 270 q 488 271 472 270 q 513 274 503 272 q 580 298 546 281 q 724 509 701 360 q 726 551 726 527 q 723 597 726 578 q 674 719 711 659 q 587 817 637 779 q 448 877 523 865 l 428 879 l 399 879 q 370 877 380 878 q 345 873 359 876 q 306 863 321 868 q 277 852 291 859 q 264 847 270 849 q 257 844 259 845 q 255 843 256 844 q 254 839 254 842 l 255 829 q 245 799 255 814 q 238 787 244 795 q 224 768 232 778 q 202 735 210 747 q 187 709 194 722 q 157 583 157 648 q 163 526 157 555 q 250 357 181 425 q 432 271 325 282 q 457 270 443 270 z "},"":{"ha":436,"x_min":47,"x_max":389,"o":"m 111 712 q 88 713 96 712 q 47 753 47 723 q 58 782 47 772 q 86 795 69 791 q 122 802 103 800 q 172 806 138 803 q 244 811 207 808 q 305 815 281 814 l 336 817 q 353 815 347 817 q 366 810 359 814 q 389 775 387 800 l 389 773 q 370 739 389 752 q 351 730 363 733 q 319 726 339 727 q 294 724 298 725 q 261 721 290 723 q 199 717 233 719 q 146 713 165 715 q 111 712 124 712 z "},"":{"ha":379,"x_min":47,"x_max":332,"o":"m 190 644 q 170 646 180 644 q 60 744 94 664 q 47 818 47 778 q 58 888 47 854 q 155 994 87 969 q 183 998 169 998 l 184 998 q 248 961 229 998 q 248 960 248 960 q 249 959 248 960 q 249 959 249 959 l 257 955 q 320 885 298 933 q 332 817 332 854 q 330 787 332 802 q 269 673 318 715 q 190 644 231 644 m 214 722 q 223 723 219 722 q 233 727 227 724 q 279 807 271 749 l 279 812 q 274 846 279 827 q 263 880 270 865 q 252 897 259 888 q 238 911 244 905 q 213 890 227 899 q 185 869 194 878 q 171 848 177 861 q 161 802 161 827 q 170 756 161 779 q 212 722 184 722 l 214 722 z "},"":{"ha":731,"x_min":47,"x_max":684,"o":"m 362 197 q 349 199 357 197 q 342 202 347 201 q 336 207 338 204 q 323 233 328 214 q 315 292 318 252 l 309 344 q 307 363 308 352 q 304 385 305 375 q 304 393 304 389 q 302 412 304 404 l 62 409 q 58 413 60 411 q 50 421 53 417 q 47 433 47 425 l 48 437 q 61 454 50 448 q 63 455 62 455 q 66 456 64 456 q 75 457 69 456 q 89 457 80 457 q 111 458 98 458 q 144 459 125 458 q 191 459 164 459 l 298 460 q 298 473 298 466 q 294 566 294 519 q 300 667 294 633 q 353 716 314 716 q 410 638 397 716 q 414 551 414 608 q 413 496 414 525 l 412 461 l 617 463 q 663 461 650 463 q 680 455 677 460 q 684 443 684 451 q 682 433 684 438 q 676 422 681 427 q 672 419 674 420 q 664 417 669 418 q 649 416 659 416 q 621 415 639 416 q 576 414 604 415 l 442 413 l 409 413 q 406 373 408 399 q 404 322 405 347 q 403 290 403 297 l 401 252 q 396 221 400 233 q 378 201 391 208 q 362 197 369 197 m 357 89 l 276 89 q 216 89 241 89 q 173 89 191 89 q 143 90 155 90 q 124 91 131 90 q 114 92 117 91 q 109 93 111 92 q 106 94 107 93 q 95 111 96 100 q 104 128 95 121 q 113 134 108 132 q 131 136 119 136 q 168 138 143 137 q 264 139 189 138 q 422 139 340 139 q 539 139 488 139 q 597 138 590 138 q 621 117 617 133 l 621 114 q 607 94 621 102 q 605 93 606 93 q 600 92 604 92 q 589 91 596 92 q 571 91 583 91 q 541 90 559 90 q 497 90 523 90 q 437 89 471 90 q 357 89 402 89 z "},"":{"ha":95,"x_min":0,"x_max":0,"o":""},"":{"ha":95,"x_min":0,"x_max":0,"o":""},"":{"ha":283,"x_min":47,"x_max":236,"o":"m 79 712 q 71 713 75 712 q 63 716 66 714 q 55 723 59 719 q 47 744 47 732 q 55 768 47 755 q 77 798 61 779 q 106 832 93 818 q 153 886 141 869 q 173 908 163 902 q 196 915 182 915 q 225 903 214 915 q 236 874 236 890 q 233 857 236 865 q 202 810 227 842 q 155 753 178 778 q 115 724 136 735 q 79 712 94 712 z "},"":{"ha":95,"x_min":0,"x_max":0,"o":""},"":{"ha":597,"x_min":47,"x_max":549,"o":"m 378 68 q 370 68 374 68 q 364 69 366 68 q 347 85 353 73 q 343 91 345 87 q 342 99 342 94 q 341 115 342 104 q 341 117 341 116 l 338 163 q 336 195 337 174 q 335 241 336 217 q 332 309 334 275 q 332 334 332 323 l 330 373 q 330 375 330 374 q 327 375 329 375 q 319 376 324 376 q 305 376 314 376 q 281 376 296 376 q 222 378 241 376 q 171 388 203 380 q 120 402 140 394 q 83 424 100 411 q 70 437 75 430 q 59 456 64 444 q 50 482 53 469 q 47 513 47 494 q 55 556 47 537 q 79 598 62 575 q 155 655 103 629 q 309 690 202 678 q 332 693 324 692 q 342 695 339 694 q 348 699 346 696 q 361 706 355 704 q 375 708 367 708 q 385 707 381 708 q 395 703 389 706 l 405 699 q 435 699 424 699 q 458 700 451 699 q 469 703 465 701 q 490 710 478 710 l 494 711 l 498 710 q 545 667 533 707 q 549 587 549 643 l 549 564 q 540 273 545 403 q 530 115 534 142 q 517 89 527 97 q 493 80 505 80 q 471 89 481 80 q 457 113 460 97 q 450 209 454 123 q 449 240 450 224 q 447 269 448 257 q 446 308 446 280 q 444 368 445 336 q 442 443 443 400 q 441 519 441 486 q 439 591 439 565 q 440 627 439 612 q 441 645 441 637 q 443 660 442 658 q 442 662 443 661 q 439 664 441 663 q 432 664 437 664 q 431 664 431 664 l 419 664 q 421 648 420 659 q 422 616 422 638 q 422 552 422 594 q 420 336 422 456 q 415 167 418 216 l 412 117 q 411 100 412 106 q 409 91 410 94 q 406 85 408 88 q 378 68 397 68 m 250 405 q 294 406 272 405 q 323 407 316 406 l 330 408 l 330 534 q 330 571 330 554 q 329 600 330 587 q 329 622 329 612 q 329 637 329 631 q 329 648 329 644 q 328 654 328 652 q 328 657 328 656 q 327 659 328 659 q 326 659 327 659 q 306 656 323 659 q 267 650 288 653 q 132 597 185 633 q 104 572 117 586 q 85 545 91 557 q 73 500 73 522 q 87 457 73 477 q 123 427 98 439 q 161 414 140 418 q 213 406 182 409 q 250 405 225 405 z "},"":{"ha":214,"x_min":47,"x_max":165,"o":"m 107 271 q 98 272 103 271 q 89 274 93 273 q 47 342 50 291 q 48 357 47 351 q 54 371 50 363 q 106 405 71 404 q 159 371 140 405 q 164 357 163 363 q 165 340 165 351 q 148 289 165 307 q 107 271 131 271 z "},"":{"ha":239,"x_min":47,"x_max":191,"o":"m 115 -135 q 109 -134 112 -135 q 102 -133 106 -134 q 77 -115 87 -130 q 60 -69 60 -88 q 71 -54 60 -56 q 80 -68 79 -54 q 93 -90 80 -90 q 107 -85 99 -90 q 119 -62 119 -76 q 118 -52 119 -57 q 92 -26 113 -37 q 73 -15 79 -20 q 62 -2 67 -9 q 48 43 50 15 l 47 53 q 64 102 47 87 q 86 112 75 112 q 105 106 96 112 q 125 62 122 97 q 125 53 125 56 q 126 47 125 49 q 128 44 126 45 q 134 41 130 43 q 142 37 137 40 q 189 -20 180 18 q 191 -47 191 -31 q 189 -73 191 -62 q 127 -134 174 -123 l 115 -135 z "},"":{"ha":95,"x_min":0,"x_max":0,"o":""},"":{"ha":95,"x_min":0,"x_max":0,"o":""},"":{"ha":1016,"x_min":47,"x_max":969,"o":"m 87 -29 q 62 -18 74 -29 q 47 24 47 -2 q 60 87 47 52 q 95 151 73 121 q 126 188 106 168 q 163 223 146 209 q 258 283 204 256 q 319 310 288 298 q 399 334 351 321 l 414 338 q 330 380 376 355 q 259 422 283 406 q 142 539 184 475 q 119 584 130 557 q 107 624 107 611 q 109 636 107 630 q 120 646 111 642 q 131 650 125 650 q 146 642 139 650 q 155 624 154 635 q 161 609 156 618 q 172 590 166 600 q 181 575 178 581 q 207 536 197 550 q 231 509 217 523 q 277 469 252 487 q 338 431 301 452 q 499 357 470 360 q 532 339 519 357 q 538 320 538 330 q 519 286 538 302 q 500 276 513 283 q 474 262 487 269 q 467 258 470 260 q 287 150 352 199 q 199 68 245 117 q 195 64 197 66 q 151 17 168 35 q 124 -10 134 -1 q 109 -23 115 -19 q 96 -28 102 -26 q 87 -29 92 -29 m 519 -29 q 493 -18 505 -29 q 479 24 479 -2 q 492 87 479 52 q 526 151 505 121 q 557 188 538 168 q 595 223 577 209 q 689 283 635 256 q 750 310 719 298 q 830 334 782 321 l 846 338 q 761 380 808 355 q 690 422 715 406 q 573 539 615 475 q 550 584 562 557 q 538 624 538 611 q 541 636 538 630 q 551 646 543 642 q 562 650 557 650 q 578 642 570 650 q 587 624 585 635 q 592 609 587 618 q 603 590 597 600 q 612 575 609 581 q 638 536 628 550 q 663 509 648 523 q 708 469 684 487 q 770 431 732 452 q 930 357 901 360 q 963 339 951 357 q 969 320 969 330 q 950 286 969 302 q 931 276 945 283 q 905 262 918 269 q 899 258 901 260 q 718 150 783 199 q 630 68 676 117 q 627 64 628 66 q 582 17 599 35 q 556 -10 566 -1 q 540 -23 546 -19 q 528 -28 534 -26 q 519 -29 524 -29 z "},"":{"ha":614,"x_min":47,"x_max":567,"o":"m 505 0 q 486 5 494 0 q 473 16 478 10 q 464 31 469 22 q 460 44 461 37 q 457 66 458 52 q 454 109 456 81 q 454 121 454 116 l 401 123 l 372 122 l 350 121 q 328 124 336 121 q 312 134 319 127 q 298 165 298 147 q 319 229 298 189 q 345 280 328 249 q 378 339 361 311 q 404 378 395 367 q 452 406 427 406 q 477 397 465 406 q 489 386 482 395 q 498 364 495 378 q 515 368 507 368 q 533 364 526 368 q 566 307 560 353 q 567 277 567 298 q 566 207 567 248 q 562 132 564 166 q 558 89 560 98 l 555 66 q 552 45 554 53 q 546 28 551 37 q 538 16 543 21 q 528 7 534 12 q 505 0 517 0 m 452 179 q 453 221 452 197 q 455 263 454 245 q 426 216 440 239 q 401 181 411 194 q 437 179 417 180 l 452 179 m 117 14 q 104 16 112 14 q 77 40 85 22 q 73 60 73 49 q 79 89 73 73 q 116 160 85 104 q 188 293 146 217 l 258 419 q 435 715 391 663 q 488 751 462 748 l 494 752 q 503 750 499 752 q 512 744 507 748 q 526 711 526 732 l 524 697 q 511 652 522 679 q 474 578 500 625 q 423 484 451 534 q 329 321 395 434 l 271 222 q 239 167 258 199 q 202 105 220 135 q 189 83 195 93 q 156 33 168 47 q 129 15 143 19 q 125 14 126 15 q 117 14 120 14 m 107 349 q 93 351 101 349 q 51 402 65 359 q 48 414 49 407 q 47 439 47 422 l 48 482 q 54 619 48 575 q 73 682 59 663 q 125 710 92 710 q 187 655 170 710 q 190 642 189 648 q 191 626 191 636 q 191 597 191 616 q 189 542 191 564 q 180 473 187 520 q 165 403 173 425 q 142 366 158 380 q 107 349 127 349 z "},"":{"ha":624,"x_min":47,"x_max":576,"o":"m 349 28 q 337 30 342 28 q 321 47 326 35 q 319 60 319 54 q 323 79 319 69 q 359 130 334 96 q 417 267 408 193 q 419 290 419 281 q 417 307 419 302 q 414 312 415 312 q 409 313 412 313 q 399 311 405 313 q 389 306 393 309 q 376 284 382 300 q 369 255 370 269 q 361 236 369 244 q 347 229 354 229 q 332 234 340 229 q 325 245 326 239 q 323 260 323 252 q 362 353 323 317 q 417 387 386 376 q 447 393 432 393 q 512 366 482 393 q 541 320 532 349 q 545 303 544 311 q 547 282 547 296 l 547 273 q 545 244 547 257 q 538 216 543 231 q 514 165 529 187 q 469 113 499 142 q 440 84 454 97 q 500 85 469 85 l 540 86 q 554 85 549 86 q 562 83 559 85 q 567 80 564 82 q 576 62 576 72 q 569 44 576 51 q 547 38 561 38 l 526 39 q 467 37 504 39 q 399 33 430 35 q 361 29 368 31 q 349 28 355 28 m 92 14 q 86 14 90 14 q 79 16 83 15 q 52 40 60 22 q 47 59 47 48 q 54 89 47 73 q 91 160 60 104 q 163 293 121 217 l 233 419 q 410 715 366 663 q 463 751 436 748 l 469 752 q 478 750 474 752 q 487 744 482 748 q 500 711 500 732 l 499 697 q 486 652 497 679 q 450 578 475 625 q 398 484 427 534 q 304 321 370 434 l 246 222 q 207 154 230 194 q 164 83 183 115 q 131 33 143 47 q 104 15 118 19 q 100 14 102 15 q 92 14 96 14 m 143 349 q 129 351 137 349 q 87 402 101 359 q 84 414 85 407 q 83 439 83 422 l 84 482 q 90 619 84 575 q 109 682 95 663 q 160 710 129 710 l 161 710 q 223 655 205 710 q 226 642 225 648 q 227 626 227 636 q 227 597 227 616 q 225 542 227 564 q 216 473 223 520 q 201 403 209 425 q 178 366 194 380 q 143 349 163 349 z "},"":{"ha":735,"x_min":47,"x_max":688,"o":"m 157 328 q 138 329 146 328 q 71 356 90 336 q 57 376 64 363 q 49 401 51 389 q 47 417 47 408 q 53 448 47 433 q 73 463 60 461 l 75 463 q 92 456 84 463 q 98 441 98 448 q 94 427 98 433 q 94 421 94 425 q 96 407 94 414 q 102 395 98 399 l 109 395 q 157 419 132 399 q 185 465 185 442 l 185 470 l 175 468 q 160 466 168 466 q 114 494 131 466 q 110 506 111 500 q 109 524 109 513 q 110 544 109 538 q 115 559 111 551 q 126 583 119 572 q 148 614 133 594 q 172 659 172 646 l 171 663 q 170 664 171 663 q 169 665 170 665 q 165 667 168 666 l 161 667 q 123 650 146 667 q 110 634 117 645 q 98 615 102 623 q 91 603 95 608 q 79 595 86 597 l 75 594 q 62 598 69 594 q 51 617 51 608 q 52 626 51 622 q 54 631 53 629 q 94 687 66 659 q 112 703 104 697 q 130 713 119 708 q 174 726 153 726 q 191 724 182 726 q 253 690 229 719 q 279 615 279 660 q 252 529 279 570 l 253 528 q 286 490 275 513 q 298 442 298 467 q 281 386 298 414 q 198 331 251 342 q 157 328 179 328 m 192 14 q 180 16 187 14 q 151 40 161 22 q 148 60 148 49 q 154 89 148 73 q 191 160 161 104 q 263 293 221 217 l 333 419 q 510 715 466 663 q 563 751 536 748 l 568 752 q 578 750 574 752 q 587 744 583 748 q 600 709 600 732 l 600 697 q 586 652 597 679 q 549 578 574 625 q 498 484 526 534 q 404 321 469 434 l 346 222 q 306 154 330 193 q 264 83 283 115 q 231 33 243 47 q 203 15 218 19 q 200 14 202 15 q 192 14 196 14 m 625 0 q 606 5 614 0 q 594 16 599 10 q 585 31 589 22 q 581 44 582 37 q 578 66 579 52 q 575 109 576 81 l 574 121 l 521 123 l 492 122 l 471 121 q 448 124 456 121 q 433 134 440 127 q 419 165 419 147 q 439 229 419 189 q 465 280 448 249 q 499 339 482 311 q 524 378 516 367 q 572 406 547 406 q 597 397 585 406 q 609 386 603 395 q 618 364 616 378 q 635 368 627 368 q 654 364 646 368 q 686 307 682 353 q 688 273 688 298 q 686 204 688 244 q 683 131 685 163 q 679 89 681 98 l 676 66 q 673 45 675 53 q 667 28 671 37 q 659 16 663 21 q 648 7 655 12 q 625 0 637 0 m 572 179 q 573 221 572 197 q 575 263 574 245 q 546 216 561 239 q 522 181 531 194 q 558 179 538 180 l 572 179 z "},"":{"ha":564,"x_min":47,"x_max":517,"o":"m 241 829 q 255 827 249 829 l 263 825 q 266 824 264 825 q 271 821 268 823 q 279 814 274 819 q 302 761 302 791 q 294 726 302 743 q 268 702 286 710 q 243 696 256 696 q 222 700 233 696 q 189 739 197 711 q 185 764 185 751 q 190 793 185 781 q 241 829 209 829 m 240 680 q 253 677 246 680 q 287 612 287 662 q 281 570 287 593 q 259 504 273 538 q 217 410 245 469 q 173 303 186 345 q 160 222 160 262 q 180 139 160 173 q 236 92 200 105 q 265 87 250 87 q 313 97 287 87 q 458 234 420 136 q 466 264 464 251 q 468 304 468 277 q 468 306 468 305 q 468 327 468 319 q 466 341 467 335 q 463 355 465 347 q 434 441 454 400 q 434 442 434 441 q 425 460 428 454 q 422 471 422 467 q 425 481 422 476 q 443 492 432 491 l 446 492 q 462 486 455 492 q 472 469 465 481 q 485 444 479 457 q 494 425 492 431 q 510 366 502 406 q 517 301 517 332 q 488 184 517 238 q 373 67 446 102 q 336 51 357 59 q 298 38 314 43 q 279 35 288 35 q 247 34 269 34 q 215 35 224 34 q 197 38 206 35 q 51 199 79 73 q 47 241 47 218 q 51 283 47 265 q 65 331 56 305 q 85 377 75 357 l 115 427 q 117 429 116 428 q 136 463 129 451 q 148 482 144 475 q 155 496 152 490 q 170 537 162 511 q 182 586 178 563 q 190 620 185 602 q 199 648 195 639 q 240 680 215 680 z "},"":{"ha":562,"x_min":47,"x_max":515,"o":"m 125 -40 q 120 -39 123 -40 q 113 -34 115 -37 q 109 -27 110 -31 q 104 0 106 -22 q 102 77 102 22 l 102 165 l 74 165 q 61 166 66 165 q 52 173 56 168 q 47 186 47 179 q 54 199 47 193 q 65 207 58 205 q 87 210 73 209 l 104 211 q 104 220 104 216 q 138 608 115 435 q 216 911 167 806 q 273 968 237 954 q 286 971 279 970 q 299 972 294 972 q 303 972 301 972 q 318 972 309 972 q 335 968 327 971 q 437 861 402 945 q 467 760 454 823 q 493 577 479 696 q 511 273 507 462 q 512 205 511 243 q 514 140 513 168 l 515 94 q 513 59 515 71 q 506 32 511 47 q 475 -6 496 4 q 457 -9 466 -9 q 434 -4 446 -9 q 405 33 415 5 q 397 56 399 45 q 393 82 394 67 q 390 123 391 97 l 387 162 q 298 166 361 165 q 189 168 236 168 l 151 168 q 151 125 151 153 q 150 81 151 105 l 150 -20 q 136 -37 150 -31 q 125 -40 131 -40 m 385 209 l 382 259 q 362 458 375 368 q 327 658 350 549 q 302 766 312 728 q 283 821 292 804 q 269 848 275 839 q 200 686 227 818 q 161 354 174 554 l 152 214 l 204 214 q 309 212 254 214 q 385 209 365 210 m 353 1017 q 334 1021 345 1017 q 314 1030 322 1025 q 292 1047 306 1035 q 202 1164 228 1106 q 190 1207 190 1187 l 190 1214 q 194 1231 191 1224 q 203 1245 197 1238 q 229 1255 213 1255 l 235 1255 q 252 1252 244 1255 q 269 1241 260 1249 q 294 1216 277 1234 q 323 1182 311 1198 q 353 1137 334 1168 q 385 1080 372 1105 q 390 1068 389 1072 q 391 1055 391 1063 q 390 1043 391 1047 q 386 1035 389 1040 q 353 1017 374 1017 z "},"":{"ha":562,"x_min":47,"x_max":515,"o":"m 125 -40 q 120 -39 123 -40 q 113 -34 115 -37 q 109 -27 110 -31 q 104 0 106 -22 q 102 77 102 22 l 102 165 l 74 165 q 61 166 66 165 q 52 173 56 168 q 47 186 47 179 q 54 199 47 193 q 65 207 58 205 q 87 210 73 209 l 104 211 q 104 220 104 216 q 138 608 115 435 q 216 911 167 806 q 273 968 237 954 q 286 971 279 970 q 299 972 294 972 q 303 972 301 972 q 318 972 309 972 q 335 968 327 971 q 437 861 402 945 q 467 760 454 823 q 493 577 479 696 q 511 273 507 462 q 512 205 511 243 q 514 140 513 168 l 515 94 q 513 59 515 71 q 506 32 511 47 q 475 -6 496 4 q 457 -9 466 -9 q 434 -4 446 -9 q 405 33 415 5 q 397 56 399 45 q 393 82 394 67 q 390 123 391 97 l 387 162 q 298 166 361 165 q 189 168 236 168 l 151 168 q 151 125 151 153 q 150 81 151 105 l 150 -20 q 136 -37 150 -31 q 125 -40 131 -40 m 385 209 l 382 259 q 362 458 375 368 q 327 658 350 549 q 302 766 312 728 q 283 821 292 804 q 269 848 275 839 q 200 686 227 818 q 161 354 174 554 l 152 214 l 204 214 q 309 212 254 214 q 385 209 365 210 m 286 1017 q 279 1018 282 1017 q 270 1022 274 1019 q 262 1028 267 1024 q 255 1049 255 1038 q 262 1074 255 1061 q 284 1103 269 1084 q 313 1137 300 1123 q 360 1192 349 1175 q 380 1214 371 1207 q 404 1220 390 1220 q 433 1208 422 1220 q 444 1179 444 1195 q 440 1162 444 1171 q 410 1115 434 1147 q 362 1059 386 1083 q 323 1029 344 1040 q 286 1017 302 1017 z "},"":{"ha":562,"x_min":47,"x_max":515,"o":"m 125 -40 q 120 -39 123 -40 q 113 -34 115 -37 q 109 -27 110 -31 q 104 0 106 -22 q 102 77 102 22 l 102 165 l 74 165 q 61 166 66 165 q 52 173 56 168 q 47 186 47 179 q 54 199 47 193 q 65 207 58 205 q 87 210 73 209 l 104 211 q 104 220 104 216 q 138 608 115 435 q 216 911 167 806 q 273 968 237 954 q 286 971 279 970 q 299 972 294 972 q 303 972 301 972 q 318 972 309 972 q 335 968 327 971 q 437 861 402 945 q 467 760 454 823 q 493 577 479 696 q 511 273 507 462 q 512 205 511 243 q 514 140 513 168 l 515 94 q 513 59 515 71 q 506 32 511 47 q 475 -6 496 4 q 457 -9 466 -9 q 434 -4 446 -9 q 405 33 415 5 q 397 56 399 45 q 393 82 394 67 q 390 123 391 97 l 387 162 q 298 166 361 165 q 189 168 236 168 l 151 168 q 151 125 151 153 q 150 81 151 105 l 150 -20 q 136 -37 150 -31 q 125 -40 131 -40 m 385 209 l 382 259 q 362 458 375 368 q 327 658 350 549 q 302 766 312 728 q 283 821 292 804 q 269 848 275 839 q 200 686 227 818 q 161 354 174 554 l 152 214 l 204 214 q 309 212 254 214 q 385 209 365 210 m 487 983 q 474 986 481 983 q 458 1000 469 989 q 436 1023 447 1010 q 420 1042 425 1035 q 340 1174 383 1090 l 337 1180 q 252 1036 300 1079 q 221 1014 239 1025 q 192 998 204 1003 q 160 992 176 992 q 143 994 151 992 q 118 1011 128 999 q 109 1038 109 1023 q 113 1055 109 1045 q 123 1071 117 1064 q 133 1079 126 1074 q 145 1087 139 1084 q 149 1090 147 1088 q 255 1196 217 1133 q 268 1220 262 1208 q 281 1251 273 1231 q 291 1274 284 1259 q 306 1295 298 1288 q 323 1301 314 1301 q 340 1296 332 1301 q 350 1286 345 1293 q 361 1266 355 1279 l 382 1226 q 390 1211 386 1219 q 396 1198 394 1202 q 423 1147 401 1184 q 472 1070 445 1110 q 489 1044 482 1055 q 500 1028 496 1034 q 506 1018 504 1021 q 508 1013 507 1014 q 509 1010 509 1011 q 509 1010 509 1010 l 509 1006 q 500 987 509 995 q 487 983 494 983 z "},"":{"ha":562,"x_min":47,"x_max":515,"o":"m 125 -40 q 120 -39 123 -40 q 113 -34 115 -37 q 109 -27 110 -31 q 104 0 106 -22 q 102 77 102 22 l 102 165 l 74 165 q 61 166 66 165 q 52 173 56 168 q 47 186 47 179 q 54 199 47 193 q 65 207 58 205 q 87 210 73 209 l 104 211 q 104 220 104 216 q 138 608 115 435 q 216 911 167 806 q 273 968 237 954 q 286 971 279 970 q 299 972 294 972 q 303 972 301 972 q 318 972 309 972 q 335 968 327 971 q 437 861 402 945 q 467 760 454 823 q 493 577 479 696 q 511 273 507 462 q 512 205 511 243 q 514 140 513 168 l 515 94 q 513 59 515 71 q 506 32 511 47 q 475 -6 496 4 q 457 -9 466 -9 q 434 -4 446 -9 q 405 33 415 5 q 397 56 399 45 q 393 82 394 67 q 390 123 391 97 l 387 162 q 298 166 361 165 q 189 168 236 168 l 151 168 q 151 125 151 153 q 150 81 151 105 l 150 -20 q 136 -37 150 -31 q 125 -40 131 -40 m 385 209 l 382 259 q 362 458 375 368 q 327 658 350 549 q 302 766 312 728 q 283 821 292 804 q 269 848 275 839 q 200 686 227 818 q 161 354 174 554 l 152 214 l 204 214 q 309 212 254 214 q 385 209 365 210 m 376 1004 q 363 1005 370 1004 q 336 1014 350 1007 q 310 1031 321 1021 q 295 1048 304 1037 q 278 1070 286 1059 q 261 1091 269 1082 q 252 1102 254 1100 q 241 1109 247 1107 q 234 1112 236 1112 q 226 1100 232 1111 q 216 1067 220 1088 q 210 1045 215 1057 q 194 1034 205 1034 q 181 1041 186 1034 q 173 1056 176 1048 q 171 1066 171 1063 q 171 1066 171 1066 q 167 1107 167 1088 q 172 1153 167 1129 q 225 1223 182 1203 q 266 1233 245 1233 q 341 1198 307 1233 q 356 1178 350 1189 q 371 1151 363 1168 q 383 1127 378 1135 q 395 1113 388 1118 l 399 1109 q 405 1113 403 1110 q 409 1122 407 1115 q 414 1143 411 1128 q 419 1164 416 1154 q 423 1179 421 1175 q 428 1191 425 1185 q 442 1198 432 1197 l 444 1198 q 450 1198 447 1198 q 458 1194 454 1197 q 465 1181 463 1190 q 469 1156 467 1172 l 469 1122 q 454 1063 466 1093 q 427 1021 443 1034 q 376 1004 403 1004 z "},"":{"ha":562,"x_min":47,"x_max":515,"o":"m 125 -40 q 120 -39 123 -40 q 113 -34 115 -37 q 109 -27 110 -31 q 104 0 106 -22 q 102 77 102 22 l 102 165 l 74 165 q 61 166 66 165 q 52 173 56 168 q 47 186 47 179 q 54 199 47 193 q 65 207 58 205 q 87 210 73 209 l 104 211 q 104 220 104 216 q 138 608 115 435 q 216 911 167 806 q 273 968 237 954 q 286 971 279 970 q 299 972 294 972 q 303 972 301 972 q 318 972 309 972 q 335 968 327 971 q 437 861 402 945 q 467 760 454 823 q 493 577 479 696 q 511 273 507 462 q 512 205 511 243 q 514 140 513 168 l 515 94 q 513 59 515 71 q 506 32 511 47 q 475 -6 496 4 q 457 -9 466 -9 q 434 -4 446 -9 q 405 33 415 5 q 397 56 399 45 q 393 82 394 67 q 390 123 391 97 l 387 162 q 298 166 361 165 q 189 168 236 168 l 151 168 q 151 125 151 153 q 150 81 151 105 l 150 -20 q 136 -37 150 -31 q 125 -40 131 -40 m 385 209 l 382 259 q 362 458 375 368 q 327 658 350 549 q 302 766 312 728 q 283 821 292 804 q 269 848 275 839 q 200 686 227 818 q 161 354 174 554 l 152 214 l 204 214 q 309 212 254 214 q 385 209 365 210 m 246 1017 q 229 1019 237 1017 q 182 1079 190 1034 q 181 1092 181 1086 q 196 1136 181 1117 q 236 1159 211 1154 l 245 1160 q 292 1139 271 1160 q 312 1088 312 1116 q 302 1049 312 1067 q 272 1021 292 1031 q 246 1017 260 1017 m 381 1026 q 370 1027 376 1026 q 362 1027 365 1027 q 349 1036 356 1030 q 336 1047 341 1041 q 328 1067 330 1057 q 326 1097 326 1077 q 328 1128 326 1118 q 338 1149 331 1138 q 387 1174 356 1174 q 400 1173 396 1174 q 410 1170 405 1173 q 426 1158 418 1166 q 437 1142 434 1150 q 442 1117 442 1131 q 435 1080 442 1101 q 421 1048 429 1059 q 403 1031 414 1038 q 394 1028 398 1029 q 381 1026 390 1027 z "},"":{"ha":562,"x_min":47,"x_max":515,"o":"m 125 -40 q 120 -39 123 -40 q 113 -34 115 -37 q 109 -27 110 -31 q 104 0 106 -22 q 102 77 102 22 l 102 165 l 74 165 q 61 166 66 165 q 52 173 56 168 q 47 186 47 179 q 54 199 47 193 q 65 207 58 205 q 87 210 73 209 l 104 211 q 104 220 104 216 q 138 608 115 435 q 216 911 167 806 q 273 968 237 954 q 286 971 279 970 q 299 972 294 972 q 303 972 301 972 q 318 972 309 972 q 335 968 327 971 q 437 861 402 945 q 467 760 454 823 q 493 577 479 696 q 511 273 507 462 q 512 205 511 243 q 514 140 513 168 l 515 94 q 513 59 515 71 q 506 32 511 47 q 475 -6 496 4 q 457 -9 466 -9 q 434 -4 446 -9 q 405 33 415 5 q 397 56 399 45 q 393 82 394 67 q 390 123 391 97 l 387 162 q 298 166 361 165 q 189 168 236 168 l 151 168 q 151 125 151 153 q 150 81 151 105 l 150 -20 q 136 -37 150 -31 q 125 -40 131 -40 m 385 209 l 382 259 q 362 458 375 368 q 327 658 350 549 q 302 766 312 728 q 283 821 292 804 q 269 848 275 839 q 200 686 227 818 q 161 354 174 554 l 152 214 l 204 214 q 309 212 254 214 q 385 209 365 210 m 317 1008 q 298 1010 307 1008 q 222 1075 248 1023 q 208 1142 208 1107 q 219 1203 208 1173 q 251 1254 230 1232 q 321 1287 281 1285 l 326 1287 q 373 1273 354 1287 q 396 1236 392 1259 q 401 1222 397 1230 q 422 1150 422 1191 l 422 1147 q 387 1039 422 1076 q 317 1008 354 1008 m 338 1079 q 347 1082 342 1079 q 363 1098 355 1087 q 374 1121 370 1109 q 376 1137 376 1128 q 372 1163 376 1149 q 363 1185 369 1176 q 348 1181 356 1185 q 341 1179 344 1179 q 319 1146 325 1173 q 317 1132 317 1141 q 318 1114 317 1123 q 321 1099 319 1104 q 335 1080 327 1082 l 338 1079 z "},"":{"ha":935,"x_min":47,"x_max":887,"o":"m 385 209 l 382 259 q 362 458 375 368 q 327 658 350 549 q 302 766 312 728 q 283 821 292 804 q 269 848 275 839 q 200 686 227 818 q 161 354 174 554 l 152 214 l 204 214 q 309 212 254 214 q 385 209 365 210 m 515 90 q 513 60 515 71 q 506 32 511 47 q 475 -6 496 4 q 457 -9 466 -9 q 434 -4 446 -9 q 405 33 415 5 q 397 56 399 45 q 393 82 394 67 q 390 123 391 97 l 387 162 q 298 166 361 165 q 189 168 236 168 l 151 168 q 151 125 151 153 q 150 81 151 105 l 150 -20 q 136 -37 150 -31 q 125 -40 131 -40 q 120 -39 123 -40 q 113 -34 115 -37 q 109 -27 110 -31 q 104 0 106 -22 q 102 77 102 22 l 102 165 l 74 165 q 61 166 66 165 q 52 173 56 168 q 47 186 47 179 q 54 199 47 193 q 65 207 58 205 q 87 210 73 209 l 104 211 q 104 220 104 216 q 138 608 115 435 q 216 911 167 806 q 273 968 237 954 q 286 971 279 970 q 299 972 294 972 q 303 972 301 972 q 318 972 309 972 q 335 968 327 971 q 437 861 402 945 q 465 766 454 825 q 478 823 471 796 q 589 958 515 927 q 623 962 604 962 q 656 959 640 962 q 722 929 684 953 q 839 739 825 857 l 840 729 q 838 719 840 723 q 832 711 836 715 q 816 703 825 703 l 812 704 q 796 716 800 708 q 793 735 793 725 q 760 828 788 785 q 742 849 753 838 q 723 867 730 861 q 687 885 707 878 q 650 892 667 892 q 644 892 646 892 q 640 891 642 892 q 638 891 639 891 q 637 890 638 890 q 626 857 630 884 q 621 794 623 829 q 620 682 620 773 l 620 604 l 621 464 q 637 468 629 465 q 745 490 705 485 q 763 492 755 492 q 780 487 773 492 q 786 478 785 483 q 787 471 787 473 l 787 469 q 776 449 787 454 q 753 444 765 445 q 706 435 734 441 q 647 421 677 429 l 623 415 l 626 191 l 626 178 q 627 128 627 145 q 628 104 627 111 q 630 93 629 97 q 635 76 633 83 q 643 64 638 69 q 649 59 647 60 q 654 58 651 58 l 655 58 q 709 80 674 58 q 787 149 743 102 q 835 206 821 186 q 851 227 846 222 q 865 233 857 233 q 886 216 882 233 l 887 211 q 882 197 887 207 q 862 167 878 187 q 816 113 846 147 q 729 37 780 72 q 640 1 679 1 q 617 4 629 1 q 565 33 591 12 q 520 81 538 54 q 515 90 517 85 z "},"":{"ha":985,"x_min":52,"x_max":935,"o":"m 503 676 q 494 713 498 697 q 462 789 483 755 q 422 842 440 826 q 397 859 405 859 q 375 852 387 859 q 357 836 363 846 q 291 680 325 772 q 235 477 257 587 q 221 393 224 426 q 218 313 218 359 q 218 275 218 288 q 219 252 218 261 q 222 235 220 243 q 245 156 231 190 q 274 107 256 130 q 319 85 292 85 q 336 89 327 85 q 383 117 358 96 q 415 151 397 130 q 442 189 433 173 q 503 355 481 259 l 497 354 q 471 347 480 349 q 456 345 463 345 q 446 348 450 345 q 435 365 437 355 q 444 383 435 375 q 460 391 448 386 q 483 399 471 395 l 504 407 q 503 450 504 420 q 499 539 500 490 l 498 572 q 503 676 498 627 m 522 228 q 516 215 519 222 q 429 68 479 125 q 296 -7 363 -7 q 265 -3 281 -7 q 143 87 199 16 q 52 374 52 208 q 54 426 52 399 q 115 693 66 559 q 231 910 164 827 q 269 949 248 930 q 302 977 290 969 q 319 982 311 981 q 335 983 328 983 q 372 977 355 982 q 447 930 408 962 q 509 865 485 899 q 529 826 518 850 q 637 954 566 924 q 671 958 652 958 q 704 954 688 958 q 770 924 732 948 q 887 734 873 852 l 888 724 q 886 714 888 718 q 880 706 884 710 q 864 699 873 699 l 860 699 q 844 712 848 703 q 841 730 841 720 q 808 823 836 781 q 790 845 801 833 q 771 863 779 857 q 735 880 755 873 q 699 887 715 887 q 692 887 694 887 q 688 887 690 887 q 687 886 687 886 q 686 885 686 886 q 674 852 678 879 q 669 789 671 825 q 668 677 668 768 l 668 600 l 669 459 q 686 463 677 460 q 793 486 753 480 q 811 487 804 487 q 828 482 821 487 q 834 473 833 478 q 836 467 836 469 l 836 464 q 824 445 836 449 q 801 439 813 440 q 754 431 783 437 q 695 416 726 425 l 671 410 l 674 186 l 674 173 q 675 123 675 140 q 676 99 675 106 q 678 88 677 92 q 684 71 681 78 q 691 60 686 64 q 697 55 695 56 q 702 53 699 54 l 703 53 q 757 75 722 53 q 835 144 791 97 q 883 201 869 181 q 899 222 894 217 q 913 228 905 228 q 935 211 930 228 l 935 206 q 930 192 935 202 q 910 162 926 182 q 864 108 895 142 q 777 32 828 67 q 688 -3 727 -3 q 665 -1 677 -3 q 613 28 640 7 q 568 77 587 49 q 534 162 545 111 q 522 228 527 189 z "},"":{"ha":555,"x_min":47,"x_max":508,"o":"m 234 -1 q 176 33 208 7 q 121 90 142 59 q 95 138 107 111 q 74 192 82 166 q 47 412 47 289 q 48 456 47 434 q 79 701 54 600 q 176 916 115 853 q 249 970 214 958 q 273 973 260 973 q 387 908 330 973 q 461 765 433 849 l 461 764 q 462 763 462 764 q 466 752 463 760 q 475 721 471 739 q 479 687 479 703 q 471 661 479 670 q 456 656 466 656 q 441 659 450 656 q 402 782 429 723 q 340 878 375 841 q 330 887 333 884 q 322 891 326 890 q 309 892 317 892 q 305 892 307 892 q 301 891 303 892 q 298 891 299 891 l 298 890 q 270 828 289 881 q 236 705 252 776 q 203 494 216 610 q 191 289 191 377 l 192 244 q 201 159 194 192 q 224 96 209 125 q 264 55 239 67 q 288 50 275 50 q 309 53 298 50 q 425 189 370 77 q 459 279 450 240 q 468 307 463 298 q 484 318 473 317 l 487 318 q 504 309 498 318 q 508 295 508 302 q 507 283 508 290 q 479 198 500 248 q 437 113 459 149 q 315 5 382 25 q 309 3 312 4 q 310 -9 309 -3 q 311 -19 311 -16 q 311 -25 311 -23 q 314 -28 312 -27 q 319 -31 315 -29 q 328 -35 322 -32 q 374 -92 366 -54 q 377 -119 377 -103 q 374 -145 377 -134 q 312 -205 359 -195 l 300 -207 q 295 -206 298 -207 q 288 -205 292 -205 q 262 -186 273 -201 q 245 -141 245 -160 q 256 -126 245 -127 q 265 -140 264 -126 q 279 -161 265 -161 q 292 -157 284 -161 q 304 -134 304 -148 q 303 -123 304 -129 q 277 -98 298 -109 q 259 -86 265 -92 q 247 -74 252 -81 q 233 -29 235 -57 l 233 -19 q 234 -1 233 -9 z "},"":{"ha":595,"x_min":47,"x_max":547,"o":"m 300 1 q 277 4 290 1 q 225 33 252 12 q 180 81 199 54 q 145 166 157 116 q 125 312 134 217 l 120 361 l 109 359 q 83 351 92 353 q 68 349 75 349 q 58 353 62 349 q 47 370 49 359 q 56 388 47 380 q 72 395 60 391 q 95 404 83 400 l 116 412 q 115 455 116 425 q 111 544 112 494 l 111 577 q 138 823 111 723 q 250 958 175 927 q 283 962 264 962 q 316 959 300 962 q 382 929 345 953 q 499 739 486 857 l 500 729 q 498 719 500 723 q 492 711 496 715 q 476 703 486 703 l 472 704 q 456 716 460 708 q 453 735 453 725 q 420 828 448 785 q 402 849 413 838 q 383 867 391 861 q 348 885 368 878 q 311 892 328 892 q 304 892 307 892 q 300 891 302 892 q 299 891 299 891 q 298 890 298 890 q 287 857 290 884 q 281 794 283 829 q 280 682 280 773 l 280 604 l 281 464 q 298 468 289 465 q 405 490 365 485 q 423 492 416 492 q 440 487 433 492 q 446 478 445 483 q 448 471 448 473 l 448 469 q 436 449 448 454 q 413 444 425 445 q 366 435 395 441 q 307 421 338 429 l 283 415 l 286 191 q 286 178 286 184 q 287 128 287 145 q 288 104 288 111 q 290 93 289 97 q 296 76 293 83 q 303 64 298 69 q 309 59 307 60 q 314 58 311 58 q 315 58 315 58 q 369 80 334 58 q 447 149 404 102 q 495 206 481 186 q 511 227 506 222 q 525 233 517 233 q 547 216 543 233 l 547 211 q 543 197 547 207 q 522 167 538 187 q 476 113 507 147 q 389 37 440 72 q 300 1 339 1 m 336 1007 q 317 1010 328 1007 q 297 1020 305 1015 q 275 1037 289 1025 q 185 1154 211 1096 q 173 1197 173 1177 l 173 1204 q 177 1221 174 1214 q 186 1235 180 1228 q 212 1245 196 1245 l 218 1245 q 235 1241 227 1244 q 252 1231 243 1238 q 277 1206 260 1224 q 306 1172 294 1187 q 336 1126 317 1158 q 368 1069 355 1095 q 373 1058 372 1062 q 374 1045 374 1053 q 373 1033 374 1037 q 369 1025 372 1029 q 336 1007 357 1007 z "},"":{"ha":595,"x_min":47,"x_max":547,"o":"m 300 1 q 277 4 290 1 q 225 33 252 12 q 180 81 199 54 q 145 166 157 116 q 125 312 134 217 l 120 361 l 109 359 q 83 351 92 353 q 68 349 75 349 q 58 353 62 349 q 47 370 49 359 q 56 388 47 380 q 72 395 60 391 q 95 404 83 400 l 116 412 q 115 455 116 425 q 111 544 112 494 l 111 577 q 138 823 111 723 q 250 958 175 927 q 283 962 264 962 q 316 959 300 962 q 382 929 345 953 q 499 739 486 857 l 500 729 q 498 719 500 723 q 492 711 496 715 q 476 703 486 703 l 472 704 q 456 716 460 708 q 453 735 453 725 q 420 828 448 785 q 402 849 413 838 q 383 867 391 861 q 348 885 368 878 q 311 892 328 892 q 304 892 307 892 q 300 891 302 892 q 299 891 299 891 q 298 890 298 890 q 287 857 290 884 q 281 794 283 829 q 280 682 280 773 l 280 604 l 281 464 q 298 468 289 465 q 405 490 365 485 q 423 492 416 492 q 440 487 433 492 q 446 478 445 483 q 448 471 448 473 l 448 469 q 436 449 448 454 q 413 444 425 445 q 366 435 395 441 q 307 421 338 429 l 283 415 l 286 191 q 286 178 286 184 q 287 128 287 145 q 288 104 288 111 q 290 93 289 97 q 296 76 293 83 q 303 64 298 69 q 309 59 307 60 q 314 58 311 58 q 315 58 315 58 q 369 80 334 58 q 447 149 404 102 q 495 206 481 186 q 511 227 506 222 q 525 233 517 233 q 547 216 543 233 l 547 211 q 543 197 547 207 q 522 167 538 187 q 476 113 507 147 q 389 37 440 72 q 300 1 339 1 m 302 1004 q 295 1005 298 1004 q 287 1009 290 1006 q 279 1015 283 1011 q 271 1036 271 1025 q 279 1061 271 1048 q 301 1090 285 1071 q 330 1124 317 1110 q 376 1179 365 1162 q 397 1201 387 1194 q 420 1207 406 1207 q 449 1195 438 1207 q 460 1166 460 1182 q 456 1149 460 1158 q 426 1102 450 1134 q 378 1046 402 1070 q 339 1016 360 1027 q 302 1004 318 1004 z "},"":{"ha":595,"x_min":47,"x_max":547,"o":"m 300 1 q 277 4 290 1 q 225 33 252 12 q 180 81 199 54 q 145 166 157 116 q 125 312 134 217 l 120 361 l 109 359 q 83 351 92 353 q 68 349 75 349 q 58 353 62 349 q 47 370 49 359 q 56 388 47 380 q 72 395 60 391 q 95 404 83 400 l 116 412 q 115 455 116 425 q 111 544 112 494 l 111 577 q 138 823 111 723 q 250 958 175 927 q 283 962 264 962 q 316 959 300 962 q 382 929 345 953 q 499 739 486 857 l 500 729 q 498 719 500 723 q 492 711 496 715 q 476 703 486 703 l 472 704 q 456 716 460 708 q 453 735 453 725 q 420 828 448 785 q 402 849 413 838 q 383 867 391 861 q 348 885 368 878 q 311 892 328 892 q 304 892 307 892 q 300 891 302 892 q 299 891 299 891 q 298 890 298 890 q 287 857 290 884 q 281 794 283 829 q 280 682 280 773 l 280 604 l 281 464 q 298 468 289 465 q 405 490 365 485 q 423 492 416 492 q 440 487 433 492 q 446 478 445 483 q 448 471 448 473 l 448 469 q 436 449 448 454 q 413 444 425 445 q 366 435 395 441 q 307 421 338 429 l 283 415 l 286 191 q 286 178 286 184 q 287 128 287 145 q 288 104 288 111 q 290 93 289 97 q 296 76 293 83 q 303 64 298 69 q 309 59 307 60 q 314 58 311 58 q 315 58 315 58 q 369 80 334 58 q 447 149 404 102 q 495 206 481 186 q 511 227 506 222 q 525 233 517 233 q 547 216 543 233 l 547 211 q 543 197 547 207 q 522 167 538 187 q 476 113 507 147 q 389 37 440 72 q 300 1 339 1 m 475 968 q 463 971 469 968 q 446 985 457 974 q 425 1008 435 996 q 408 1027 414 1020 q 328 1159 372 1075 l 326 1165 q 240 1021 289 1064 q 210 999 227 1010 q 180 983 193 988 q 149 977 165 977 q 132 979 139 977 q 107 996 117 984 q 97 1023 97 1008 q 101 1040 97 1030 q 112 1056 106 1049 q 121 1064 115 1059 q 134 1072 127 1069 q 137 1075 136 1074 q 243 1181 205 1118 q 256 1205 251 1194 q 269 1236 262 1216 q 279 1259 273 1244 q 294 1280 286 1273 q 312 1286 302 1286 q 329 1281 321 1286 q 338 1271 334 1278 q 349 1251 343 1264 l 370 1211 q 378 1196 374 1204 q 385 1183 382 1187 q 411 1132 389 1169 q 460 1055 433 1095 q 477 1029 471 1040 q 488 1013 484 1019 q 494 1003 492 1006 q 496 998 496 999 q 497 995 497 996 q 497 995 497 995 l 497 991 q 488 972 497 980 q 475 968 483 968 z "},"":{"ha":595,"x_min":47,"x_max":547,"o":"m 300 1 q 277 4 290 1 q 225 33 252 12 q 180 81 199 54 q 145 166 157 116 q 125 312 134 217 l 120 361 l 109 359 q 83 351 92 353 q 68 349 75 349 q 58 353 62 349 q 47 370 49 359 q 56 388 47 380 q 72 395 60 391 q 95 404 83 400 l 116 412 q 115 455 116 425 q 111 544 112 494 l 111 577 q 138 823 111 723 q 250 958 175 927 q 283 962 264 962 q 316 959 300 962 q 382 929 345 953 q 499 739 486 857 l 500 729 q 498 719 500 723 q 492 711 496 715 q 476 703 486 703 l 472 704 q 456 716 460 708 q 453 735 453 725 q 420 828 448 785 q 402 849 413 838 q 383 867 391 861 q 348 885 368 878 q 311 892 328 892 q 304 892 307 892 q 300 891 302 892 q 299 891 299 891 q 298 890 298 890 q 287 857 290 884 q 281 794 283 829 q 280 682 280 773 l 280 604 l 281 464 q 298 468 289 465 q 405 490 365 485 q 423 492 416 492 q 440 487 433 492 q 446 478 445 483 q 448 471 448 473 l 448 469 q 436 449 448 454 q 413 444 425 445 q 366 435 395 441 q 307 421 338 429 l 283 415 l 286 191 q 286 178 286 184 q 287 128 287 145 q 288 104 288 111 q 290 93 289 97 q 296 76 293 83 q 303 64 298 69 q 309 59 307 60 q 314 58 311 58 q 315 58 315 58 q 369 80 334 58 q 447 149 404 102 q 495 206 481 186 q 511 227 506 222 q 525 233 517 233 q 547 216 543 233 l 547 211 q 543 197 547 207 q 522 167 538 187 q 476 113 507 147 q 389 37 440 72 q 300 1 339 1 m 241 1008 q 224 1010 231 1008 q 176 1070 184 1025 q 176 1083 176 1077 q 191 1127 176 1108 q 231 1150 205 1145 l 240 1152 q 286 1131 265 1152 q 307 1079 307 1107 q 296 1040 307 1059 q 267 1013 286 1022 q 241 1008 255 1008 m 376 1017 q 365 1018 370 1017 q 357 1019 359 1019 q 343 1027 351 1021 q 331 1038 336 1032 q 322 1058 325 1048 q 320 1088 320 1068 q 323 1119 320 1109 q 333 1140 326 1129 q 382 1165 351 1165 q 395 1164 391 1165 q 404 1161 399 1164 q 421 1149 413 1157 q 432 1133 429 1141 q 437 1108 437 1122 q 430 1072 437 1092 q 416 1039 423 1050 q 397 1023 408 1029 q 389 1019 393 1020 q 376 1017 385 1018 z "},"":{"ha":340,"x_min":30,"x_max":299,"o":"m 245 96 l 260 96 q 290 79 290 96 l 290 75 q 279 56 290 63 q 276 55 278 55 q 271 54 275 54 q 266 53 267 53 q 251 52 264 53 q 218 51 238 52 q 169 50 198 50 l 151 50 q 120 50 132 50 q 103 50 109 50 q 95 52 98 51 q 92 53 93 52 q 82 68 83 60 q 90 85 82 78 q 97 90 93 88 q 111 93 101 92 l 119 93 q 113 195 115 102 q 106 397 110 289 q 101 592 103 505 q 100 726 100 680 q 109 849 100 789 l 87 851 q 67 851 74 851 q 58 852 60 852 q 54 854 56 853 l 54 854 q 43 870 44 861 q 52 886 43 880 q 60 891 55 889 q 77 894 65 893 q 113 895 88 895 l 204 897 q 241 897 221 897 q 264 898 254 897 q 276 897 273 898 q 299 879 296 893 l 299 876 q 286 857 299 865 q 283 856 285 857 q 276 855 281 856 q 236 850 272 854 q 243 768 242 799 q 244 680 243 737 q 243 454 243 543 l 243 401 q 243 316 243 352 q 246 242 244 281 q 248 175 248 203 q 248 124 248 147 q 248 103 248 109 q 245 96 247 100 m 193 982 q 175 985 185 982 q 154 995 162 989 q 133 1012 146 1000 q 43 1128 68 1071 q 30 1172 30 1152 l 31 1179 q 34 1196 31 1189 q 43 1210 37 1203 q 69 1220 53 1220 l 75 1220 q 92 1216 85 1219 q 109 1206 100 1213 q 134 1181 117 1199 q 163 1147 151 1162 q 193 1101 174 1133 q 225 1044 212 1069 q 230 1033 229 1037 q 231 1020 231 1028 q 230 1008 231 1012 q 227 1000 229 1004 q 193 982 214 982 z "},"":{"ha":340,"x_min":43,"x_max":299,"o":"m 245 96 l 260 96 q 290 79 290 96 l 290 75 q 279 56 290 63 q 276 55 278 55 q 271 54 275 54 q 266 53 267 53 q 251 52 264 53 q 218 51 238 52 q 169 50 198 50 l 151 50 q 120 50 132 50 q 103 50 109 50 q 95 52 98 51 q 92 53 93 52 q 82 68 83 60 q 90 85 82 78 q 97 90 93 88 q 111 93 101 92 l 119 93 q 113 195 115 102 q 106 397 110 289 q 101 592 103 505 q 100 726 100 680 q 109 849 100 789 l 87 851 q 67 851 74 851 q 58 852 60 852 q 54 854 56 853 l 54 854 q 43 870 44 861 q 52 886 43 880 q 60 891 55 889 q 77 894 65 893 q 113 895 88 895 l 204 897 q 241 897 221 897 q 264 898 254 897 q 276 897 273 898 q 299 879 296 893 l 299 876 q 286 857 299 865 q 283 856 285 857 q 276 855 281 856 q 236 850 272 854 q 243 768 242 799 q 244 680 243 737 q 243 454 243 543 l 243 401 q 243 316 243 352 q 246 242 244 281 q 248 175 248 203 q 248 124 248 147 q 248 103 248 109 q 245 96 247 100 m 117 1011 q 110 1012 113 1011 q 101 1016 104 1013 q 94 1022 97 1018 q 85 1043 85 1031 q 94 1067 85 1055 q 115 1097 100 1078 q 144 1131 131 1117 q 191 1185 179 1168 q 211 1207 201 1201 q 235 1214 220 1214 q 264 1202 253 1214 q 274 1173 274 1189 q 271 1156 274 1164 q 240 1109 264 1141 q 193 1053 216 1077 q 153 1023 174 1034 q 117 1011 132 1011 z "},"":{"ha":340,"x_min":-27,"x_max":373,"o":"m 245 96 l 260 96 q 290 79 290 96 l 290 75 q 279 56 290 63 q 276 55 278 55 q 271 54 275 54 q 266 53 267 53 q 251 52 264 53 q 218 51 238 52 q 169 50 198 50 l 151 50 q 120 50 132 50 q 103 50 109 50 q 95 52 98 51 q 92 53 93 52 q 82 68 83 60 q 90 85 82 78 q 97 90 93 88 q 111 93 101 92 l 119 93 q 113 195 115 102 q 106 397 110 289 q 101 592 103 505 q 100 726 100 680 q 109 849 100 789 l 87 851 q 67 851 74 851 q 58 852 60 852 q 54 854 56 853 l 54 854 q 43 870 44 861 q 52 886 43 880 q 60 891 55 889 q 77 894 65 893 q 113 895 88 895 l 204 897 q 241 897 221 897 q 264 898 254 897 q 276 897 273 898 q 299 879 296 893 l 299 876 q 286 857 299 865 q 283 856 285 857 q 276 855 281 856 q 236 850 272 854 q 243 768 242 799 q 244 680 243 737 q 243 454 243 543 l 243 401 q 243 316 243 352 q 246 242 244 281 q 248 175 248 203 q 248 124 248 147 q 248 103 248 109 q 245 96 247 100 m 351 977 q 338 979 345 977 q 322 993 333 982 q 300 1016 311 1004 q 284 1035 290 1028 q 204 1167 248 1083 l 201 1173 q 116 1029 165 1072 q 86 1007 103 1019 q 56 991 68 996 q 24 985 41 985 q 7 987 15 985 q -17 1004 -7 992 q -27 1031 -27 1017 q -23 1048 -27 1038 q -12 1064 -18 1057 q -3 1072 -9 1067 q 9 1080 3 1077 q 13 1083 11 1082 q 119 1190 81 1126 q 132 1213 127 1202 q 145 1244 137 1224 q 155 1267 149 1253 q 170 1288 162 1281 q 188 1294 178 1294 q 205 1289 196 1294 q 214 1279 210 1286 q 225 1259 218 1272 l 246 1219 q 254 1204 250 1212 q 260 1191 258 1196 q 287 1140 265 1177 q 336 1063 309 1103 q 353 1038 347 1048 q 364 1021 360 1027 q 370 1011 368 1015 q 372 1006 372 1007 q 373 1003 373 1004 q 373 1003 373 1003 l 373 999 q 364 981 373 988 q 351 977 358 977 z "},"":{"ha":340,"x_min":38,"x_max":300,"o":"m 245 96 l 260 96 q 290 79 290 96 l 290 75 q 279 56 290 63 q 276 55 278 55 q 271 54 275 54 q 266 53 267 53 q 251 52 264 53 q 218 51 238 52 q 169 50 198 50 l 151 50 q 120 50 132 50 q 103 50 109 50 q 95 52 98 51 q 92 53 93 52 q 82 68 83 60 q 90 85 82 78 q 97 90 93 88 q 111 93 101 92 l 119 93 q 113 195 115 102 q 106 397 110 289 q 101 592 103 505 q 100 726 100 680 q 109 849 100 789 l 87 851 q 67 851 74 851 q 58 852 60 852 q 54 854 56 853 l 54 854 q 43 870 44 861 q 52 886 43 880 q 60 891 55 889 q 77 894 65 893 q 113 895 88 895 l 204 897 q 241 897 221 897 q 264 898 254 897 q 276 897 273 898 q 299 879 296 893 l 299 876 q 286 857 299 865 q 283 856 285 857 q 276 855 281 856 q 236 850 272 854 q 243 768 242 799 q 244 680 243 737 q 243 454 243 543 l 243 401 q 243 316 243 352 q 246 242 244 281 q 248 175 248 203 q 248 124 248 147 q 248 103 248 109 q 245 96 247 100 m 103 1009 q 87 1011 94 1009 q 39 1072 47 1026 q 38 1084 38 1078 q 53 1128 38 1109 q 94 1152 68 1147 l 102 1153 q 149 1132 127 1153 q 169 1080 169 1109 q 159 1042 169 1060 q 130 1014 149 1023 q 103 1009 117 1009 m 239 1019 q 228 1019 233 1019 q 220 1020 222 1020 q 205 1028 213 1023 q 194 1040 198 1034 q 185 1059 187 1049 q 183 1090 183 1069 q 186 1120 183 1110 q 196 1141 189 1131 q 245 1166 213 1166 q 258 1166 254 1166 q 267 1162 262 1165 q 283 1151 275 1158 q 295 1135 291 1143 q 300 1109 300 1124 q 293 1073 300 1093 q 278 1041 286 1051 q 260 1024 271 1030 q 251 1020 256 1021 q 239 1019 247 1019 z "},"":{"ha":570,"x_min":-43,"x_max":522,"o":"m 200 458 q 208 61 204 163 q 295 149 250 96 q 374 255 341 203 q 477 552 467 399 q 479 602 479 573 q 479 640 479 621 q 476 671 478 659 q 462 745 471 711 q 441 797 452 780 q 421 821 435 806 q 396 846 407 837 q 370 864 387 854 q 342 880 354 874 q 314 889 331 885 q 273 894 296 894 q 190 876 221 892 q 197 705 196 827 q 197 609 197 660 q 199 508 198 555 l 258 508 q 298 507 293 507 q 314 483 313 501 q 304 463 314 471 q 303 461 304 462 q 299 461 302 461 q 292 460 297 460 q 280 459 288 460 q 260 459 272 459 q 230 458 248 458 l 200 458 m 50 507 q 48 576 50 541 l 47 654 q 48 739 47 698 q 50 801 49 781 q 78 894 56 866 q 117 932 100 922 l 118 932 q 129 938 124 936 q 142 940 134 940 q 161 935 152 940 q 168 929 164 933 q 175 920 172 925 q 176 920 176 920 q 177 920 177 920 q 220 935 193 928 q 273 941 248 941 q 363 923 321 941 q 435 876 405 904 q 480 817 465 847 q 522 605 522 724 q 491 400 522 504 q 381 187 459 296 q 200 -3 291 63 q 180 -10 191 -10 q 127 35 163 -10 q 77 140 91 80 q 52 458 62 233 q 12 458 27 458 q -16 459 -7 458 q -30 460 -26 460 q -35 463 -34 461 q -43 479 -42 469 q -37 497 -43 490 q -31 503 -34 500 q -19 505 -27 505 q 7 507 -10 506 q 50 507 18 507 z "},"":{"ha":616,"x_min":56,"x_max":591,"o":"m 440 264 q 438 318 439 289 q 437 355 437 334 q 450 642 437 442 q 473 890 463 842 q 485 929 477 911 q 504 959 492 947 q 535 970 515 970 l 536 970 q 569 957 558 970 q 584 926 580 943 q 589 901 588 910 q 590 880 590 894 q 591 839 591 866 l 574 503 q 567 285 567 395 l 567 251 l 564 174 q 561 121 564 138 q 548 94 557 104 q 514 77 534 78 l 511 77 q 476 92 492 77 q 442 153 461 106 q 414 223 422 199 q 394 275 405 246 q 371 339 384 304 q 343 416 358 374 q 310 507 328 458 q 272 613 292 556 q 228 734 252 669 l 208 780 q 205 734 207 759 q 201 581 201 654 q 202 514 201 549 q 203 486 203 498 q 203 458 203 469 l 205 409 q 208 314 206 351 q 215 217 210 276 q 222 135 220 162 q 224 88 224 109 l 224 71 q 222 36 224 47 q 212 15 220 24 q 176 -1 197 -1 q 168 -1 172 -1 q 123 52 138 3 q 91 233 108 102 q 84 279 87 256 q 78 317 81 303 q 62 446 67 378 q 57 614 58 514 l 56 670 q 62 810 56 753 q 74 903 67 873 q 96 948 81 934 q 138 965 115 965 q 149 964 144 965 q 196 928 181 959 q 203 911 200 921 q 210 895 206 904 q 224 863 213 890 q 262 766 236 835 q 334 569 288 697 q 440 264 376 450 m 355 1002 q 342 1002 349 1002 q 315 1011 330 1004 q 290 1029 301 1019 q 275 1045 284 1034 q 258 1067 266 1057 q 241 1088 248 1080 q 232 1099 234 1097 q 221 1106 227 1104 q 214 1109 216 1109 q 206 1097 212 1108 q 196 1064 200 1086 q 190 1042 195 1054 q 174 1031 184 1031 q 160 1038 165 1031 q 153 1053 155 1045 q 151 1063 151 1061 q 151 1063 151 1063 q 146 1105 146 1085 q 152 1150 146 1126 q 205 1221 162 1200 q 245 1230 225 1230 q 321 1196 286 1230 q 336 1176 330 1186 q 351 1148 342 1165 q 363 1124 358 1133 q 374 1110 368 1116 l 378 1107 q 385 1110 382 1107 q 389 1119 387 1112 q 394 1141 391 1126 q 398 1161 396 1151 q 403 1177 401 1172 q 408 1188 404 1183 q 422 1196 412 1194 l 424 1196 q 430 1195 427 1196 q 437 1191 433 1194 q 445 1178 443 1187 q 448 1154 447 1169 l 449 1119 q 434 1061 446 1090 q 406 1018 422 1031 q 355 1002 382 1002 z "},"":{"ha":624,"x_min":52,"x_max":581,"o":"m 296 -7 q 265 -3 281 -7 q 143 87 199 16 q 52 374 52 208 q 54 426 52 399 q 115 693 66 559 q 231 910 164 827 q 269 949 248 930 q 302 977 290 969 q 319 982 311 981 q 335 983 328 983 q 372 977 355 982 q 447 930 408 962 q 509 865 485 899 q 534 816 520 846 q 555 762 547 786 q 581 553 581 668 l 581 530 q 516 215 578 358 q 429 68 479 125 q 296 -7 363 -7 m 319 85 q 336 89 327 85 q 383 117 358 96 q 415 151 397 130 q 442 189 433 173 q 513 411 492 279 q 517 500 517 445 q 513 605 517 559 q 494 713 505 672 q 462 789 483 755 q 422 842 440 826 q 397 859 405 859 q 375 852 387 859 q 357 836 363 846 q 291 680 325 772 q 235 477 257 587 q 221 393 224 426 q 218 313 218 359 q 218 275 218 288 q 219 252 218 261 q 222 235 220 243 q 245 156 231 190 q 274 107 256 130 q 319 85 292 85 m 290 1032 q 271 1036 281 1032 q 250 1045 258 1040 q 229 1062 242 1050 q 138 1179 164 1121 q 126 1222 126 1202 l 126 1229 q 130 1246 127 1239 q 139 1260 133 1253 q 165 1270 149 1270 l 171 1270 q 188 1266 180 1270 q 205 1256 196 1263 q 231 1231 214 1249 q 259 1197 248 1213 q 289 1152 270 1183 q 321 1095 308 1120 q 326 1083 325 1087 q 327 1070 327 1078 q 326 1058 327 1062 q 322 1050 326 1055 q 290 1032 311 1032 z "},"":{"ha":624,"x_min":52,"x_max":581,"o":"m 296 -7 q 265 -3 281 -7 q 143 87 199 16 q 52 374 52 208 q 54 426 52 399 q 115 693 66 559 q 231 910 164 827 q 269 949 248 930 q 302 977 290 969 q 319 982 311 981 q 335 983 328 983 q 372 977 355 982 q 447 930 408 962 q 509 865 485 899 q 534 816 520 846 q 555 762 547 786 q 581 553 581 668 l 581 530 q 516 215 578 358 q 429 68 479 125 q 296 -7 363 -7 m 319 85 q 336 89 327 85 q 383 117 358 96 q 415 151 397 130 q 442 189 433 173 q 513 411 492 279 q 517 500 517 445 q 513 605 517 559 q 494 713 505 672 q 462 789 483 755 q 422 842 440 826 q 397 859 405 859 q 375 852 387 859 q 357 836 363 846 q 291 680 325 772 q 235 477 257 587 q 221 393 224 426 q 218 313 218 359 q 218 275 218 288 q 219 252 218 261 q 222 235 220 243 q 245 156 231 190 q 274 107 256 130 q 319 85 292 85 m 253 1026 q 245 1027 249 1026 q 237 1030 241 1028 q 229 1037 233 1033 q 222 1058 222 1046 q 229 1082 222 1069 q 251 1112 235 1093 q 280 1146 267 1132 q 327 1200 315 1183 q 347 1222 338 1216 q 370 1229 357 1229 q 399 1217 389 1229 q 410 1188 410 1204 q 407 1171 410 1179 q 377 1124 401 1156 q 329 1067 353 1092 q 290 1038 311 1049 q 253 1026 269 1026 z "},"":{"ha":624,"x_min":52,"x_max":581,"o":"m 296 -7 q 265 -3 281 -7 q 143 87 199 16 q 52 374 52 208 q 54 426 52 399 q 115 693 66 559 q 231 910 164 827 q 269 949 248 930 q 302 977 290 969 q 319 982 311 981 q 335 983 328 983 q 372 977 355 982 q 447 930 408 962 q 509 865 485 899 q 534 816 520 846 q 555 762 547 786 q 581 553 581 668 l 581 530 q 516 215 578 358 q 429 68 479 125 q 296 -7 363 -7 m 319 85 q 336 89 327 85 q 383 117 358 96 q 415 151 397 130 q 442 189 433 173 q 513 411 492 279 q 517 500 517 445 q 513 605 517 559 q 494 713 505 672 q 462 789 483 755 q 422 842 440 826 q 397 859 405 859 q 375 852 387 859 q 357 836 363 846 q 291 680 325 772 q 235 477 257 587 q 221 393 224 426 q 218 313 218 359 q 218 275 218 288 q 219 252 218 261 q 222 235 220 243 q 245 156 231 190 q 274 107 256 130 q 319 85 292 85 m 493 1020 q 480 1023 487 1020 q 465 1036 475 1025 q 443 1059 454 1047 q 426 1078 432 1072 q 346 1211 390 1126 l 343 1217 q 258 1073 307 1116 q 228 1051 245 1062 q 198 1034 211 1040 q 166 1029 183 1029 q 149 1031 157 1029 q 125 1048 135 1036 q 115 1074 115 1060 q 119 1091 115 1082 q 130 1107 123 1101 q 139 1116 133 1111 q 151 1124 146 1120 q 155 1126 153 1125 q 261 1233 223 1170 q 274 1256 269 1245 q 287 1287 279 1267 q 297 1310 290 1296 q 312 1331 304 1324 q 330 1337 320 1337 q 347 1333 338 1337 q 356 1322 352 1329 q 367 1303 361 1316 l 388 1263 q 397 1247 393 1255 q 402 1234 401 1239 q 429 1184 408 1221 q 478 1107 451 1147 q 496 1081 489 1091 q 506 1064 503 1071 q 512 1054 510 1058 q 514 1049 513 1050 q 515 1046 515 1048 q 515 1046 515 1046 l 515 1042 q 506 1024 515 1031 q 493 1020 500 1020 z "},"":{"ha":624,"x_min":52,"x_max":581,"o":"m 296 -7 q 265 -3 281 -7 q 143 87 199 16 q 52 374 52 208 q 54 426 52 399 q 115 693 66 559 q 231 910 164 827 q 269 949 248 930 q 302 977 290 969 q 319 982 311 981 q 335 983 328 983 q 372 977 355 982 q 447 930 408 962 q 509 865 485 899 q 534 816 520 846 q 555 762 547 786 q 581 553 581 668 l 581 530 q 516 215 578 358 q 429 68 479 125 q 296 -7 363 -7 m 319 85 q 336 89 327 85 q 383 117 358 96 q 415 151 397 130 q 442 189 433 173 q 513 411 492 279 q 517 500 517 445 q 513 605 517 559 q 494 713 505 672 q 462 789 483 755 q 422 842 440 826 q 397 859 405 859 q 375 852 387 859 q 357 836 363 846 q 291 680 325 772 q 235 477 257 587 q 221 393 224 426 q 218 313 218 359 q 218 275 218 288 q 219 252 218 261 q 222 235 220 243 q 245 156 231 190 q 274 107 256 130 q 319 85 292 85 m 385 1032 q 372 1033 379 1032 q 345 1042 359 1035 q 319 1059 331 1049 q 304 1076 313 1065 q 288 1098 295 1087 q 271 1119 278 1110 q 262 1130 264 1128 q 251 1137 256 1135 q 243 1139 245 1139 q 235 1127 241 1139 q 226 1095 229 1116 q 219 1073 224 1084 q 203 1061 214 1061 q 190 1068 195 1061 q 183 1083 185 1076 q 180 1094 180 1091 q 180 1094 180 1094 q 176 1135 176 1116 q 182 1181 176 1157 q 235 1251 192 1231 q 275 1261 254 1261 q 351 1226 316 1261 q 366 1206 359 1217 q 380 1179 372 1196 q 392 1155 387 1163 q 404 1141 397 1146 l 408 1137 q 414 1140 412 1138 q 418 1149 416 1143 q 424 1171 420 1156 q 428 1192 426 1181 q 433 1207 431 1202 q 437 1219 433 1213 q 452 1226 441 1225 l 454 1226 q 459 1225 456 1226 q 467 1221 463 1225 q 475 1208 473 1217 q 478 1184 477 1200 l 479 1149 q 464 1091 475 1121 q 436 1048 452 1061 q 385 1032 412 1032 z "},"":{"ha":624,"x_min":52,"x_max":581,"o":"m 296 -7 q 265 -3 281 -7 q 143 87 199 16 q 52 374 52 208 q 54 426 52 399 q 115 693 66 559 q 231 910 164 827 q 269 949 248 930 q 302 977 290 969 q 319 982 311 981 q 335 983 328 983 q 372 977 355 982 q 447 930 408 962 q 509 865 485 899 q 534 816 520 846 q 555 762 547 786 q 581 553 581 668 l 581 530 q 516 215 578 358 q 429 68 479 125 q 296 -7 363 -7 m 319 85 q 336 89 327 85 q 383 117 358 96 q 415 151 397 130 q 442 189 433 173 q 513 411 492 279 q 517 500 517 445 q 513 605 517 559 q 494 713 505 672 q 462 789 483 755 q 422 842 440 826 q 397 859 405 859 q 375 852 387 859 q 357 836 363 846 q 291 680 325 772 q 235 477 257 587 q 221 393 224 426 q 218 313 218 359 q 218 275 218 288 q 219 252 218 261 q 222 235 220 243 q 245 156 231 190 q 274 107 256 130 q 319 85 292 85 m 250 1025 q 233 1027 240 1025 q 185 1087 193 1042 q 184 1100 184 1094 q 199 1144 184 1125 q 239 1167 214 1162 l 249 1168 q 295 1147 274 1168 q 315 1096 315 1124 q 305 1057 315 1076 q 275 1029 295 1039 q 250 1025 264 1025 m 385 1034 q 374 1035 379 1034 q 366 1036 368 1036 q 352 1044 359 1038 q 340 1055 345 1049 q 331 1075 334 1065 q 329 1105 329 1085 q 332 1136 329 1126 q 342 1157 334 1146 q 391 1182 359 1182 q 404 1181 399 1182 q 413 1178 408 1181 q 430 1166 422 1174 q 441 1150 437 1158 q 446 1125 446 1139 q 439 1088 446 1109 q 425 1056 432 1067 q 406 1040 417 1046 q 397 1036 401 1037 q 385 1034 393 1035 z "},"":{"ha":644,"x_min":47,"x_max":597,"o":"m 210 140 l 205 140 q 189 144 195 140 q 180 154 185 147 q 176 160 178 156 q 172 168 174 163 q 172 175 172 171 q 201 251 172 196 l 245 341 q 255 358 252 351 l 51 485 q 50 491 50 488 q 47 501 47 496 q 52 513 47 507 q 60 521 56 518 q 72 524 64 524 l 75 524 q 77 523 75 524 q 80 522 78 523 q 87 518 83 521 q 99 511 92 516 q 119 499 107 507 q 147 482 130 492 q 186 458 163 472 l 277 401 l 283 412 q 331 492 306 452 q 391 574 370 553 q 435 595 413 595 q 461 587 449 595 q 481 547 481 574 q 467 490 481 524 q 424 416 456 465 q 393 370 410 393 l 374 340 l 548 231 q 587 205 576 214 q 597 190 597 196 q 593 179 597 185 q 593 179 593 179 q 586 171 590 174 q 575 165 583 167 l 571 165 q 564 166 568 165 q 552 173 560 168 q 528 188 543 178 q 487 212 512 197 q 443 240 458 231 q 420 254 427 249 q 406 262 412 258 q 386 275 399 267 q 345 302 372 284 q 322 269 337 290 q 293 228 307 248 q 274 201 279 208 l 252 170 q 233 148 242 156 q 210 140 223 140 z "},"":{"ha":624,"x_min":52,"x_max":581,"o":"m 448 811 q 422 842 435 831 q 397 859 405 859 q 375 852 387 859 q 357 836 363 846 q 291 680 325 772 q 235 477 257 587 q 221 393 224 426 q 218 313 218 359 l 218 311 q 254 397 239 360 q 305 525 277 453 q 374 691 351 640 q 414 770 397 743 q 443 806 427 790 q 448 811 446 808 m 139 92 q 52 374 52 212 q 54 426 52 399 q 115 693 66 559 q 231 910 164 827 q 269 949 248 930 q 302 977 290 969 q 319 982 311 981 q 335 983 328 983 q 372 977 355 982 q 447 930 408 962 q 509 865 485 899 q 534 816 520 846 q 555 762 547 786 q 581 553 581 668 l 581 530 q 516 215 578 358 q 429 68 479 125 q 296 -7 363 -7 q 265 -3 281 -7 q 178 48 220 10 q 170 51 174 49 q 151 64 161 54 q 139 92 140 73 m 263 123 q 275 108 269 115 q 319 85 292 85 q 336 89 327 85 q 383 117 358 96 q 415 151 397 130 q 442 189 433 173 q 513 411 492 279 q 517 500 517 445 q 513 605 517 559 q 509 640 511 623 q 473 559 494 603 q 452 512 462 534 q 446 500 448 505 l 416 439 l 358 315 q 263 123 298 184 z "},"":{"ha":641,"x_min":47,"x_max":593,"o":"m 512 -1 q 490 4 501 -1 q 444 85 453 26 q 433 159 438 114 q 424 289 429 204 l 420 351 q 347 120 382 179 q 318 82 332 95 q 280 60 303 68 q 254 55 267 55 q 134 150 195 55 q 47 540 52 283 l 47 567 q 68 807 47 682 q 92 905 79 874 q 126 946 105 936 q 139 951 133 950 q 154 953 145 953 q 169 951 163 953 q 182 946 174 950 q 212 908 203 932 q 222 849 221 883 l 224 818 q 219 722 224 787 q 213 616 214 652 q 212 506 212 580 q 214 386 212 428 q 221 292 216 345 q 263 119 235 142 q 268 116 266 117 q 271 115 270 115 l 275 115 q 338 227 307 123 q 356 290 347 258 q 375 373 364 322 q 404 515 386 425 q 410 550 409 537 q 412 580 412 562 q 443 833 420 741 q 460 890 450 864 q 487 933 471 917 q 529 950 504 950 q 591 892 576 950 q 593 859 593 880 q 582 708 593 817 q 569 565 574 627 q 559 415 564 502 q 557 338 557 384 q 559 208 557 283 q 564 74 564 111 q 563 50 564 58 q 561 36 562 41 q 557 26 559 31 q 528 1 547 8 q 512 -1 520 -1 m 380 974 q 361 977 372 974 q 341 986 349 981 q 319 1004 333 991 q 229 1120 255 1063 q 217 1164 217 1144 l 217 1171 q 221 1188 218 1181 q 230 1202 224 1195 q 256 1212 240 1212 l 262 1212 q 279 1208 271 1211 q 296 1198 287 1205 q 321 1173 304 1191 q 350 1139 338 1154 q 380 1093 361 1125 q 412 1036 399 1061 q 417 1024 416 1029 q 418 1012 418 1020 q 417 1000 418 1004 q 413 991 416 996 q 380 974 401 974 z "},"":{"ha":641,"x_min":47,"x_max":593,"o":"m 512 -1 q 490 4 501 -1 q 444 85 453 26 q 433 159 438 114 q 424 289 429 204 l 420 351 q 347 120 382 179 q 318 82 332 95 q 280 60 303 68 q 254 55 267 55 q 134 150 195 55 q 47 540 52 283 l 47 567 q 68 807 47 682 q 92 905 79 874 q 126 946 105 936 q 139 951 133 950 q 154 953 145 953 q 169 951 163 953 q 182 946 174 950 q 212 908 203 932 q 222 849 221 883 l 224 818 q 219 722 224 787 q 213 616 214 652 q 212 506 212 580 q 214 386 212 428 q 221 292 216 345 q 263 119 235 142 q 268 116 266 117 q 271 115 270 115 l 275 115 q 338 227 307 123 q 356 290 347 258 q 375 373 364 322 q 404 515 386 425 q 410 550 409 537 q 412 580 412 562 q 443 833 420 741 q 460 890 450 864 q 487 933 471 917 q 529 950 504 950 q 591 892 576 950 q 593 859 593 880 q 582 708 593 817 q 569 565 574 627 q 559 415 564 502 q 557 338 557 384 q 559 208 557 283 q 564 74 564 111 q 563 50 564 58 q 561 36 562 41 q 557 26 559 31 q 528 1 547 8 q 512 -1 520 -1 m 340 989 q 333 990 336 989 q 325 994 328 991 q 317 1000 321 996 q 309 1021 309 1010 q 317 1046 309 1033 q 339 1076 323 1056 q 368 1109 355 1095 q 414 1164 403 1147 q 435 1186 425 1179 q 458 1192 444 1192 q 487 1180 476 1192 q 498 1152 498 1167 q 494 1135 498 1143 q 464 1087 488 1119 q 416 1031 440 1055 q 377 1001 398 1013 q 340 989 356 989 z "},"":{"ha":641,"x_min":47,"x_max":593,"o":"m 512 -1 q 490 4 501 -1 q 444 85 453 26 q 433 159 438 114 q 424 289 429 204 l 420 351 q 347 120 382 179 q 318 82 332 95 q 280 60 303 68 q 254 55 267 55 q 134 150 195 55 q 47 540 52 283 l 47 567 q 68 807 47 682 q 92 905 79 874 q 126 946 105 936 q 139 951 133 950 q 154 953 145 953 q 169 951 163 953 q 182 946 174 950 q 212 908 203 932 q 222 849 221 883 l 224 818 q 219 722 224 787 q 213 616 214 652 q 212 506 212 580 q 214 386 212 428 q 221 292 216 345 q 263 119 235 142 q 268 116 266 117 q 271 115 270 115 l 275 115 q 338 227 307 123 q 356 290 347 258 q 375 373 364 322 q 404 515 386 425 q 410 550 409 537 q 412 580 412 562 q 443 833 420 741 q 460 890 450 864 q 487 933 471 917 q 529 950 504 950 q 591 892 576 950 q 593 859 593 880 q 582 708 593 817 q 569 565 574 627 q 559 415 564 502 q 557 338 557 384 q 559 208 557 283 q 564 74 564 111 q 563 50 564 58 q 561 36 562 41 q 557 26 559 31 q 528 1 547 8 q 512 -1 520 -1 m 523 989 q 510 992 517 989 q 494 1006 505 995 q 472 1029 483 1017 q 456 1048 461 1041 q 376 1180 419 1096 l 373 1186 q 288 1042 336 1085 q 257 1020 275 1031 q 228 1004 240 1009 q 196 998 212 998 q 179 1000 186 998 q 154 1017 164 1005 q 144 1044 144 1029 q 149 1061 144 1051 q 159 1077 153 1070 q 169 1085 162 1080 q 181 1093 175 1090 q 184 1096 183 1095 q 291 1202 253 1139 q 304 1226 298 1215 q 317 1257 309 1237 q 327 1280 320 1265 q 342 1301 334 1294 q 359 1307 350 1307 q 376 1302 368 1307 q 386 1292 381 1299 q 397 1272 391 1285 l 418 1232 q 426 1217 422 1225 q 432 1204 430 1208 q 459 1153 437 1190 q 508 1076 481 1116 q 525 1050 518 1061 q 536 1034 532 1040 q 542 1024 540 1027 q 544 1019 543 1020 q 545 1016 545 1017 q 545 1016 545 1016 l 545 1012 q 536 994 545 1001 q 523 989 530 989 z "},"":{"ha":641,"x_min":47,"x_max":593,"o":"m 512 -1 q 490 4 501 -1 q 444 85 453 26 q 433 159 438 114 q 424 289 429 204 l 420 351 q 347 120 382 179 q 318 82 332 95 q 280 60 303 68 q 254 55 267 55 q 134 150 195 55 q 47 540 52 283 l 47 567 q 68 807 47 682 q 92 905 79 874 q 126 946 105 936 q 139 951 133 950 q 154 953 145 953 q 169 951 163 953 q 182 946 174 950 q 212 908 203 932 q 222 849 221 883 l 224 818 q 219 722 224 787 q 213 616 214 652 q 212 506 212 580 q 214 386 212 428 q 221 292 216 345 q 263 119 235 142 q 268 116 266 117 q 271 115 270 115 l 275 115 q 338 227 307 123 q 356 290 347 258 q 375 373 364 322 q 404 515 386 425 q 410 550 409 537 q 412 580 412 562 q 443 833 420 741 q 460 890 450 864 q 487 933 471 917 q 529 950 504 950 q 591 892 576 950 q 593 859 593 880 q 582 708 593 817 q 569 565 574 627 q 559 415 564 502 q 557 338 557 384 q 559 208 557 283 q 564 74 564 111 q 563 50 564 58 q 561 36 562 41 q 557 26 559 31 q 528 1 547 8 q 512 -1 520 -1 m 267 974 q 250 976 258 974 q 203 1036 211 991 q 202 1049 202 1043 q 217 1093 202 1074 q 257 1116 232 1112 l 267 1118 q 313 1097 292 1118 q 333 1045 333 1074 q 323 1006 333 1025 q 293 979 313 988 q 267 974 281 974 m 402 983 q 391 984 397 983 q 383 985 386 985 q 370 993 377 987 q 357 1004 362 998 q 349 1024 351 1014 q 347 1055 347 1034 q 349 1085 347 1075 q 359 1106 352 1095 q 408 1131 377 1131 q 421 1131 417 1131 q 431 1127 426 1130 q 447 1115 439 1123 q 458 1099 455 1107 q 463 1074 463 1088 q 456 1038 463 1058 q 442 1005 450 1016 q 424 989 435 995 q 415 985 419 986 q 402 983 411 984 z "},"":{"ha":646,"x_min":47,"x_max":599,"o":"m 258 9 q 238 12 248 9 q 164 67 191 24 q 150 96 157 77 q 138 125 142 114 q 135 144 136 132 q 134 165 134 156 l 134 176 q 151 195 139 190 q 159 196 155 196 q 173 191 167 196 q 180 180 179 186 q 182 163 182 174 q 206 98 182 125 q 224 83 215 90 q 239 74 233 76 q 245 73 242 73 q 292 99 262 73 q 408 325 368 170 q 431 444 423 385 q 443 596 439 503 q 445 666 444 622 q 446 746 446 710 l 446 774 q 361 610 416 729 q 248 401 300 474 q 208 358 224 367 q 195 353 201 354 q 181 351 190 352 q 180 351 180 351 q 165 353 171 351 q 152 357 159 354 q 70 482 104 387 q 53 554 58 518 q 47 645 47 589 l 47 670 q 69 860 47 783 q 97 933 80 907 q 146 960 114 960 l 147 960 q 191 940 173 960 q 208 908 202 928 q 213 848 213 889 q 203 675 213 792 q 203 665 203 670 q 198 610 201 639 q 193 562 195 582 q 187 456 187 493 q 190 415 187 427 q 201 427 195 419 q 205 431 203 429 q 322 641 252 484 q 418 817 384 775 q 427 831 420 819 q 435 842 431 836 q 455 867 446 858 q 477 879 464 876 q 492 881 484 881 q 542 863 517 881 q 596 736 581 829 q 598 711 597 726 q 599 663 599 696 q 597 598 599 623 q 591 537 596 573 q 533 287 574 401 q 421 101 496 183 q 296 16 363 39 q 258 9 278 9 m 316 949 q 309 950 312 949 q 300 954 304 951 q 292 960 296 956 q 285 981 285 970 q 292 1006 285 993 q 314 1036 298 1016 q 343 1069 330 1055 q 390 1124 378 1107 q 410 1146 401 1139 q 433 1152 420 1152 q 463 1140 452 1152 q 473 1112 473 1127 q 470 1095 473 1103 q 440 1047 464 1079 q 392 991 416 1015 q 353 961 374 972 q 316 949 332 949 z "},"":{"ha":646,"x_min":47,"x_max":599,"o":"m 258 9 q 238 12 248 9 q 164 67 191 24 q 150 96 157 77 q 138 125 142 114 q 135 144 136 132 q 134 165 134 156 l 134 176 q 151 195 139 190 q 159 196 155 196 q 173 191 167 196 q 180 180 179 186 q 182 163 182 174 q 206 98 182 125 q 224 83 215 90 q 239 74 233 76 q 245 73 242 73 q 292 99 262 73 q 408 325 368 170 q 431 444 423 385 q 443 596 439 503 q 445 666 444 622 q 446 746 446 710 l 446 774 q 361 610 416 729 q 248 401 300 474 q 208 358 224 367 q 195 353 201 354 q 181 351 190 352 q 180 351 180 351 q 165 353 171 351 q 152 357 159 354 q 70 482 104 387 q 53 554 58 518 q 47 645 47 589 l 47 670 q 69 860 47 783 q 97 933 80 907 q 146 960 114 960 l 147 960 q 191 940 173 960 q 208 908 202 928 q 213 848 213 889 q 203 675 213 792 q 203 665 203 670 q 198 610 201 639 q 193 562 195 582 q 187 456 187 493 q 190 415 187 427 q 201 427 195 419 q 205 431 203 429 q 322 641 252 484 q 418 817 384 775 q 427 831 420 819 q 435 842 431 836 q 455 867 446 858 q 477 879 464 876 q 492 881 484 881 q 542 863 517 881 q 596 736 581 829 q 598 711 597 726 q 599 663 599 696 q 597 598 599 623 q 591 537 596 573 q 533 287 574 401 q 421 101 496 183 q 296 16 363 39 q 258 9 278 9 m 297 977 q 280 979 288 977 q 233 1040 241 994 q 232 1053 232 1046 q 247 1096 232 1078 q 287 1120 262 1115 l 296 1121 q 342 1100 321 1121 q 363 1048 363 1077 q 353 1010 363 1028 q 323 982 342 991 q 297 977 311 977 m 432 987 q 421 987 427 987 q 413 988 416 988 q 399 996 407 991 q 387 1008 392 1002 q 379 1027 381 1017 q 376 1058 376 1038 q 379 1088 376 1078 q 389 1109 382 1099 q 438 1135 407 1135 q 451 1134 447 1135 q 460 1131 456 1133 q 477 1119 469 1126 q 488 1103 485 1111 q 493 1078 493 1092 q 486 1041 493 1061 q 472 1009 479 1019 q 454 992 465 998 q 445 988 449 989 q 432 987 441 987 z "},"":{"ha":676,"x_min":52,"x_max":633,"o":"m 219 -256 q 201 -251 210 -256 q 152 -189 177 -236 q 110 -92 127 -142 q 72 109 81 29 q 61 269 64 189 q 52 430 59 336 q 57 540 52 486 q 58 547 58 544 q 91 912 75 783 q 122 1097 106 1042 q 154 1168 138 1153 q 199 1190 174 1190 l 200 1190 q 241 1170 224 1188 q 258 1113 258 1156 q 250 1019 258 1080 q 223 664 232 783 q 211 492 214 546 q 208 395 208 438 l 207 357 q 211 193 207 282 q 215 251 213 224 q 220 327 218 304 q 258 557 235 469 q 393 845 306 761 q 424 871 410 862 q 454 884 437 880 q 471 886 463 886 q 485 886 480 886 q 488 886 486 886 q 500 885 493 886 q 514 881 507 884 q 562 851 538 872 q 601 803 585 829 q 632 692 626 760 q 633 651 633 676 q 632 593 633 623 q 629 546 631 564 q 591 394 617 458 q 503 258 560 312 q 411 201 463 219 q 397 197 403 199 q 386 195 392 196 q 368 195 379 195 q 368 195 368 195 q 347 195 355 195 q 332 199 338 196 q 298 213 319 203 q 262 233 277 224 l 254 -178 q 250 -223 252 -210 q 246 -239 248 -235 q 228 -254 240 -250 q 219 -256 223 -256 m 334 277 l 347 279 q 445 374 404 294 q 477 473 466 414 q 498 658 488 532 q 499 690 498 669 q 500 731 500 711 l 500 779 q 489 804 494 795 q 476 821 484 813 l 467 821 q 458 820 461 821 q 454 819 456 820 q 450 817 452 819 q 358 689 403 791 q 338 640 350 671 q 319 582 327 608 q 268 306 283 472 q 289 294 275 300 q 316 282 302 287 q 334 277 329 277 z "},"":{"ha":603,"x_min":47,"x_max":556,"o":"m 117 0 q 98 3 107 0 q 60 44 71 14 q 58 59 60 49 q 56 79 57 68 q 54 109 56 91 q 52 131 54 121 q 47 272 47 199 q 48 334 47 303 q 67 582 53 509 q 142 814 94 734 q 162 844 153 831 q 185 869 172 856 q 335 936 260 936 q 370 932 353 936 q 471 866 432 916 q 514 749 510 816 l 515 741 q 472 620 515 676 q 450 594 463 608 q 425 571 437 581 q 528 475 488 540 q 556 367 556 431 l 555 353 q 552 314 555 329 q 540 281 549 299 q 446 187 511 220 q 380 164 410 168 l 364 163 q 293 182 326 163 q 260 221 274 196 q 247 267 247 245 q 256 288 247 281 q 271 294 264 294 q 287 288 280 294 q 288 287 288 287 q 291 281 289 286 q 295 267 293 277 q 298 256 296 262 q 302 246 300 250 q 323 220 311 228 q 357 212 336 212 q 394 219 380 212 q 427 243 409 225 q 453 274 445 260 q 460 307 460 289 q 458 328 460 317 q 439 397 452 368 q 378 465 414 449 q 353 476 362 473 q 330 479 344 479 q 314 481 323 480 q 298 484 304 482 q 271 517 277 495 l 271 525 q 288 563 271 545 q 318 580 299 574 q 358 587 338 587 q 363 587 361 587 q 368 589 366 587 q 374 593 370 590 q 455 686 435 638 q 464 714 461 702 q 466 743 466 726 q 457 788 466 769 q 429 826 449 807 q 362 859 401 853 l 351 859 q 276 828 313 859 q 252 800 264 818 q 233 764 240 781 q 201 591 213 709 q 182 268 192 496 q 179 218 181 244 q 176 175 178 191 q 172 111 172 129 q 173 91 172 99 q 176 61 176 74 q 170 33 176 45 q 148 8 162 17 q 117 0 134 0 z "},"":{"ha":562,"x_min":47,"x_max":515,"o":"m 125 -40 q 120 -39 123 -40 q 112 -34 115 -37 q 109 -27 110 -31 q 104 0 106 -22 q 102 77 102 22 l 102 165 l 74 165 q 61 166 66 165 q 52 173 56 168 q 47 186 47 179 q 54 199 47 193 q 65 207 58 205 q 87 210 73 209 l 104 211 q 104 220 104 216 q 138 608 115 435 q 216 911 167 806 q 273 968 237 954 q 286 971 279 970 q 299 972 293 972 q 303 972 301 972 q 317 972 309 972 q 335 968 326 971 q 437 861 401 945 q 466 760 454 823 q 493 577 479 696 q 511 273 506 462 q 512 205 511 243 q 514 140 513 168 l 515 94 q 513 59 515 71 q 506 32 511 47 q 475 -6 496 4 q 456 -9 466 -9 q 434 -4 445 -9 q 405 33 414 5 q 397 56 399 45 q 392 82 394 67 q 390 123 391 97 l 387 162 q 298 166 360 165 q 189 168 235 168 l 151 168 q 150 125 151 153 q 150 81 150 105 l 150 -20 q 136 -37 150 -31 q 125 -40 131 -40 m 385 209 l 382 259 q 362 458 374 368 q 327 658 349 549 q 301 766 312 728 q 283 821 291 804 q 268 848 275 839 q 200 686 227 818 q 161 354 173 554 l 152 214 l 203 214 q 309 212 253 214 q 385 209 365 210 m 353 1017 q 334 1021 345 1017 q 314 1030 322 1025 q 292 1047 305 1035 q 202 1164 228 1106 q 190 1207 190 1187 l 190 1214 q 193 1231 191 1224 q 203 1245 196 1238 q 229 1255 212 1255 l 235 1255 q 252 1252 244 1255 q 269 1241 259 1249 q 294 1216 277 1234 q 323 1182 311 1198 q 352 1137 333 1168 q 385 1080 371 1105 q 390 1068 389 1072 q 391 1055 391 1063 q 390 1043 391 1047 q 386 1035 389 1040 q 353 1017 374 1017 z "},"":{"ha":562,"x_min":47,"x_max":515,"o":"m 125 -40 q 120 -39 123 -40 q 112 -34 115 -37 q 109 -27 110 -31 q 104 0 106 -22 q 102 77 102 22 l 102 165 l 74 165 q 61 166 66 165 q 52 173 56 168 q 47 186 47 179 q 54 199 47 193 q 65 207 58 205 q 87 210 73 209 l 104 211 q 104 220 104 216 q 138 608 115 435 q 216 911 167 806 q 273 968 237 954 q 286 971 279 970 q 299 972 293 972 q 303 972 301 972 q 317 972 309 972 q 335 968 326 971 q 437 861 401 945 q 466 760 454 823 q 493 577 479 696 q 511 273 506 462 q 512 205 511 243 q 514 140 513 168 l 515 94 q 513 59 515 71 q 506 32 511 47 q 475 -6 496 4 q 456 -9 466 -9 q 434 -4 445 -9 q 405 33 414 5 q 397 56 399 45 q 392 82 394 67 q 390 123 391 97 l 387 162 q 298 166 360 165 q 189 168 235 168 l 151 168 q 150 125 151 153 q 150 81 150 105 l 150 -20 q 136 -37 150 -31 q 125 -40 131 -40 m 385 209 l 382 259 q 362 458 374 368 q 327 658 349 549 q 301 766 312 728 q 283 821 291 804 q 268 848 275 839 q 200 686 227 818 q 161 354 173 554 l 152 214 l 203 214 q 309 212 253 214 q 385 209 365 210 m 286 1017 q 279 1018 282 1017 q 270 1022 273 1019 q 262 1028 267 1024 q 255 1049 255 1038 q 262 1074 255 1061 q 284 1103 269 1084 q 313 1137 300 1123 q 360 1192 349 1175 q 380 1214 370 1207 q 404 1220 390 1220 q 433 1208 422 1220 q 443 1179 443 1195 q 440 1162 443 1171 q 409 1115 433 1147 q 362 1059 385 1083 q 322 1029 343 1040 q 286 1017 301 1017 z "},"":{"ha":562,"x_min":47,"x_max":515,"o":"m 125 -40 q 120 -39 123 -40 q 112 -34 115 -37 q 109 -27 110 -31 q 104 0 106 -22 q 102 77 102 22 l 102 165 l 74 165 q 61 166 66 165 q 52 173 56 168 q 47 186 47 179 q 54 199 47 193 q 65 207 58 205 q 87 210 73 209 l 104 211 q 104 220 104 216 q 138 608 115 435 q 216 911 167 806 q 273 968 237 954 q 286 971 279 970 q 299 972 293 972 q 303 972 301 972 q 317 972 309 972 q 335 968 326 971 q 437 861 401 945 q 466 760 454 823 q 493 577 479 696 q 511 273 506 462 q 512 205 511 243 q 514 140 513 168 l 515 94 q 513 59 515 71 q 506 32 511 47 q 475 -6 496 4 q 456 -9 466 -9 q 434 -4 445 -9 q 405 33 414 5 q 397 56 399 45 q 392 82 394 67 q 390 123 391 97 l 387 162 q 298 166 360 165 q 189 168 235 168 l 151 168 q 150 125 151 153 q 150 81 150 105 l 150 -20 q 136 -37 150 -31 q 125 -40 131 -40 m 385 209 l 382 259 q 362 458 374 368 q 327 658 349 549 q 301 766 312 728 q 283 821 291 804 q 268 848 275 839 q 200 686 227 818 q 161 354 173 554 l 152 214 l 203 214 q 309 212 253 214 q 385 209 365 210 m 486 983 q 473 986 480 983 q 458 1000 469 989 q 436 1023 447 1010 q 419 1042 425 1035 q 339 1174 382 1090 l 336 1180 q 251 1036 300 1079 q 221 1014 238 1025 q 191 998 204 1003 q 159 992 176 992 q 142 994 151 992 q 118 1011 128 999 q 108 1038 108 1023 q 112 1055 108 1045 q 123 1071 117 1064 q 132 1079 126 1074 q 144 1087 138 1084 q 148 1090 146 1088 q 254 1196 216 1133 q 267 1220 262 1208 q 280 1251 273 1231 q 290 1274 283 1259 q 305 1295 297 1288 q 323 1301 313 1301 q 340 1296 332 1301 q 349 1286 345 1293 q 360 1266 354 1279 l 381 1226 q 390 1211 386 1219 q 395 1198 394 1202 q 422 1147 401 1184 q 471 1070 444 1110 q 489 1044 482 1055 q 499 1028 495 1034 q 505 1018 503 1021 q 507 1013 507 1014 q 508 1010 508 1011 q 508 1010 508 1010 l 509 1006 q 499 987 509 995 q 486 983 494 983 z "},"":{"ha":562,"x_min":47,"x_max":515,"o":"m 125 -40 q 120 -39 123 -40 q 112 -34 115 -37 q 109 -27 110 -31 q 104 0 106 -22 q 102 77 102 22 l 102 165 l 74 165 q 61 166 66 165 q 52 173 56 168 q 47 186 47 179 q 54 199 47 193 q 65 207 58 205 q 87 210 73 209 l 104 211 q 104 220 104 216 q 138 608 115 435 q 216 911 167 806 q 273 968 237 954 q 286 971 279 970 q 299 972 293 972 q 303 972 301 972 q 317 972 309 972 q 335 968 326 971 q 437 861 401 945 q 466 760 454 823 q 493 577 479 696 q 511 273 506 462 q 512 205 511 243 q 514 140 513 168 l 515 94 q 513 59 515 71 q 506 32 511 47 q 475 -6 496 4 q 456 -9 466 -9 q 434 -4 445 -9 q 405 33 414 5 q 397 56 399 45 q 392 82 394 67 q 390 123 391 97 l 387 162 q 298 166 360 165 q 189 168 235 168 l 151 168 q 150 125 151 153 q 150 81 150 105 l 150 -20 q 136 -37 150 -31 q 125 -40 131 -40 m 385 209 l 382 259 q 362 458 374 368 q 327 658 349 549 q 301 766 312 728 q 283 821 291 804 q 268 848 275 839 q 200 686 227 818 q 161 354 173 554 l 152 214 l 203 214 q 309 212 253 214 q 385 209 365 210 m 375 1004 q 362 1005 369 1004 q 335 1014 350 1007 q 309 1031 321 1021 q 295 1048 304 1037 q 277 1070 286 1059 q 261 1091 269 1082 q 252 1102 254 1100 q 241 1109 246 1107 q 233 1112 235 1112 q 225 1100 231 1111 q 216 1067 220 1088 q 210 1045 214 1057 q 193 1034 205 1034 q 180 1041 185 1034 q 173 1056 176 1048 q 170 1066 171 1063 q 170 1066 170 1066 q 167 1107 167 1088 q 172 1153 167 1129 q 224 1223 182 1203 q 266 1233 245 1233 q 340 1198 307 1233 q 356 1178 349 1189 q 370 1151 363 1168 q 383 1127 378 1135 q 394 1113 388 1118 l 398 1109 q 405 1113 402 1110 q 409 1122 407 1115 q 414 1143 411 1128 q 418 1164 416 1154 q 422 1179 421 1175 q 428 1191 424 1185 q 441 1198 431 1197 l 444 1198 q 450 1198 446 1198 q 457 1194 454 1197 q 465 1181 463 1190 q 468 1156 467 1172 l 469 1122 q 454 1063 465 1093 q 426 1021 443 1034 q 375 1004 403 1004 z "},"":{"ha":562,"x_min":47,"x_max":515,"o":"m 125 -40 q 120 -39 123 -40 q 112 -34 115 -37 q 109 -27 110 -31 q 104 0 106 -22 q 102 77 102 22 l 102 165 l 74 165 q 61 166 66 165 q 52 173 56 168 q 47 186 47 179 q 54 199 47 193 q 65 207 58 205 q 87 210 73 209 l 104 211 q 104 220 104 216 q 138 608 115 435 q 216 911 167 806 q 273 968 237 954 q 286 971 279 970 q 299 972 293 972 q 303 972 301 972 q 317 972 309 972 q 335 968 326 971 q 437 861 401 945 q 466 760 454 823 q 493 577 479 696 q 511 273 506 462 q 512 205 511 243 q 514 140 513 168 l 515 94 q 513 59 515 71 q 506 32 511 47 q 475 -6 496 4 q 456 -9 466 -9 q 434 -4 445 -9 q 405 33 414 5 q 397 56 399 45 q 392 82 394 67 q 390 123 391 97 l 387 162 q 298 166 360 165 q 189 168 235 168 l 151 168 q 150 125 151 153 q 150 81 150 105 l 150 -20 q 136 -37 150 -31 q 125 -40 131 -40 m 385 209 l 382 259 q 362 458 374 368 q 327 658 349 549 q 301 766 312 728 q 283 821 291 804 q 268 848 275 839 q 200 686 227 818 q 161 354 173 554 l 152 214 l 203 214 q 309 212 253 214 q 385 209 365 210 m 245 1017 q 229 1019 237 1017 q 182 1079 190 1034 q 181 1092 181 1086 q 196 1136 181 1117 q 236 1159 211 1154 l 245 1160 q 292 1139 271 1160 q 311 1088 311 1116 q 301 1049 311 1067 q 272 1021 292 1031 q 245 1017 260 1017 m 381 1026 q 370 1027 376 1026 q 362 1027 365 1027 q 349 1036 356 1030 q 336 1047 341 1041 q 328 1067 330 1057 q 326 1097 326 1077 q 328 1128 326 1118 q 338 1149 331 1138 q 387 1174 356 1174 q 400 1173 396 1174 q 410 1170 405 1173 q 426 1158 418 1166 q 437 1142 434 1150 q 442 1117 442 1131 q 435 1080 442 1101 q 421 1048 428 1059 q 403 1031 414 1038 q 394 1028 398 1029 q 381 1026 389 1027 z "},"":{"ha":562,"x_min":47,"x_max":515,"o":"m 125 -40 q 120 -39 123 -40 q 112 -34 115 -37 q 109 -27 110 -31 q 104 0 106 -22 q 102 77 102 22 l 102 165 l 74 165 q 61 166 66 165 q 52 173 56 168 q 47 186 47 179 q 54 199 47 193 q 65 207 58 205 q 87 210 73 209 l 104 211 q 104 220 104 216 q 138 608 115 435 q 216 911 167 806 q 273 968 237 954 q 286 971 279 970 q 299 972 293 972 q 303 972 301 972 q 317 972 309 972 q 335 968 326 971 q 437 861 401 945 q 466 760 454 823 q 493 577 479 696 q 511 273 506 462 q 512 205 511 243 q 514 140 513 168 l 515 94 q 513 59 515 71 q 506 32 511 47 q 475 -6 496 4 q 456 -9 466 -9 q 434 -4 445 -9 q 405 33 414 5 q 397 56 399 45 q 392 82 394 67 q 390 123 391 97 l 387 162 q 298 166 360 165 q 189 168 235 168 l 151 168 q 150 125 151 153 q 150 81 150 105 l 150 -20 q 136 -37 150 -31 q 125 -40 131 -40 m 385 209 l 382 259 q 362 458 374 368 q 327 658 349 549 q 301 766 312 728 q 283 821 291 804 q 268 848 275 839 q 200 686 227 818 q 161 354 173 554 l 152 214 l 203 214 q 309 212 253 214 q 385 209 365 210 m 316 1008 q 298 1010 307 1008 q 222 1075 248 1023 q 208 1142 208 1107 q 218 1203 208 1173 q 250 1254 229 1232 q 321 1287 281 1285 l 326 1287 q 373 1273 354 1287 q 395 1236 392 1259 q 401 1222 396 1230 q 421 1150 421 1191 l 421 1147 q 386 1039 421 1076 q 316 1008 354 1008 m 338 1079 q 346 1082 341 1079 q 362 1098 355 1087 q 374 1121 370 1109 q 376 1137 376 1128 q 372 1163 376 1149 q 362 1185 368 1176 q 348 1181 355 1185 q 340 1179 344 1179 q 318 1146 324 1173 q 317 1132 317 1141 q 318 1114 317 1123 q 321 1099 319 1104 q 334 1080 327 1082 l 338 1079 z "},"":{"ha":935,"x_min":47,"x_max":887,"o":"m 385 209 l 382 259 q 362 458 375 368 q 327 658 350 549 q 302 766 312 728 q 283 821 292 804 q 269 848 275 839 q 200 686 227 818 q 161 354 174 554 l 152 214 l 204 214 q 309 212 254 214 q 385 209 365 210 m 515 90 q 513 60 515 71 q 506 32 511 47 q 475 -6 496 4 q 457 -9 466 -9 q 434 -4 446 -9 q 405 33 415 5 q 397 56 399 45 q 393 82 394 67 q 390 123 391 97 l 387 162 q 298 166 361 165 q 189 168 236 168 l 151 168 q 151 125 151 153 q 150 81 151 105 l 150 -20 q 136 -37 150 -31 q 125 -40 131 -40 q 120 -39 123 -40 q 113 -34 115 -37 q 109 -27 110 -31 q 104 0 106 -22 q 102 77 102 22 l 102 165 l 74 165 q 61 166 66 165 q 52 173 56 168 q 47 186 47 179 q 54 199 47 193 q 65 207 58 205 q 87 210 73 209 l 104 211 q 104 220 104 216 q 138 608 115 435 q 216 911 167 806 q 273 968 237 954 q 286 971 279 970 q 299 972 294 972 q 303 972 301 972 q 318 972 309 972 q 335 968 327 971 q 437 861 402 945 q 465 766 454 825 q 478 823 471 796 q 589 958 515 927 q 623 962 604 962 q 656 959 640 962 q 722 929 684 953 q 839 739 825 857 l 840 729 q 838 719 840 723 q 832 711 836 715 q 816 703 825 703 l 812 704 q 796 716 800 708 q 793 735 793 725 q 760 828 788 785 q 742 849 753 838 q 723 867 730 861 q 687 885 707 878 q 650 892 667 892 q 644 892 646 892 q 640 891 642 892 q 638 891 639 891 q 637 890 638 890 q 626 857 630 884 q 621 794 623 829 q 620 682 620 773 l 620 604 l 621 464 q 637 468 629 465 q 745 490 705 485 q 763 492 755 492 q 780 487 773 492 q 786 478 785 483 q 787 471 787 473 l 787 469 q 776 449 787 454 q 753 444 765 445 q 706 435 734 441 q 647 421 677 429 l 623 415 l 626 191 l 626 178 q 627 128 627 145 q 628 104 627 111 q 630 93 629 97 q 635 76 633 83 q 643 64 638 69 q 649 59 647 60 q 654 58 651 58 l 655 58 q 709 80 674 58 q 787 149 743 102 q 835 206 821 186 q 851 227 846 222 q 865 233 857 233 q 886 216 882 233 l 887 211 q 882 197 887 207 q 862 167 878 187 q 816 113 846 147 q 729 37 780 72 q 640 1 679 1 q 617 4 629 1 q 565 33 591 12 q 520 81 538 54 q 515 90 517 85 z "},"":{"ha":985,"x_min":52,"x_max":935,"o":"m 503 676 q 494 713 498 697 q 462 789 483 755 q 422 842 440 826 q 397 859 405 859 q 375 852 387 859 q 357 836 363 846 q 291 680 325 772 q 235 477 257 587 q 221 393 224 426 q 218 313 218 359 q 218 275 218 288 q 219 252 218 261 q 222 235 220 243 q 245 156 231 190 q 274 107 256 130 q 319 85 292 85 q 336 89 327 85 q 383 117 358 96 q 415 151 397 130 q 442 189 433 173 q 503 355 481 259 l 497 354 q 471 347 480 349 q 456 345 463 345 q 446 348 450 345 q 435 365 437 355 q 444 383 435 375 q 460 391 448 386 q 483 399 471 395 l 504 407 q 503 450 504 420 q 499 539 500 490 l 498 572 q 503 676 498 627 m 522 228 q 516 215 519 222 q 429 68 479 125 q 296 -7 363 -7 q 265 -3 281 -7 q 143 87 199 16 q 52 374 52 208 q 54 426 52 399 q 115 693 66 559 q 231 910 164 827 q 269 949 248 930 q 302 977 290 969 q 319 982 311 981 q 335 983 328 983 q 372 977 355 982 q 447 930 408 962 q 509 865 485 899 q 529 826 518 850 q 637 954 566 924 q 671 958 652 958 q 704 954 688 958 q 770 924 732 948 q 887 734 873 852 l 888 724 q 886 714 888 718 q 880 706 884 710 q 864 699 873 699 l 860 699 q 844 712 848 703 q 841 730 841 720 q 808 823 836 781 q 790 845 801 833 q 771 863 779 857 q 735 880 755 873 q 699 887 715 887 q 692 887 694 887 q 688 887 690 887 q 687 886 687 886 q 686 885 686 886 q 674 852 678 879 q 669 789 671 825 q 668 677 668 768 l 668 600 l 669 459 q 686 463 677 460 q 793 486 753 480 q 811 487 804 487 q 828 482 821 487 q 834 473 833 478 q 836 467 836 469 l 836 464 q 824 445 836 449 q 801 439 813 440 q 754 431 783 437 q 695 416 726 425 l 671 410 l 674 186 l 674 173 q 675 123 675 140 q 676 99 675 106 q 678 88 677 92 q 684 71 681 78 q 691 60 686 64 q 697 55 695 56 q 702 53 699 54 l 703 53 q 757 75 722 53 q 835 144 791 97 q 883 201 869 181 q 899 222 894 217 q 913 228 905 228 q 935 211 930 228 l 935 206 q 930 192 935 202 q 910 162 926 182 q 864 108 895 142 q 777 32 828 67 q 688 -3 727 -3 q 665 -1 677 -3 q 613 28 640 7 q 568 77 587 49 q 534 162 545 111 q 522 228 527 189 z "},"":{"ha":555,"x_min":47,"x_max":508,"o":"m 234 -1 q 176 33 208 7 q 121 90 142 59 q 95 138 107 111 q 74 192 82 166 q 47 412 47 289 q 48 456 47 434 q 79 701 54 600 q 176 916 115 853 q 249 970 214 958 q 273 973 260 973 q 387 908 330 973 q 461 765 433 849 l 461 764 q 462 763 462 764 q 466 752 463 760 q 475 721 471 739 q 479 687 479 703 q 471 661 479 670 q 456 656 466 656 q 441 659 450 656 q 402 782 429 723 q 340 878 375 841 q 330 887 333 884 q 322 891 326 890 q 309 892 317 892 q 305 892 307 892 q 301 891 303 892 q 298 891 299 891 l 298 890 q 270 828 289 881 q 236 705 252 776 q 203 494 216 610 q 191 289 191 377 l 192 244 q 201 159 194 192 q 224 96 209 125 q 264 55 239 67 q 288 50 275 50 q 309 53 298 50 q 425 189 370 77 q 459 279 450 240 q 468 307 463 298 q 484 318 473 317 l 487 318 q 504 309 498 318 q 508 295 508 302 q 507 283 508 290 q 479 198 500 248 q 437 113 459 149 q 315 5 382 25 q 309 3 312 4 q 310 -9 309 -3 q 311 -19 311 -16 q 311 -25 311 -23 q 314 -28 312 -27 q 319 -31 315 -29 q 328 -35 322 -32 q 374 -92 366 -54 q 377 -119 377 -103 q 374 -145 377 -134 q 312 -205 359 -195 l 300 -207 q 295 -206 298 -207 q 288 -205 292 -205 q 262 -186 273 -201 q 245 -141 245 -160 q 256 -126 245 -127 q 265 -140 264 -126 q 279 -161 265 -161 q 292 -157 284 -161 q 304 -134 304 -148 q 303 -123 304 -129 q 277 -98 298 -109 q 259 -86 265 -92 q 247 -74 252 -81 q 233 -29 235 -57 l 233 -19 q 234 -1 233 -9 z "},"":{"ha":595,"x_min":47,"x_max":547,"o":"m 300 1 q 277 4 290 1 q 225 33 252 12 q 180 81 199 54 q 145 166 157 116 q 125 312 134 217 l 120 361 l 109 359 q 83 351 92 353 q 68 349 75 349 q 58 353 62 349 q 47 370 49 359 q 56 388 47 380 q 72 395 60 391 q 95 404 83 400 l 116 412 q 115 455 116 425 q 111 544 112 494 l 111 577 q 138 823 111 723 q 250 958 175 927 q 283 962 264 962 q 316 959 300 962 q 382 929 345 953 q 499 739 486 857 l 500 729 q 498 719 500 723 q 492 711 496 715 q 476 703 486 703 l 472 704 q 456 716 460 708 q 453 735 453 725 q 420 828 448 785 q 402 849 413 838 q 383 867 391 861 q 348 885 368 878 q 311 892 328 892 q 304 892 307 892 q 300 891 302 892 q 299 891 299 891 q 298 890 298 890 q 287 857 290 884 q 281 794 283 829 q 280 682 280 773 l 280 604 l 281 464 q 298 468 289 465 q 405 490 365 485 q 423 492 416 492 q 440 487 433 492 q 446 478 445 483 q 448 471 448 473 l 448 469 q 436 449 448 454 q 413 444 425 445 q 366 435 395 441 q 307 421 338 429 l 283 415 l 286 191 q 286 178 286 184 q 287 128 287 145 q 288 104 288 111 q 290 93 289 97 q 296 76 293 83 q 303 64 298 69 q 309 59 307 60 q 314 58 311 58 q 315 58 315 58 q 369 80 334 58 q 447 149 404 102 q 495 206 481 186 q 511 227 506 222 q 525 233 517 233 q 547 216 543 233 l 547 211 q 543 197 547 207 q 522 167 538 187 q 476 113 507 147 q 389 37 440 72 q 300 1 339 1 m 336 1007 q 317 1010 328 1007 q 297 1020 305 1015 q 275 1037 288 1025 q 185 1154 211 1096 q 173 1197 173 1177 l 173 1204 q 177 1221 174 1214 q 186 1235 180 1228 q 212 1245 195 1245 l 218 1245 q 235 1241 227 1244 q 252 1231 242 1238 q 277 1206 260 1224 q 306 1172 294 1187 q 336 1126 317 1158 q 368 1069 355 1095 q 373 1058 372 1062 q 374 1045 374 1053 q 373 1033 374 1037 q 369 1025 372 1029 q 336 1007 357 1007 z "},"":{"ha":595,"x_min":47,"x_max":547,"o":"m 300 1 q 277 4 290 1 q 225 33 252 12 q 180 81 199 54 q 145 166 157 116 q 125 312 134 217 l 120 361 l 109 359 q 83 351 92 353 q 68 349 75 349 q 58 353 62 349 q 47 370 49 359 q 56 388 47 380 q 72 395 60 391 q 95 404 83 400 l 116 412 q 115 455 116 425 q 111 544 112 494 l 111 577 q 138 823 111 723 q 250 958 175 927 q 283 962 264 962 q 316 959 300 962 q 382 929 345 953 q 499 739 486 857 l 500 729 q 498 719 500 723 q 492 711 496 715 q 476 703 486 703 l 472 704 q 456 716 460 708 q 453 735 453 725 q 420 828 448 785 q 402 849 413 838 q 383 867 391 861 q 348 885 368 878 q 311 892 328 892 q 304 892 307 892 q 300 891 302 892 q 299 891 299 891 q 298 890 298 890 q 287 857 290 884 q 281 794 283 829 q 280 682 280 773 l 280 604 l 281 464 q 298 468 289 465 q 405 490 365 485 q 423 492 416 492 q 440 487 433 492 q 446 478 445 483 q 448 471 448 473 l 448 469 q 436 449 448 454 q 413 444 425 445 q 366 435 395 441 q 307 421 338 429 l 283 415 l 286 191 q 286 178 286 184 q 287 128 287 145 q 288 104 288 111 q 290 93 289 97 q 296 76 293 83 q 303 64 298 69 q 309 59 307 60 q 314 58 311 58 q 315 58 315 58 q 369 80 334 58 q 447 149 404 102 q 495 206 481 186 q 511 227 506 222 q 525 233 517 233 q 547 216 543 233 l 547 211 q 543 197 547 207 q 522 167 538 187 q 476 113 507 147 q 389 37 440 72 q 300 1 339 1 m 302 1004 q 295 1005 298 1004 q 287 1009 290 1006 q 279 1015 283 1011 q 271 1036 271 1025 q 279 1061 271 1048 q 301 1090 285 1071 q 330 1124 317 1110 q 376 1179 365 1162 q 396 1201 387 1194 q 420 1207 406 1207 q 449 1195 438 1207 q 460 1166 460 1182 q 456 1149 460 1158 q 426 1102 450 1134 q 378 1046 402 1070 q 339 1016 360 1027 q 302 1004 318 1004 z "}}}
